<svg xmlns="http://www.w3.org/2000/svg" viewBox="0 0 1240 626" role="img" aria-label="백룸 허브 구성과 레벨 갈래 플로우차트">
<style>
.t{font-family:Rajdhani,sans-serif;font-weight:700;font-size:12.5px;fill:#0F172A}
.s{font-family:Rajdhani,sans-serif;font-weight:500;font-size:10.5px;fill:#64748B}
.h{font-family:Orbitron,monospace;font-weight:700;font-size:10px;fill:#fff}
.lbl{font-family:Orbitron,monospace;font-weight:700;font-size:8.5px;letter-spacing:.6px}
.note{font-family:Rajdhani,sans-serif;font-weight:600;font-size:10.5px;fill:#94A3B8}
</style>
<marker id="a" markerWidth="8" markerHeight="8" refX="6.5" refY="2.8" orient="auto"><path d="M0,0 L6.5,2.8 L0,5.6 z" fill="#94A3B8"/></marker>
<marker id="ah" markerWidth="8" markerHeight="8" refX="6.5" refY="2.8" orient="auto"><path d="M0,0 L6.5,2.8 L0,5.6 z" fill="#2563EB"/></marker>
<rect x="0" y="0" width="1240" height="626" fill="#F8FAFC"/>
<text x="20" y="30" font-family="Orbitron,monospace" font-size="13" font-weight="700" fill="#0F172A">허브에서 뻗어나가는 7개 갈래</text>
<text x="20" y="50" class="s">M.E.G. 베이스(Bunker)에서 직접 진입 · 게임 DT_Levels 원본 기준</text>
<rect x="18" y="80" width="118" height="492" rx="12" fill="#2563EB" fill-opacity=".10" stroke="#2563EB" stroke-width="2"/>
<text x="77" y="318" text-anchor="middle" font-family="Orbitron,monospace" font-size="11" font-weight="700" fill="#2563EB">M.E.G.</text>
<text x="77" y="334" text-anchor="middle" font-family="Orbitron,monospace" font-size="11" font-weight="700" fill="#2563EB">BASE</text>
<text x="77" y="352" text-anchor="middle" class="s">허브</text>
<path d="M136,105 L156,105" stroke="#2563EB" stroke-width="1.6" fill="none" stroke-opacity=".7" marker-end="url(#ah)"/>
<rect x="162.0" y="88.0" width="84.0" height="34.0" rx="7" fill="#fff" stroke="#059669" stroke-width="2"/>
<rect x="162.0" y="88.0" width="3.5" height="34.0" rx="2" fill="#059669"/>
<text x="206.0" y="109.5" text-anchor="middle" class="t">Level 0</text>
<path d="M246.0,105.0 L256.0,105.0" stroke="#94A3B8" stroke-width="1.3" fill="none" marker-end="url(#a)"/>
<rect x="258.0" y="88.0" width="84.0" height="34.0" rx="7" fill="#fff" stroke="#F59E0B" stroke-width="1.2"/>
<rect x="258.0" y="88.0" width="3.5" height="34.0" rx="2" fill="#F59E0B"/>
<text x="302.0" y="109.5" text-anchor="middle" class="t">Level 1</text>
<path d="M342.0,105.0 L352.0,105.0" stroke="#94A3B8" stroke-width="1.3" fill="none" marker-end="url(#a)"/>
<rect x="354.0" y="88.0" width="84.0" height="34.0" rx="7" fill="#fff" stroke="#059669" stroke-width="1.2"/>
<rect x="354.0" y="88.0" width="3.5" height="34.0" rx="2" fill="#059669"/>
<text x="398.0" y="109.5" text-anchor="middle" class="t">Level 2</text>
<path d="M438.0,105.0 L448.0,105.0" stroke="#94A3B8" stroke-width="1.3" fill="none" marker-end="url(#a)"/>
<rect x="450.0" y="88.0" width="84.0" height="34.0" rx="7" fill="#fff" stroke="#E11D48" stroke-width="1.2"/>
<rect x="450.0" y="88.0" width="3.5" height="34.0" rx="2" fill="#E11D48"/>
<text x="494.0" y="109.5" text-anchor="middle" class="t">Level 3</text>
<path d="M534.0,105.0 L544.0,105.0" stroke="#94A3B8" stroke-width="1.3" fill="none" marker-end="url(#a)"/>
<rect x="546.0" y="88.0" width="84.0" height="34.0" rx="7" fill="#fff" stroke="#059669" stroke-width="1.2"/>
<rect x="546.0" y="88.0" width="3.5" height="34.0" rx="2" fill="#059669"/>
<text x="590.0" y="109.5" text-anchor="middle" class="t">Level 4</text>
<path d="M630.0,105.0 L640.0,105.0" stroke="#94A3B8" stroke-width="1.3" fill="none" marker-end="url(#a)"/>
<rect x="642.0" y="88.0" width="84.0" height="34.0" rx="7" fill="#fff" stroke="#F59E0B" stroke-width="1.2"/>
<rect x="642.0" y="88.0" width="3.5" height="34.0" rx="2" fill="#F59E0B"/>
<text x="686.0" y="109.5" text-anchor="middle" class="t">Level 5</text>
<path d="M738.0,105.0 L760.0,105.0" stroke="#94A3B8" stroke-width="1.3" fill="none" stroke-dasharray="4 3" marker-end="url(#a)"/>
<text x="764.0" y="108.5" class="note">Pipes 경유 · Level 2 맵으로</text>
<text x="164.0" y="135.0" class="s" font-weight="700">메인 캠페인</text>
<path d="M136,179 L156,179" stroke="#2563EB" stroke-width="1.6" fill="none" stroke-opacity=".7" marker-end="url(#ah)"/>
<rect x="162.0" y="162.0" width="84.0" height="34.0" rx="7" fill="#fff" stroke="#F59E0B" stroke-width="2"/>
<rect x="162.0" y="162.0" width="3.5" height="34.0" rx="2" fill="#F59E0B"/>
<text x="206.0" y="183.5" text-anchor="middle" class="t">Level Fun</text>
<path d="M246.0,179.0 L256.0,179.0" stroke="#94A3B8" stroke-width="1.3" fill="none" marker-end="url(#a)"/>
<rect x="258.0" y="162.0" width="84.0" height="34.0" rx="7" fill="#fff" stroke="#059669" stroke-width="1.2"/>
<rect x="258.0" y="162.0" width="3.5" height="34.0" rx="2" fill="#059669"/>
<text x="302.0" y="183.5" text-anchor="middle" class="t">Level 37</text>
<path d="M342.0,179.0 L352.0,179.0" stroke="#94A3B8" stroke-width="1.3" fill="none" marker-end="url(#a)"/>
<rect x="354.0" y="162.0" width="84.0" height="34.0" rx="7" fill="#fff" stroke="#E11D48" stroke-width="1.2"/>
<rect x="354.0" y="162.0" width="3.5" height="34.0" rx="2" fill="#E11D48"/>
<text x="398.0" y="183.5" text-anchor="middle" class="t">Level !</text>
<path d="M438.0,179.0 L448.0,179.0" stroke="#94A3B8" stroke-width="1.3" fill="none" marker-end="url(#a)"/>
<rect x="450.0" y="162.0" width="84.0" height="34.0" rx="7" fill="#fff" stroke="#F59E0B" stroke-width="1.2"/>
<rect x="450.0" y="162.0" width="3.5" height="34.0" rx="2" fill="#F59E0B"/>
<text x="494.0" y="183.5" text-anchor="middle" class="t">The End</text>
<path d="M534.0,179.0 L544.0,179.0" stroke="#94A3B8" stroke-width="1.3" fill="none" marker-end="url(#a)"/>
<rect x="546.0" y="162.0" width="84.0" height="34.0" rx="7" fill="#fff" stroke="#F59E0B" stroke-width="1.2"/>
<rect x="546.0" y="162.0" width="3.5" height="34.0" rx="2" fill="#F59E0B"/>
<text x="590.0" y="183.5" text-anchor="middle" class="t">Level 94</text>
<path d="M630.0,179.0 L640.0,179.0" stroke="#94A3B8" stroke-width="1.3" fill="none" marker-end="url(#a)"/>
<rect x="642.0" y="162.0" width="84.0" height="34.0" rx="7" fill="#fff" stroke="#F59E0B" stroke-width="1.2"/>
<rect x="642.0" y="162.0" width="3.5" height="34.0" rx="2" fill="#F59E0B"/>
<text x="686.0" y="183.5" text-anchor="middle" class="t">Level 6</text>
<path d="M726.0,179.0 L736.0,179.0" stroke="#94A3B8" stroke-width="1.3" fill="none" marker-end="url(#a)"/>
<rect x="738.0" y="162.0" width="84.0" height="34.0" rx="7" fill="#fff" stroke="#F59E0B" stroke-width="1.2"/>
<rect x="738.0" y="162.0" width="3.5" height="34.0" rx="2" fill="#F59E0B"/>
<text x="782.0" y="183.5" text-anchor="middle" class="t">Level 7</text>
<path d="M822.0,179.0 L832.0,179.0" stroke="#94A3B8" stroke-width="1.3" fill="none" marker-end="url(#a)"/>
<rect x="834.0" y="162.0" width="84.0" height="34.0" rx="7" fill="#fff" stroke="#E11D48" stroke-width="1.2"/>
<rect x="834.0" y="162.0" width="3.5" height="34.0" rx="2" fill="#E11D48"/>
<text x="878.0" y="183.5" text-anchor="middle" class="t">Level 8</text>
<path d="M930.0,179.0 L952.0,179.0" stroke="#94A3B8" stroke-width="1.3" fill="none" stroke-dasharray="4 3" marker-end="url(#a)"/>
<text x="956.0" y="182.5" class="note">Level 0 으로</text>
<path d="M136,253 L156,253" stroke="#2563EB" stroke-width="1.6" fill="none" stroke-opacity=".7" marker-end="url(#ah)"/>
<rect x="162.0" y="236.0" width="84.0" height="34.0" rx="7" fill="#fff" stroke="#F59E0B" stroke-width="2"/>
<rect x="162.0" y="236.0" width="3.5" height="34.0" rx="2" fill="#F59E0B"/>
<text x="206.0" y="257.5" text-anchor="middle" class="t">Level 0.11</text>
<path d="M258.0,253.0 L280.0,253.0" stroke="#94A3B8" stroke-width="1.3" fill="none" stroke-dasharray="4 3" marker-end="url(#a)"/>
<text x="284.0" y="256.5" class="note">Level 8 로 합류</text>
<path d="M136,327 L156,327" stroke="#2563EB" stroke-width="1.6" fill="none" stroke-opacity=".7" marker-end="url(#ah)"/>
<rect x="162.0" y="310.0" width="84.0" height="34.0" rx="7" fill="#fff" stroke="#E11D48" stroke-width="2"/>
<rect x="162.0" y="310.0" width="3.5" height="34.0" rx="2" fill="#E11D48"/>
<text x="206.0" y="331.5" text-anchor="middle" class="t">Level 9</text>
<path d="M246.0,327.0 L256.0,327.0" stroke="#94A3B8" stroke-width="1.3" fill="none" marker-end="url(#a)"/>
<rect x="258.0" y="310.0" width="84.0" height="34.0" rx="7" fill="#fff" stroke="#F59E0B" stroke-width="1.2"/>
<rect x="258.0" y="310.0" width="3.5" height="34.0" rx="2" fill="#F59E0B"/>
<text x="302.0" y="331.5" text-anchor="middle" class="t">Level 10</text>
<path d="M342.0,327.0 L352.0,327.0" stroke="#94A3B8" stroke-width="1.3" fill="none" marker-end="url(#a)"/>
<rect x="354.0" y="310.0" width="84.0" height="34.0" rx="7" fill="#fff" stroke="#059669" stroke-width="1.2"/>
<rect x="354.0" y="310.0" width="3.5" height="34.0" rx="2" fill="#059669"/>
<text x="398.0" y="331.5" text-anchor="middle" class="t">Level 3999</text>
<path d="M438.0,327.0 L448.0,327.0" stroke="#94A3B8" stroke-width="1.3" fill="none" marker-end="url(#a)"/>
<rect x="450.0" y="310.0" width="84.0" height="34.0" rx="7" fill="#fff" stroke="#E11D48" stroke-width="1.2"/>
<rect x="450.0" y="310.0" width="3.5" height="34.0" rx="2" fill="#E11D48"/>
<text x="494.0" y="331.5" text-anchor="middle" class="t">Level 0.2</text>
<path d="M534.0,327.0 L544.0,327.0" stroke="#94A3B8" stroke-width="1.3" fill="none" marker-end="url(#a)"/>
<rect x="546.0" y="310.0" width="84.0" height="34.0" rx="7" fill="#fff" stroke="#059669" stroke-width="1.2"/>
<rect x="546.0" y="310.0" width="3.5" height="34.0" rx="2" fill="#059669"/>
<text x="590.0" y="331.5" text-anchor="middle" class="t">스낵룸</text>
<path d="M630.0,327.0 L640.0,327.0" stroke="#94A3B8" stroke-width="1.3" fill="none" marker-end="url(#a)"/>
<rect x="642.0" y="310.0" width="84.0" height="34.0" rx="7" fill="#fff" stroke="#E11D48" stroke-width="1.2"/>
<rect x="642.0" y="310.0" width="3.5" height="34.0" rx="2" fill="#E11D48"/>
<text x="686.0" y="331.5" text-anchor="middle" class="t">Level !-!</text>
<path d="M726.0,327.0 L736.0,327.0" stroke="#94A3B8" stroke-width="1.3" fill="none" marker-end="url(#a)"/>
<rect x="738.0" y="310.0" width="84.0" height="34.0" rx="7" fill="#fff" stroke="#F59E0B" stroke-width="1.2"/>
<rect x="738.0" y="310.0" width="3.5" height="34.0" rx="2" fill="#F59E0B"/>
<text x="782.0" y="331.5" text-anchor="middle" class="t">Level 188</text>
<path d="M822.0,327.0 L832.0,327.0" stroke="#94A3B8" stroke-width="1.3" fill="none" marker-end="url(#a)"/>
<rect x="834.0" y="310.0" width="84.0" height="34.0" rx="7" fill="#fff" stroke="#F59E0B" stroke-width="1.2"/>
<rect x="834.0" y="310.0" width="3.5" height="34.0" rx="2" fill="#F59E0B"/>
<text x="878.0" y="331.5" text-anchor="middle" class="t">Level 37.2</text>
<path d="M918.0,327.0 L928.0,327.0" stroke="#94A3B8" stroke-width="1.3" fill="none" marker-end="url(#a)"/>
<rect x="930.0" y="310.0" width="84.0" height="34.0" rx="7" fill="#fff" stroke="#E11D48" stroke-width="1.2"/>
<rect x="930.0" y="310.0" width="3.5" height="34.0" rx="2" fill="#E11D48"/>
<text x="974.0" y="331.5" text-anchor="middle" class="t">Fun+</text>
<path d="M1014.0,327.0 L1024.0,327.0" stroke="#94A3B8" stroke-width="1.3" fill="none" marker-end="url(#a)"/>
<rect x="1026.0" y="310.0" width="84.0" height="34.0" rx="7" fill="#fff" stroke="#E11D48" stroke-width="1.2"/>
<rect x="1026.0" y="310.0" width="3.5" height="34.0" rx="2" fill="#E11D48"/>
<text x="1070.0" y="331.5" text-anchor="middle" class="t">Level 52</text>
<path d="M1110.0,327.0 L1120.0,327.0" stroke="#94A3B8" stroke-width="1.3" fill="none" marker-end="url(#a)"/>
<rect x="1122.0" y="310.0" width="84.0" height="34.0" rx="7" fill="#fff" stroke="#E11D48" stroke-width="1.2"/>
<rect x="1122.0" y="310.0" width="3.5" height="34.0" rx="2" fill="#E11D48"/>
<text x="1166.0" y="331.5" text-anchor="middle" class="t">Level 55.1</text>
<path d="M1218.0,327.0 L1244.0,327.0" stroke="#2563EB" stroke-width="1.4" fill="none" stroke-dasharray="4 3" marker-end="url(#ah)"/>
<text x="1248.0" y="330.5" class="lbl" fill="#2563EB">허브 복귀</text>
<text x="164.0" y="357.0" class="s" font-weight="700">가장 긴 갈래</text>
<path d="M136,401 L156,401" stroke="#2563EB" stroke-width="1.6" fill="none" stroke-opacity=".7" marker-end="url(#ah)"/>
<rect x="162.0" y="384.0" width="84.0" height="34.0" rx="7" fill="#fff" stroke="#059669" stroke-width="2"/>
<rect x="162.0" y="384.0" width="3.5" height="34.0" rx="2" fill="#059669"/>
<text x="206.0" y="405.5" text-anchor="middle" class="t">Level 922</text>
<path d="M258.0,401.0 L280.0,401.0" stroke="#94A3B8" stroke-width="1.3" fill="none" stroke-dasharray="4 3" marker-end="url(#a)"/>
<text x="284.0" y="404.5" class="note">Level 94 로 합류</text>
<text x="164.0" y="431.0" class="s" font-weight="700">교외 엔딩</text>
<path d="M136,475 L156,475" stroke="#2563EB" stroke-width="1.6" fill="none" stroke-opacity=".7" marker-end="url(#ah)"/>
<rect x="162.0" y="458.0" width="84.0" height="34.0" rx="7" fill="#fff" stroke="#F59E0B" stroke-width="2"/>
<rect x="162.0" y="458.0" width="3.5" height="34.0" rx="2" fill="#F59E0B"/>
<text x="206.0" y="479.5" text-anchor="middle" class="t">Level 974</text>
<path d="M258.0,475.0 L284.0,475.0" stroke="#2563EB" stroke-width="1.4" fill="none" stroke-dasharray="4 3" marker-end="url(#ah)"/>
<text x="288.0" y="478.5" class="lbl" fill="#2563EB">허브 복귀</text>
<text x="164.0" y="505.0" class="s" font-weight="700">핑크 하우스 엔딩</text>
<path d="M136,549 L156,549" stroke="#2563EB" stroke-width="1.6" fill="none" stroke-opacity=".7" marker-end="url(#ah)"/>
<rect x="162.0" y="532.0" width="84.0" height="34.0" rx="7" fill="#fff" stroke="#F59E0B" stroke-width="2"/>
<rect x="162.0" y="532.0" width="3.5" height="34.0" rx="2" fill="#F59E0B"/>
<text x="206.0" y="553.5" text-anchor="middle" class="t">Level 421</text>
<path d="M246.0,549.0 L256.0,549.0" stroke="#94A3B8" stroke-width="1.3" fill="none" marker-end="url(#a)"/>
<rect x="258.0" y="532.0" width="84.0" height="34.0" rx="7" fill="#fff" stroke="#F59E0B" stroke-width="1.2"/>
<rect x="258.0" y="532.0" width="3.5" height="34.0" rx="2" fill="#F59E0B"/>
<text x="302.0" y="553.5" text-anchor="middle" class="t">오버그로스</text>
<path d="M342.0,549.0 L352.0,549.0" stroke="#94A3B8" stroke-width="1.3" fill="none" marker-end="url(#a)"/>
<rect x="354.0" y="532.0" width="84.0" height="34.0" rx="7" fill="#fff" stroke="#059669" stroke-width="1.2"/>
<rect x="354.0" y="532.0" width="3.5" height="34.0" rx="2" fill="#059669"/>
<text x="398.0" y="553.5" text-anchor="middle" class="t">그래스룸</text>
<path d="M450.0,549.0 L476.0,549.0" stroke="#2563EB" stroke-width="1.4" fill="none" stroke-dasharray="4 3" marker-end="url(#ah)"/>
<text x="480.0" y="552.5" class="lbl" fill="#2563EB">허브 복귀</text>
<text x="164.0" y="579.0" class="s" font-weight="700">빈 도시 엔딩 · 신규</text>
<text x="20" y="612" class="s">위험도</text>
<rect x="66" y="603" width="10" height="10" rx="2" fill="#059669"/>
<text x="80" y="612" class="s">0~1</text>
<rect x="128" y="603" width="10" height="10" rx="2" fill="#F59E0B"/>
<text x="142" y="612" class="s">2~3</text>
<rect x="190" y="603" width="10" height="10" rx="2" fill="#E11D48"/>
<text x="204" y="612" class="s">4~5</text>
<text x="262" y="612" class="s">실선 = 자동 진행 · 점선 = 복귀/합류</text>
</svg>