<svg xmlns="http://www.w3.org/2000/svg" viewBox="0 0 1200 714">
<style>
.ti{font-family:Orbitron,monospace;font-size:14px;font-weight:700;fill:#0F172A}
.su{font-family:monospace;font-size:11px;fill:#475569}
.fl{font-family:Orbitron,monospace;font-size:11px;font-weight:700;fill:#2563EB}
.mk{font-family:Rajdhani,sans-serif;font-size:11px;font-weight:700;fill:#0F172A}
</style>
<rect x="0" y="0" width="1200" height="714" fill="#F8FAFC"/>
<text x="20" y="26" class="ti">LEVEL 1 — Habitable Zone</text>
<text x="20" y="45" class="su">위험도 2 · 목표 10:00 · 맵 7개</text>
<text x="12.0" y="60" class="fl">1층 / 3 &#183; Z -7~2 m</text>
<g stroke="#0F172A" stroke-opacity=".82" stroke-width="1.40" stroke-linecap="square">
<line x1="271.2" y1="329.5" x2="271.2" y2="344.6"/>
<line x1="263.3" y1="329.5" x2="263.3" y2="344.6"/>
<line x1="271.2" y1="314.4" x2="271.2" y2="329.5"/>
<line x1="263.3" y1="314.4" x2="263.3" y2="329.5"/>
<line x1="267.0" y1="307.0" x2="251.9" y2="307.0"/>
<line x1="218.0" y1="457.9" x2="233.3" y2="457.9"/>
<line x1="218.0" y1="419.7" x2="233.3" y2="419.7"/>
<line x1="218.0" y1="381.5" x2="233.3" y2="381.5"/>
<line x1="218.0" y1="343.2" x2="233.3" y2="343.2"/>
<line x1="218.0" y1="305.0" x2="233.3" y2="305.0"/>
<line x1="218.0" y1="266.7" x2="233.3" y2="266.7"/>
<line x1="218.0" y1="496.2" x2="233.3" y2="496.2"/>
<line x1="137.5" y1="658.3" x2="137.5" y2="650.6"/>
<line x1="120.8" y1="658.3" x2="120.8" y2="650.6"/>
<line x1="137.5" y1="658.3" x2="137.5" y2="650.6"/>
<line x1="120.8" y1="658.3" x2="120.8" y2="650.6"/>
<line x1="122.0" y1="658.3" x2="122.0" y2="650.6"/>
<line x1="259.5" y1="390.5" x2="267.2" y2="390.5"/>
<line x1="309.2" y1="390.5" x2="316.9" y2="390.5"/>
<line x1="374.2" y1="390.5" x2="381.9" y2="390.5"/>
<line x1="284.4" y1="344.6" x2="276.7" y2="344.6"/>
<line x1="257.6" y1="344.6" x2="250.0" y2="344.6"/>
<line x1="347.1" y1="321.6" x2="339.4" y2="321.6"/>
<line x1="253.8" y1="321.6" x2="246.1" y2="321.6"/>
<line x1="284.4" y1="413.4" x2="276.7" y2="413.4"/>
<line x1="366.2" y1="443.1" x2="366.2" y2="435.4"/>
<line x1="366.6" y1="410.7" x2="366.6" y2="403.1"/>
<line x1="366.6" y1="328.9" x2="366.6" y2="321.3"/>
<line x1="366.2" y1="423.7" x2="366.2" y2="416.1"/>
<line x1="354.7" y1="321.6" x2="347.1" y2="321.6"/>
<line x1="299.3" y1="390.5" x2="306.9" y2="390.5"/>
<line x1="320.7" y1="390.5" x2="328.4" y2="390.5"/>
<line x1="286.3" y1="344.6" x2="278.6" y2="344.6"/>
<line x1="320.7" y1="424.9" x2="297.8" y2="424.9"/>
<line x1="297.8" y1="424.9" x2="274.8" y2="424.9"/>
<line x1="274.8" y1="424.9" x2="251.9" y2="424.9"/>
<line x1="263.3" y1="390.5" x2="263.3" y2="413.4"/>
<line x1="355.1" y1="459.3" x2="355.1" y2="436.4"/>
<line x1="148.8" y1="641.8" x2="156.5" y2="641.8"/>
<line x1="153.4" y1="641.8" x2="161.1" y2="641.8"/>
<line x1="297.8" y1="379.0" x2="320.7" y2="379.0"/>
<line x1="320.7" y1="379.0" x2="343.6" y2="379.0"/>
<line x1="240.4" y1="390.5" x2="240.4" y2="413.4"/>
<line x1="389.5" y1="356.1" x2="366.6" y2="356.1"/>
<line x1="366.6" y1="333.1" x2="343.6" y2="333.1"/>
<line x1="297.8" y1="356.1" x2="274.8" y2="356.1"/>
<line x1="274.8" y1="356.1" x2="261.6" y2="356.1"/>
<line x1="263.3" y1="321.6" x2="263.3" y2="344.6"/>
<line x1="240.4" y1="321.6" x2="240.4" y2="344.6"/>
<line x1="240.4" y1="436.4" x2="240.4" y2="459.3"/>
<line x1="240.4" y1="459.3" x2="240.4" y2="482.2"/>
<line x1="240.4" y1="482.2" x2="240.4" y2="505.2"/>
<line x1="263.3" y1="551.1" x2="263.3" y2="574.0"/>
<line x1="240.4" y1="344.6" x2="240.4" y2="367.5"/>
<line x1="355.1" y1="436.4" x2="355.1" y2="413.4"/>
<line x1="257.3" y1="356.1" x2="251.9" y2="356.1"/>
<line x1="261.6" y1="356.1" x2="257.3" y2="356.1"/>
<line x1="271.2" y1="299.3" x2="271.2" y2="314.4"/>
<line x1="251.5" y1="584.3" x2="228.6" y2="584.3"/>
<line x1="263.3" y1="299.3" x2="263.3" y2="314.4"/>
<line x1="251.9" y1="333.1" x2="228.9" y2="333.1"/>
<line x1="355.9" y1="390.5" x2="355.9" y2="413.4"/>
<line x1="343.6" y1="424.9" x2="320.7" y2="424.9"/>
<line x1="240.4" y1="413.4" x2="240.4" y2="436.4"/>
<line x1="235.8" y1="558.7" x2="243.5" y2="558.7"/>
<line x1="351.7" y1="407.7" x2="359.3" y2="407.7"/>
<line x1="341.7" y1="413.4" x2="334.1" y2="413.4"/>
<line x1="251.1" y1="409.6" x2="251.1" y2="401.9"/>
<line x1="299.7" y1="413.4" x2="292.0" y2="413.4"/>
<line x1="339.8" y1="413.4" x2="332.2" y2="413.4"/>
<line x1="340.2" y1="413.4" x2="332.6" y2="413.4"/>
<line x1="262.2" y1="413.4" x2="254.6" y2="413.4"/>
<line x1="318.8" y1="413.4" x2="311.1" y2="413.4"/>
<line x1="325.3" y1="413.4" x2="317.6" y2="413.4"/>
<line x1="283.6" y1="413.4" x2="276.0" y2="413.4"/>
<line x1="303.5" y1="413.4" x2="295.9" y2="413.4"/>
<line x1="366.6" y1="432.5" x2="366.6" y2="424.9"/>
<line x1="152.2" y1="350.7" x2="152.2" y2="366.0"/>
<line x1="228.7" y1="650.1" x2="228.7" y2="634.8"/>
<line x1="228.7" y1="634.8" x2="228.7" y2="619.5"/>
<line x1="213.4" y1="654.1" x2="228.7" y2="654.1"/>
<line x1="198.1" y1="654.1" x2="213.4" y2="654.1"/>
<line x1="182.8" y1="654.1" x2="198.1" y2="654.1"/>
<line x1="167.5" y1="654.1" x2="182.8" y2="654.1"/>
<line x1="152.2" y1="654.1" x2="167.5" y2="654.1"/>
<line x1="136.9" y1="654.1" x2="152.2" y2="654.1"/>
<line x1="152.2" y1="335.4" x2="152.2" y2="350.7"/>
<line x1="121.6" y1="654.1" x2="136.9" y2="654.1"/>
<line x1="106.3" y1="654.1" x2="121.6" y2="654.1"/>
<line x1="91.0" y1="654.1" x2="106.3" y2="654.1"/>
<line x1="91.0" y1="638.8" x2="91.0" y2="654.1"/>
<line x1="91.0" y1="623.5" x2="91.0" y2="638.8"/>
<line x1="91.0" y1="608.2" x2="91.0" y2="623.5"/>
<line x1="91.0" y1="592.9" x2="91.0" y2="608.2"/>
<line x1="136.9" y1="669.4" x2="136.9" y2="654.1"/>
<line x1="121.6" y1="654.1" x2="121.6" y2="669.4"/>
<line x1="121.6" y1="669.4" x2="136.9" y2="669.4"/>
<line x1="121.6" y1="654.1" x2="136.9" y2="654.1"/>
<line x1="136.9" y1="669.4" x2="136.9" y2="654.1"/>
<line x1="121.6" y1="654.1" x2="121.6" y2="669.4"/>
<line x1="136.9" y1="654.1" x2="121.6" y2="654.1"/>
<line x1="121.6" y1="669.4" x2="136.9" y2="669.4"/>
<line x1="136.9" y1="654.2" x2="121.6" y2="654.2"/>
<line x1="136.9" y1="669.4" x2="136.9" y2="654.1"/>
<line x1="121.6" y1="654.1" x2="121.6" y2="669.4"/>
<line x1="152.2" y1="442.4" x2="152.2" y2="457.7"/>
<line x1="121.6" y1="669.4" x2="136.9" y2="669.4"/>
<line x1="136.9" y1="654.2" x2="121.6" y2="654.2"/>
<line x1="152.2" y1="243.5" x2="152.2" y2="259.0"/>
<line x1="152.2" y1="534.2" x2="152.2" y2="549.5"/>
<line x1="228.7" y1="619.5" x2="228.7" y2="604.2"/>
<line x1="228.7" y1="665.4" x2="228.7" y2="650.1"/>
<line x1="213.4" y1="595.4" x2="198.1" y2="595.4"/>
<line x1="136.9" y1="654.2" x2="121.6" y2="654.2"/>
<line x1="213.4" y1="595.6" x2="213.4" y2="588.2"/>
<line x1="198.1" y1="588.2" x2="213.4" y2="588.2"/>
<line x1="152.2" y1="549.5" x2="167.5" y2="549.5"/>
<line x1="167.5" y1="549.5" x2="182.8" y2="549.5"/>
<line x1="182.8" y1="549.5" x2="198.1" y2="549.5"/>
<line x1="198.1" y1="549.5" x2="198.1" y2="564.8"/>
<line x1="152.2" y1="503.6" x2="152.2" y2="518.9"/>
<line x1="213.4" y1="549.5" x2="228.7" y2="549.5"/>
<line x1="228.7" y1="549.5" x2="244.0" y2="549.5"/>
<line x1="244.0" y1="549.5" x2="259.3" y2="549.5"/>
<line x1="259.3" y1="549.5" x2="274.6" y2="549.5"/>
<line x1="274.6" y1="549.5" x2="289.8" y2="549.5"/>
<line x1="289.8" y1="549.5" x2="305.1" y2="549.5"/>
<line x1="305.6" y1="243.6" x2="289.8" y2="243.6"/>
<line x1="289.8" y1="243.6" x2="274.5" y2="243.6"/>
<line x1="213.4" y1="564.8" x2="213.4" y2="549.5"/>
<line x1="259.3" y1="243.6" x2="244.0" y2="243.6"/>
<line x1="274.6" y1="243.6" x2="259.3" y2="243.6"/>
<line x1="213.4" y1="243.6" x2="198.1" y2="243.6"/>
<line x1="198.1" y1="243.6" x2="182.8" y2="243.6"/>
<line x1="182.8" y1="243.6" x2="167.5" y2="243.6"/>
<line x1="167.5" y1="243.6" x2="152.2" y2="243.6"/>
<line x1="305.1" y1="258.9" x2="305.1" y2="243.6"/>
<line x1="305.1" y1="289.5" x2="305.1" y2="274.2"/>
<line x1="305.1" y1="304.8" x2="305.1" y2="289.5"/>
<line x1="305.1" y1="320.1" x2="305.1" y2="304.8"/>
<line x1="152.2" y1="473.0" x2="152.2" y2="488.3"/>
<line x1="305.1" y1="350.7" x2="305.1" y2="335.4"/>
<line x1="228.7" y1="243.6" x2="213.4" y2="243.6"/>
<line x1="305.1" y1="411.8" x2="305.1" y2="396.6"/>
<line x1="305.1" y1="457.7" x2="305.1" y2="442.4"/>
<line x1="305.1" y1="335.4" x2="305.1" y2="320.1"/>
<line x1="305.1" y1="503.6" x2="305.1" y2="488.3"/>
<line x1="305.1" y1="518.9" x2="305.1" y2="503.6"/>
<line x1="305.1" y1="534.2" x2="305.1" y2="518.9"/>
<line x1="305.1" y1="549.6" x2="305.1" y2="534.1"/>
<line x1="305.1" y1="427.1" x2="305.1" y2="411.8"/>
<line x1="305.1" y1="442.4" x2="305.1" y2="427.1"/>
<line x1="305.1" y1="366.0" x2="305.1" y2="350.7"/>
<line x1="152.2" y1="289.5" x2="152.2" y2="304.8"/>
<line x1="152.2" y1="320.1" x2="152.2" y2="335.4"/>
<line x1="152.2" y1="258.9" x2="152.2" y2="274.2"/>
<line x1="152.2" y1="304.8" x2="152.2" y2="320.1"/>
<line x1="305.1" y1="396.6" x2="305.1" y2="381.3"/>
<line x1="305.1" y1="473.0" x2="305.1" y2="457.7"/>
<line x1="198.1" y1="564.8" x2="198.1" y2="580.1"/>
<line x1="152.2" y1="457.7" x2="152.2" y2="473.0"/>
<line x1="152.2" y1="427.1" x2="152.2" y2="442.4"/>
<line x1="198.1" y1="580.1" x2="198.1" y2="595.4"/>
<line x1="213.4" y1="580.1" x2="213.4" y2="564.8"/>
<line x1="213.4" y1="595.4" x2="213.4" y2="580.1"/>
<line x1="152.2" y1="411.8" x2="152.2" y2="427.1"/>
<line x1="228.7" y1="604.3" x2="228.7" y2="589.0"/>
<line x1="152.2" y1="396.6" x2="152.2" y2="411.8"/>
<line x1="152.2" y1="366.0" x2="152.2" y2="381.3"/>
<line x1="228.7" y1="595.4" x2="213.4" y2="595.4"/>
<line x1="198.1" y1="595.4" x2="182.8" y2="595.4"/>
<line x1="182.8" y1="595.4" x2="167.5" y2="595.4"/>
<line x1="167.5" y1="595.4" x2="152.2" y2="595.4"/>
<line x1="152.2" y1="595.4" x2="136.9" y2="595.4"/>
<line x1="136.9" y1="595.4" x2="121.6" y2="595.4"/>
<line x1="121.6" y1="595.4" x2="106.3" y2="595.4"/>
<line x1="106.3" y1="595.4" x2="91.0" y2="595.4"/>
<line x1="152.2" y1="518.9" x2="152.2" y2="534.2"/>
</g>
<rect x="252.0" y="319.3" width="15" height="15" rx="3" fill="#2563EB" stroke="#fff" stroke-width="2"/>
<text x="259.5" y="314.8" class="mk" text-anchor="middle">Level 922</text>
<rect x="251.8" y="622.1" width="15" height="15" rx="3" fill="#2563EB" stroke="#fff" stroke-width="2"/>
<text x="259.3" y="617.6" class="mk" text-anchor="middle">허브</text>
<circle cx="224.5" cy="629.3" r="7" fill="#059669" stroke="#fff" stroke-width="2"/>
<circle cx="216.7" cy="623.3" r="7" fill="#059669" stroke="#fff" stroke-width="2"/>
<circle cx="215.5" cy="628.2" r="7" fill="#059669" stroke="#fff" stroke-width="2"/>
<circle cx="132.3" cy="663.8" r="7" fill="#059669" stroke="#fff" stroke-width="2"/>
<circle cx="126.6" cy="663.7" r="7" fill="#059669" stroke="#fff" stroke-width="2"/>
<circle cx="132.5" cy="659.3" r="7" fill="#059669" stroke="#fff" stroke-width="2"/>
<circle cx="127.6" cy="658.1" r="7" fill="#059669" stroke="#fff" stroke-width="2"/>
<circle cx="243.5" cy="330.4" r="7" fill="#059669" stroke="#fff" stroke-width="2"/>
<circle cx="237.2" cy="333.3" r="7" fill="#059669" stroke="#fff" stroke-width="2"/>
<circle cx="243.5" cy="337.9" r="7" fill="#059669" stroke="#fff" stroke-width="2"/>
<circle cx="324.5" cy="236.7" r="7" fill="#059669" stroke="#fff" stroke-width="2"/>
<circle cx="237.2" cy="340.7" r="7" fill="#059669" stroke="#fff" stroke-width="2"/>
<circle cx="331.6" cy="242.3" r="7" fill="#059669" stroke="#fff" stroke-width="2"/>
<circle cx="324.5" cy="244.0" r="7" fill="#059669" stroke="#fff" stroke-width="2"/>
<circle cx="132.8" cy="248.4" r="7" fill="#059669" stroke="#fff" stroke-width="2"/>
<circle cx="125.7" cy="250.1" r="7" fill="#059669" stroke="#fff" stroke-width="2"/>
<circle cx="132.8" cy="255.6" r="7" fill="#059669" stroke="#fff" stroke-width="2"/>
<circle cx="125.7" cy="257.4" r="7" fill="#059669" stroke="#fff" stroke-width="2"/>
<circle cx="224.6" cy="623.6" r="7" fill="#059669" stroke="#fff" stroke-width="2"/>
<circle cx="331.6" cy="235.0" r="7" fill="#059669" stroke="#fff" stroke-width="2"/>
<line x1="400.0" y1="58" x2="400.0" y2="706.0" stroke="#CBD5E1"/>
<text x="412.0" y="60" class="fl">2층 / 3 &#183; Z 14~38 m</text>
<g stroke="#0F172A" stroke-opacity=".82" stroke-width="1.40" stroke-linecap="square">
<line x1="536.9" y1="669.4" x2="536.9" y2="654.1"/>
<line x1="521.6" y1="654.1" x2="521.6" y2="669.4"/>
<line x1="521.6" y1="669.4" x2="536.9" y2="669.4"/>
<line x1="536.9" y1="654.2" x2="521.6" y2="654.2"/>
<line x1="536.9" y1="669.4" x2="536.9" y2="654.1"/>
<line x1="521.6" y1="654.1" x2="521.6" y2="669.4"/>
<line x1="521.6" y1="669.4" x2="536.9" y2="669.4"/>
<line x1="536.9" y1="654.2" x2="521.6" y2="654.2"/>
<line x1="536.9" y1="669.4" x2="536.9" y2="654.1"/>
<line x1="521.6" y1="654.1" x2="521.6" y2="669.4"/>
<line x1="521.6" y1="669.4" x2="536.9" y2="669.4"/>
<line x1="536.9" y1="654.2" x2="521.6" y2="654.2"/>
<line x1="605.9" y1="355.7" x2="605.9" y2="352.4"/>
<line x1="626.8" y1="355.6" x2="626.8" y2="352.2"/>
<line x1="614.3" y1="344.9" x2="617.6" y2="344.9"/>
<line x1="618.2" y1="355.7" x2="618.2" y2="352.4"/>
<line x1="624.2" y1="355.7" x2="624.2" y2="352.4"/>
<line x1="593.5" y1="361.1" x2="590.2" y2="361.1"/>
<line x1="623.8" y1="361.0" x2="631.4" y2="361.0"/>
<line x1="638.3" y1="345.7" x2="630.6" y2="345.7"/>
<line x1="631.9" y1="345.7" x2="624.3" y2="345.7"/>
<line x1="610.8" y1="362.1" x2="610.8" y2="353.9"/>
<line x1="616.1" y1="340.7" x2="623.8" y2="340.7"/>
<line x1="610.8" y1="371.2" x2="610.8" y2="363.0"/>
<line x1="610.8" y1="361.0" x2="610.8" y2="352.8"/>
<line x1="610.8" y1="333.5" x2="610.8" y2="325.2"/>
<line x1="610.8" y1="360.2" x2="610.8" y2="352.0"/>
<line x1="616.2" y1="346.2" x2="623.8" y2="346.1"/>
<line x1="612.2" y1="335.3" x2="612.3" y2="342.9"/>
<line x1="628.1" y1="369.2" x2="627.3" y2="360.0"/>
<line x1="608.7" y1="333.3" x2="608.6" y2="325.7"/>
<line x1="629.0" y1="357.9" x2="629.1" y2="365.6"/>
<line x1="616.2" y1="345.4" x2="623.8" y2="345.4"/>
<line x1="613.2" y1="335.1" x2="620.8" y2="335.1"/>
<line x1="588.1" y1="338.9" x2="588.1" y2="346.5"/>
<line x1="632.1" y1="353.5" x2="639.7" y2="353.5"/>
<line x1="598.6" y1="368.1" x2="606.3" y2="368.1"/>
<line x1="608.6" y1="371.4" x2="608.6" y2="363.8"/>
<line x1="608.3" y1="352.8" x2="608.3" y2="360.4"/>
<line x1="608.6" y1="371.4" x2="608.6" y2="363.8"/>
<line x1="642.5" y1="373.5" x2="642.5" y2="381.1"/>
<line x1="631.0" y1="373.5" x2="631.0" y2="381.1"/>
<line x1="620.0" y1="394.1" x2="620.0" y2="401.7"/>
<line x1="616.2" y1="390.6" x2="623.9" y2="390.6"/>
<line x1="642.5" y1="373.5" x2="642.5" y2="381.1"/>
<line x1="631.0" y1="373.5" x2="631.0" y2="381.1"/>
<line x1="616.6" y1="365.0" x2="624.3" y2="365.0"/>
<line x1="598.8" y1="352.5" x2="606.4" y2="352.5"/>
<line x1="642.5" y1="373.5" x2="642.5" y2="381.1"/>
<line x1="631.0" y1="373.5" x2="631.0" y2="381.1"/>
<line x1="616.6" y1="369.2" x2="624.3" y2="369.2"/>
<line x1="597.1" y1="334.8" x2="597.1" y2="327.2"/>
<line x1="597.1" y1="371.4" x2="597.1" y2="363.8"/>
<line x1="597.1" y1="371.4" x2="597.1" y2="363.8"/>
<line x1="587.9" y1="334.8" x2="587.9" y2="327.2"/>
<line x1="587.9" y1="334.8" x2="587.9" y2="327.2"/>
<line x1="632.1" y1="353.5" x2="639.7" y2="353.5"/>
<line x1="632.1" y1="353.5" x2="639.7" y2="353.5"/>
<line x1="616.2" y1="379.2" x2="623.9" y2="379.2"/>
<line x1="632.1" y1="365.0" x2="639.7" y2="365.0"/>
<line x1="616.6" y1="342.1" x2="624.3" y2="342.1"/>
<line x1="632.1" y1="342.1" x2="639.7" y2="342.1"/>
<line x1="616.2" y1="367.7" x2="623.9" y2="367.7"/>
<line x1="632.1" y1="330.6" x2="639.7" y2="330.6"/>
<line x1="616.2" y1="356.2" x2="623.9" y2="356.2"/>
<line x1="635.2" y1="333.5" x2="635.2" y2="341.1"/>
<line x1="623.7" y1="333.5" x2="623.7" y2="341.1"/>
<line x1="632.1" y1="342.1" x2="639.7" y2="342.1"/>
<line x1="632.1" y1="365.0" x2="639.7" y2="365.0"/>
<line x1="608.6" y1="334.8" x2="608.6" y2="327.2"/>
<line x1="632.1" y1="365.0" x2="639.7" y2="365.0"/>
<line x1="623.5" y1="346.3" x2="615.9" y2="346.3"/>
<line x1="608.3" y1="352.8" x2="608.3" y2="360.4"/>
<line x1="632.1" y1="330.6" x2="639.7" y2="330.6"/>
<line x1="619.7" y1="352.8" x2="619.7" y2="360.4"/>
<line x1="619.7" y1="352.8" x2="619.7" y2="360.4"/>
<line x1="632.1" y1="319.1" x2="639.7" y2="319.1"/>
<line x1="632.1" y1="342.1" x2="639.7" y2="342.1"/>
<line x1="616.6" y1="346.3" x2="624.3" y2="346.3"/>
<line x1="616.6" y1="328.1" x2="624.3" y2="328.1"/>
<line x1="608.6" y1="334.8" x2="608.6" y2="327.2"/>
<line x1="598.6" y1="345.1" x2="606.3" y2="345.1"/>
<line x1="603.0" y1="325.7" x2="603.0" y2="333.4"/>
<line x1="598.6" y1="333.7" x2="606.3" y2="333.7"/>
<line x1="614.5" y1="325.7" x2="614.5" y2="333.4"/>
<line x1="616.6" y1="346.3" x2="624.3" y2="346.3"/>
<line x1="620.4" y1="325.7" x2="620.4" y2="333.4"/>
<line x1="598.8" y1="329.6" x2="606.4" y2="329.6"/>
<line x1="620.5" y1="332.2" x2="620.5" y2="324.5"/>
<line x1="631.9" y1="332.2" x2="631.9" y2="324.5"/>
<line x1="635.2" y1="333.5" x2="635.2" y2="341.1"/>
<line x1="616.6" y1="357.7" x2="624.3" y2="357.7"/>
<line x1="597.0" y1="334.8" x2="597.0" y2="327.2"/>
<line x1="598.8" y1="341.0" x2="606.4" y2="341.0"/>
<line x1="616.6" y1="353.5" x2="624.3" y2="353.5"/>
<line x1="616.6" y1="357.7" x2="624.3" y2="357.7"/>
<line x1="616.6" y1="369.2" x2="624.3" y2="369.2"/>
<line x1="616.6" y1="330.6" x2="624.3" y2="330.6"/>
<line x1="623.7" y1="333.5" x2="623.7" y2="341.1"/>
<line x1="616.6" y1="334.9" x2="624.3" y2="334.9"/>
<line x1="588.0" y1="371.4" x2="588.0" y2="363.8"/>
<line x1="588.0" y1="371.4" x2="588.0" y2="363.8"/>
<line x1="584.2" y1="354.2" x2="591.9" y2="354.2"/>
<line x1="584.2" y1="331.2" x2="591.9" y2="331.2"/>
<line x1="616.6" y1="323.4" x2="624.3" y2="323.4"/>
<line x1="598.6" y1="356.6" x2="606.3" y2="356.6"/>
<line x1="622.4" y1="398.6" x2="622.4" y2="391.0"/>
<line x1="624.6" y1="353.2" x2="620.5" y2="353.2"/>
<line x1="472.7" y1="413.1" x2="480.3" y2="413.1"/>
<line x1="517.9" y1="415.2" x2="517.9" y2="411.2"/>
<line x1="655.8" y1="251.4" x2="655.8" y2="243.8"/>
<line x1="657.6" y1="206.1" x2="653.6" y2="206.1"/>
<line x1="604.2" y1="382.4" x2="611.8" y2="382.4"/>
<line x1="605.2" y1="394.1" x2="612.8" y2="394.1"/>
<line x1="501.2" y1="367.7" x2="501.2" y2="360.0"/>
<line x1="467.3" y1="390.8" x2="467.3" y2="383.2"/>
<line x1="542.4" y1="347.9" x2="542.4" y2="355.5"/>
<line x1="515.7" y1="371.9" x2="515.7" y2="379.6"/>
<line x1="490.9" y1="396.0" x2="490.9" y2="403.7"/>
<line x1="542.4" y1="356.5" x2="542.4" y2="364.1"/>
<line x1="515.7" y1="380.5" x2="515.7" y2="388.2"/>
<line x1="490.9" y1="404.6" x2="490.9" y2="412.3"/>
<line x1="538.6" y1="368.9" x2="546.2" y2="368.9"/>
<line x1="511.9" y1="392.9" x2="519.6" y2="392.9"/>
<line x1="485.0" y1="417.0" x2="492.7" y2="417.0"/>
<line x1="566.4" y1="335.2" x2="566.4" y2="342.9"/>
<line x1="539.7" y1="362.0" x2="539.7" y2="369.6"/>
<line x1="512.8" y1="386.0" x2="512.8" y2="393.7"/>
<line x1="542.5" y1="335.2" x2="542.5" y2="342.9"/>
<line x1="550.1" y1="368.9" x2="557.7" y2="368.9"/>
<line x1="523.4" y1="392.9" x2="531.0" y2="392.9"/>
<line x1="496.5" y1="417.0" x2="504.1" y2="417.0"/>
<line x1="523.3" y1="309.5" x2="515.7" y2="309.5"/>
<line x1="496.6" y1="333.5" x2="489.0" y2="333.5"/>
<line x1="561.5" y1="368.9" x2="569.2" y2="368.9"/>
<line x1="534.9" y1="392.9" x2="542.5" y2="392.9"/>
<line x1="508.0" y1="417.0" x2="515.6" y2="417.0"/>
<line x1="573.0" y1="368.9" x2="580.7" y2="368.9"/>
<line x1="546.3" y1="392.9" x2="554.0" y2="392.9"/>
<line x1="519.4" y1="417.0" x2="527.1" y2="417.0"/>
<line x1="545.4" y1="310.3" x2="545.4" y2="317.9"/>
<line x1="518.6" y1="334.4" x2="518.6" y2="342.0"/>
<line x1="518.6" y1="367.1" x2="518.6" y2="374.7"/>
<line x1="571.6" y1="294.5" x2="571.6" y2="286.9"/>
<line x1="544.9" y1="318.6" x2="544.9" y2="310.9"/>
<line x1="518.0" y1="342.7" x2="518.0" y2="335.0"/>
<line x1="556.5" y1="371.8" x2="556.5" y2="379.5"/>
<line x1="541.8" y1="379.5" x2="541.8" y2="371.8"/>
<line x1="561.6" y1="327.8" x2="569.2" y2="327.8"/>
<line x1="534.9" y1="351.9" x2="542.5" y2="351.9"/>
<line x1="595.4" y1="331.3" x2="595.4" y2="323.7"/>
<line x1="541.8" y1="379.5" x2="541.8" y2="371.8"/>
<line x1="595.4" y1="339.9" x2="595.4" y2="332.3"/>
<line x1="610.0" y1="323.7" x2="610.0" y2="331.3"/>
<line x1="556.5" y1="371.8" x2="556.5" y2="379.5"/>
<line x1="610.0" y1="332.3" x2="610.0" y2="339.9"/>
<line x1="599.2" y1="336.1" x2="591.6" y2="336.1"/>
<line x1="606.7" y1="336.1" x2="601.3" y2="336.1"/>
<line x1="606.0" y1="318.9" x2="613.7" y2="318.9"/>
<line x1="552.5" y1="367.0" x2="560.1" y2="367.0"/>
<line x1="597.4" y1="318.9" x2="605.1" y2="318.9"/>
<line x1="543.9" y1="367.0" x2="551.5" y2="367.0"/>
<line x1="594.6" y1="315.5" x2="594.6" y2="323.1"/>
<line x1="541.1" y1="363.6" x2="541.1" y2="371.3"/>
<line x1="594.6" y1="332.9" x2="594.6" y2="340.5"/>
<line x1="610.3" y1="332.9" x2="610.3" y2="340.5"/>
<line x1="610.8" y1="315.5" x2="610.8" y2="323.1"/>
<line x1="557.2" y1="363.6" x2="557.2" y2="371.3"/>
<line x1="584.5" y1="368.9" x2="592.1" y2="368.9"/>
<line x1="557.8" y1="392.9" x2="565.4" y2="392.9"/>
<line x1="530.9" y1="417.0" x2="538.6" y2="417.0"/>
<line x1="596.0" y1="368.9" x2="603.6" y2="368.9"/>
<line x1="569.3" y1="392.9" x2="576.9" y2="392.9"/>
<line x1="542.4" y1="417.0" x2="550.0" y2="417.0"/>
<line x1="607.4" y1="368.9" x2="615.1" y2="368.9"/>
<line x1="580.7" y1="392.9" x2="588.4" y2="392.9"/>
<line x1="553.9" y1="417.0" x2="561.5" y2="417.0"/>
<line x1="550.1" y1="327.8" x2="557.7" y2="327.8"/>
<line x1="523.4" y1="351.9" x2="531.0" y2="351.9"/>
<line x1="618.9" y1="368.9" x2="626.5" y2="368.9"/>
<line x1="592.2" y1="392.9" x2="599.9" y2="392.9"/>
<line x1="623.2" y1="380.1" x2="623.2" y2="387.8"/>
<line x1="623.2" y1="380.1" x2="623.2" y2="387.8"/>
<line x1="485.8" y1="418.4" x2="485.8" y2="408.4"/>
<line x1="636.3" y1="248.0" x2="646.1" y2="248.0"/>
<line x1="565.3" y1="417.0" x2="573.0" y2="417.0"/>
<line x1="661.0" y1="236.7" x2="650.9" y2="236.7"/>
<line x1="469.4" y1="425.1" x2="478.4" y2="425.1"/>
<line x1="491.7" y1="413.3" x2="482.8" y2="413.3"/>
<line x1="487.3" y1="429.5" x2="487.3" y2="420.7"/>
<line x1="473.9" y1="408.8" x2="473.9" y2="417.6"/>
<line x1="469.5" y1="425.1" x2="478.5" y2="425.1"/>
<line x1="491.7" y1="413.3" x2="482.9" y2="413.3"/>
<line x1="487.3" y1="429.5" x2="487.3" y2="420.6"/>
<line x1="473.9" y1="408.8" x2="473.9" y2="417.6"/>
<line x1="652.1" y1="250.3" x2="659.8" y2="250.3"/>
<line x1="671.3" y1="237.3" x2="663.7" y2="237.3"/>
<line x1="667.5" y1="254.7" x2="667.5" y2="246.0"/>
<line x1="655.9" y1="232.5" x2="655.9" y2="241.4"/>
<line x1="652.1" y1="250.3" x2="659.8" y2="250.3"/>
<line x1="671.4" y1="237.3" x2="663.7" y2="237.3"/>
<line x1="667.5" y1="254.7" x2="667.5" y2="246.0"/>
<line x1="655.9" y1="232.4" x2="655.9" y2="241.4"/>
<line x1="603.6" y1="395.1" x2="613.4" y2="395.1"/>
<line x1="476.4" y1="393.5" x2="476.4" y2="403.5"/>
<line x1="628.2" y1="382.0" x2="618.2" y2="382.0"/>
<line x1="635.0" y1="399.2" x2="635.0" y2="391.6"/>
<line x1="631.7" y1="393.6" x2="639.3" y2="393.6"/>
<line x1="651.0" y1="384.1" x2="643.3" y2="384.1"/>
<line x1="634.2" y1="372.7" x2="634.2" y2="365.1"/>
<line x1="607.5" y1="398.6" x2="607.5" y2="391.0"/>
<line x1="580.6" y1="420.9" x2="580.6" y2="413.2"/>
<line x1="608.5" y1="379.4" x2="608.5" y2="387.1"/>
<line x1="637.0" y1="351.9" x2="644.6" y2="351.9"/>
<line x1="610.3" y1="375.9" x2="617.9" y2="375.9"/>
<line x1="583.4" y1="400.0" x2="591.0" y2="400.0"/>
<line x1="652.3" y1="355.7" x2="652.3" y2="348.1"/>
<line x1="625.6" y1="379.8" x2="625.6" y2="372.1"/>
<line x1="598.7" y1="403.9" x2="598.7" y2="396.2"/>
<line x1="631.3" y1="359.9" x2="637.1" y2="355.0"/>
<line x1="604.6" y1="383.9" x2="610.4" y2="379.0"/>
<line x1="577.7" y1="408.0" x2="583.6" y2="403.1"/>
<line x1="637.3" y1="348.6" x2="629.6" y2="348.6"/>
<line x1="610.6" y1="372.7" x2="602.9" y2="372.7"/>
<line x1="583.7" y1="396.8" x2="576.0" y2="396.8"/>
<line x1="580.6" y1="393.9" x2="580.6" y2="401.6"/>
<line x1="538.6" y1="327.8" x2="546.3" y2="327.8"/>
<line x1="511.9" y1="351.9" x2="519.6" y2="351.9"/>
<line x1="610.8" y1="276.4" x2="610.8" y2="284.0"/>
<line x1="584.1" y1="300.4" x2="584.1" y2="308.1"/>
<line x1="557.2" y1="324.5" x2="557.2" y2="332.1"/>
<line x1="584.1" y1="353.7" x2="584.1" y2="361.4"/>
<line x1="584.1" y1="365.2" x2="584.1" y2="372.8"/>
<line x1="595.4" y1="278.0" x2="595.4" y2="270.4"/>
<line x1="568.7" y1="302.1" x2="568.7" y2="294.4"/>
<line x1="541.8" y1="326.2" x2="541.8" y2="318.5"/>
<line x1="568.7" y1="365.4" x2="568.7" y2="357.7"/>
<line x1="599.3" y1="286.8" x2="591.7" y2="286.8"/>
<line x1="572.6" y1="310.8" x2="565.0" y2="310.8"/>
<line x1="545.8" y1="334.9" x2="538.1" y2="334.9"/>
<line x1="572.6" y1="374.1" x2="565.0" y2="374.1"/>
<line x1="607.9" y1="286.8" x2="600.3" y2="286.8"/>
<line x1="581.2" y1="310.8" x2="573.6" y2="310.8"/>
<line x1="554.4" y1="334.9" x2="546.7" y2="334.9"/>
<line x1="581.2" y1="374.1" x2="573.6" y2="374.1"/>
<line x1="610.8" y1="290.2" x2="610.8" y2="282.5"/>
<line x1="584.1" y1="314.2" x2="584.1" y2="306.6"/>
<line x1="557.2" y1="338.3" x2="557.2" y2="330.7"/>
<line x1="584.1" y1="377.5" x2="584.1" y2="369.9"/>
<line x1="594.6" y1="282.5" x2="594.6" y2="290.2"/>
<line x1="567.9" y1="306.6" x2="567.9" y2="314.2"/>
<line x1="541.0" y1="330.7" x2="541.0" y2="338.3"/>
<line x1="567.9" y1="369.9" x2="567.9" y2="377.5"/>
<line x1="595.4" y1="278.0" x2="595.4" y2="270.4"/>
<line x1="568.7" y1="302.1" x2="568.7" y2="294.4"/>
<line x1="541.8" y1="326.2" x2="541.8" y2="318.5"/>
<line x1="568.7" y1="365.4" x2="568.7" y2="357.7"/>
<line x1="527.1" y1="327.8" x2="534.8" y2="327.8"/>
<line x1="500.4" y1="351.9" x2="508.1" y2="351.9"/>
<line x1="610.4" y1="284.3" x2="610.4" y2="276.6"/>
<line x1="583.7" y1="308.3" x2="583.7" y2="300.7"/>
<line x1="556.8" y1="332.4" x2="556.8" y2="324.8"/>
<line x1="610.4" y1="266.5" x2="610.4" y2="258.8"/>
<line x1="606.2" y1="271.0" x2="606.2" y2="278.6"/>
<line x1="579.5" y1="295.1" x2="579.5" y2="302.7"/>
<line x1="552.6" y1="319.1" x2="552.6" y2="326.8"/>
<line x1="601.6" y1="279.8" x2="609.2" y2="279.8"/>
<line x1="574.9" y1="303.8" x2="582.5" y2="303.8"/>
<line x1="548.0" y1="327.9" x2="555.7" y2="327.9"/>
<line x1="591.5" y1="262.7" x2="599.2" y2="262.7"/>
<line x1="564.8" y1="286.8" x2="572.5" y2="286.8"/>
<line x1="538.0" y1="310.9" x2="545.6" y2="310.9"/>
<line x1="584.1" y1="296.7" x2="584.1" y2="289.1"/>
<line x1="557.2" y1="320.8" x2="557.2" y2="313.1"/>
<line x1="584.1" y1="360.0" x2="584.1" y2="352.3"/>
<line x1="584.1" y1="344.3" x2="584.1" y2="336.7"/>
<line x1="609.2" y1="263.3" x2="601.6" y2="263.3"/>
<line x1="582.5" y1="293.5" x2="574.9" y2="293.5"/>
<line x1="555.7" y1="317.6" x2="548.0" y2="317.6"/>
<line x1="600.1" y1="262.7" x2="607.8" y2="262.7"/>
<line x1="573.4" y1="286.8" x2="581.1" y2="286.8"/>
<line x1="546.6" y1="310.9" x2="554.2" y2="310.9"/>
<line x1="584.1" y1="282.8" x2="584.1" y2="290.5"/>
<line x1="557.2" y1="306.9" x2="557.2" y2="314.6"/>
<line x1="584.1" y1="345.6" x2="584.1" y2="353.3"/>
<line x1="565.3" y1="349.5" x2="572.9" y2="349.5"/>
<line x1="584.1" y1="334.2" x2="584.1" y2="341.9"/>
<line x1="584.1" y1="322.8" x2="584.1" y2="332.2"/>
<line x1="515.7" y1="327.8" x2="523.3" y2="327.8"/>
<line x1="489.0" y1="351.9" x2="496.6" y2="351.9"/>
<line x1="583.3" y1="283.3" x2="583.3" y2="291.0"/>
<line x1="556.4" y1="307.4" x2="556.4" y2="315.1"/>
<line x1="606.2" y1="276.7" x2="606.2" y2="284.4"/>
<line x1="579.5" y1="300.8" x2="579.5" y2="308.4"/>
<line x1="552.6" y1="324.9" x2="552.6" y2="332.5"/>
<line x1="606.2" y1="265.4" x2="606.2" y2="273.1"/>
<line x1="605.8" y1="283.9" x2="605.8" y2="276.2"/>
<line x1="579.1" y1="307.9" x2="579.1" y2="300.3"/>
<line x1="552.2" y1="332.0" x2="552.2" y2="324.4"/>
<line x1="595.8" y1="266.9" x2="595.8" y2="259.3"/>
<line x1="569.2" y1="291.0" x2="569.2" y2="283.3"/>
<line x1="542.3" y1="315.1" x2="542.3" y2="307.4"/>
<line x1="568.6" y1="354.3" x2="568.6" y2="346.6"/>
<line x1="588.3" y1="303.8" x2="595.9" y2="303.8"/>
<line x1="561.6" y1="327.8" x2="569.2" y2="327.8"/>
<line x1="534.7" y1="351.9" x2="542.4" y2="351.9"/>
<line x1="576.8" y1="303.8" x2="584.5" y2="303.8"/>
<line x1="550.1" y1="327.8" x2="557.8" y2="327.8"/>
<line x1="523.2" y1="351.9" x2="530.9" y2="351.9"/>
<line x1="565.3" y1="303.8" x2="573.0" y2="303.8"/>
<line x1="538.6" y1="327.8" x2="546.3" y2="327.8"/>
<line x1="511.8" y1="351.9" x2="519.4" y2="351.9"/>
<line x1="553.9" y1="303.8" x2="561.5" y2="303.8"/>
<line x1="527.2" y1="327.8" x2="534.8" y2="327.8"/>
<line x1="500.3" y1="351.9" x2="507.9" y2="351.9"/>
<line x1="542.4" y1="303.8" x2="550.0" y2="303.8"/>
<line x1="515.7" y1="327.8" x2="523.3" y2="327.8"/>
<line x1="488.8" y1="351.9" x2="496.5" y2="351.9"/>
<line x1="595.9" y1="285.4" x2="588.3" y2="285.4"/>
<line x1="569.2" y1="309.4" x2="561.6" y2="309.4"/>
<line x1="542.4" y1="333.5" x2="534.7" y2="333.5"/>
<line x1="584.5" y1="285.4" x2="576.8" y2="285.4"/>
<line x1="557.8" y1="309.4" x2="550.1" y2="309.4"/>
<line x1="530.9" y1="333.5" x2="523.2" y2="333.5"/>
<line x1="573.0" y1="285.4" x2="565.3" y2="285.4"/>
<line x1="546.3" y1="309.4" x2="538.6" y2="309.4"/>
<line x1="519.4" y1="333.5" x2="511.8" y2="333.5"/>
<line x1="561.5" y1="285.4" x2="553.9" y2="285.4"/>
<line x1="534.8" y1="309.4" x2="527.2" y2="309.4"/>
<line x1="507.9" y1="333.5" x2="500.3" y2="333.5"/>
<line x1="550.0" y1="285.4" x2="542.4" y2="285.4"/>
<line x1="523.3" y1="309.4" x2="515.7" y2="309.4"/>
<line x1="496.5" y1="333.5" x2="488.8" y2="333.5"/>
<line x1="566.4" y1="324.5" x2="566.4" y2="332.1"/>
<line x1="530.9" y1="325.3" x2="530.9" y2="333.0"/>
<line x1="539.7" y1="348.5" x2="539.7" y2="356.2"/>
<line x1="519.1" y1="372.6" x2="519.1" y2="380.2"/>
<line x1="478.2" y1="372.8" x2="478.2" y2="380.4"/>
<line x1="566.4" y1="305.3" x2="566.4" y2="313.0"/>
<line x1="572.7" y1="297.5" x2="572.7" y2="305.1"/>
<line x1="546.0" y1="322.4" x2="546.0" y2="330.0"/>
<line x1="519.1" y1="346.5" x2="519.1" y2="354.1"/>
<line x1="572.7" y1="305.6" x2="572.7" y2="312.6"/>
<line x1="570.8" y1="309.1" x2="563.2" y2="309.1"/>
<line x1="519.1" y1="357.9" x2="519.1" y2="365.5"/>
<line x1="519.1" y1="370.7" x2="519.1" y2="379.7"/>
<line x1="533.8" y1="333.5" x2="543.6" y2="333.5"/>
<line x1="546.0" y1="330.3" x2="546.0" y2="336.8"/>
<line x1="569.3" y1="328.6" x2="561.7" y2="328.6"/>
<line x1="542.6" y1="352.6" x2="535.0" y2="352.6"/>
<line x1="515.8" y1="376.7" x2="508.1" y2="376.7"/>
<line x1="521.8" y1="376.7" x2="513.9" y2="376.7"/>
<line x1="557.9" y1="328.6" x2="550.2" y2="328.6"/>
<line x1="531.2" y1="352.6" x2="523.5" y2="352.6"/>
<line x1="504.3" y1="376.7" x2="496.6" y2="376.7"/>
<line x1="546.4" y1="328.6" x2="538.7" y2="328.6"/>
<line x1="519.7" y1="352.6" x2="512.0" y2="352.6"/>
<line x1="492.8" y1="376.7" x2="485.2" y2="376.7"/>
<line x1="531.1" y1="332.4" x2="531.1" y2="324.8"/>
<line x1="504.4" y1="356.5" x2="504.4" y2="348.8"/>
<line x1="477.5" y1="380.6" x2="477.5" y2="372.9"/>
<line x1="573.0" y1="345.7" x2="573.0" y2="353.3"/>
<line x1="546.3" y1="369.7" x2="546.3" y2="377.4"/>
<line x1="519.4" y1="393.8" x2="519.4" y2="401.5"/>
<line x1="592.8" y1="345.7" x2="592.8" y2="353.3"/>
<line x1="539.2" y1="393.8" x2="539.2" y2="401.5"/>
<line x1="611.2" y1="345.7" x2="611.2" y2="353.3"/>
<line x1="557.7" y1="393.8" x2="557.7" y2="401.5"/>
<line x1="553.0" y1="345.7" x2="553.0" y2="353.3"/>
<line x1="526.4" y1="369.7" x2="526.4" y2="377.4"/>
<line x1="499.5" y1="393.8" x2="499.5" y2="401.5"/>
<line x1="637.3" y1="329.3" x2="629.6" y2="329.3"/>
<line x1="610.6" y1="353.4" x2="602.9" y2="353.4"/>
<line x1="583.7" y1="377.5" x2="576.0" y2="377.5"/>
<line x1="637.3" y1="309.5" x2="629.6" y2="309.5"/>
<line x1="610.6" y1="333.6" x2="602.9" y2="333.6"/>
<line x1="583.7" y1="357.7" x2="576.0" y2="357.7"/>
<line x1="637.3" y1="292.2" x2="629.6" y2="292.2"/>
<line x1="610.6" y1="316.3" x2="602.9" y2="316.3"/>
<line x1="583.7" y1="340.4" x2="576.0" y2="340.4"/>
<line x1="637.3" y1="272.5" x2="629.6" y2="272.5"/>
<line x1="610.6" y1="296.5" x2="602.9" y2="296.5"/>
<line x1="583.7" y1="320.6" x2="576.0" y2="320.6"/>
<line x1="615.9" y1="308.4" x2="608.3" y2="308.4"/>
<line x1="562.4" y1="356.5" x2="554.7" y2="356.5"/>
<line x1="615.9" y1="297.7" x2="608.3" y2="297.7"/>
<line x1="587.9" y1="327.5" x2="580.3" y2="327.5"/>
<line x1="562.4" y1="345.8" x2="554.7" y2="345.8"/>
<line x1="577.4" y1="327.5" x2="569.7" y2="327.5"/>
<line x1="507.5" y1="243.0" x2="507.5" y2="250.7"/>
<line x1="480.9" y1="267.1" x2="480.9" y2="274.7"/>
<line x1="454.0" y1="291.2" x2="454.0" y2="298.8"/>
<line x1="507.5" y1="262.1" x2="507.5" y2="269.7"/>
<line x1="480.9" y1="286.1" x2="480.9" y2="293.8"/>
<line x1="454.0" y1="310.2" x2="454.0" y2="317.9"/>
<line x1="507.5" y1="281.7" x2="507.5" y2="289.4"/>
<line x1="480.9" y1="305.8" x2="480.9" y2="313.4"/>
<line x1="454.0" y1="329.9" x2="454.0" y2="337.5"/>
<line x1="531.1" y1="320.9" x2="531.1" y2="313.3"/>
<line x1="504.4" y1="345.0" x2="504.4" y2="337.3"/>
<line x1="477.5" y1="369.1" x2="477.5" y2="361.4"/>
<line x1="592.1" y1="310.1" x2="592.1" y2="297.7"/>
<line x1="512.8" y1="301.9" x2="512.8" y2="309.6"/>
<line x1="480.9" y1="325.6" x2="480.9" y2="333.2"/>
<line x1="454.0" y1="349.7" x2="454.0" y2="357.3"/>
<line x1="531.4" y1="241.3" x2="531.4" y2="248.9"/>
<line x1="504.7" y1="265.3" x2="504.7" y2="273.0"/>
<line x1="477.8" y1="289.4" x2="477.8" y2="297.0"/>
<line x1="550.4" y1="241.3" x2="550.4" y2="248.9"/>
<line x1="523.7" y1="265.3" x2="523.7" y2="273.0"/>
<line x1="496.8" y1="289.4" x2="496.8" y2="297.0"/>
<line x1="531.4" y1="222.0" x2="531.4" y2="229.6"/>
<line x1="504.7" y1="246.0" x2="504.7" y2="253.7"/>
<line x1="477.8" y1="270.1" x2="477.8" y2="277.8"/>
<line x1="550.4" y1="222.0" x2="550.4" y2="229.6"/>
<line x1="523.7" y1="246.0" x2="523.7" y2="253.7"/>
<line x1="496.8" y1="270.1" x2="496.8" y2="277.8"/>
<line x1="531.6" y1="301.8" x2="531.6" y2="309.5"/>
<line x1="504.9" y1="325.9" x2="504.9" y2="333.5"/>
<line x1="478.0" y1="350.0" x2="478.0" y2="357.6"/>
<line x1="533.9" y1="300.5" x2="533.9" y2="308.2"/>
<line x1="507.2" y1="324.6" x2="507.2" y2="332.2"/>
<line x1="480.4" y1="348.7" x2="480.4" y2="356.3"/>
<line x1="531.6" y1="279.6" x2="531.6" y2="287.2"/>
<line x1="478.0" y1="327.7" x2="478.0" y2="335.4"/>
<line x1="533.9" y1="280.9" x2="533.9" y2="288.5"/>
<line x1="507.2" y1="304.9" x2="507.2" y2="312.6"/>
<line x1="480.4" y1="329.0" x2="480.4" y2="336.7"/>
<line x1="572.7" y1="286.0" x2="572.7" y2="293.7"/>
<line x1="546.0" y1="310.1" x2="546.0" y2="317.7"/>
<line x1="519.1" y1="334.2" x2="519.1" y2="341.8"/>
<line x1="568.9" y1="284.1" x2="576.5" y2="284.1"/>
<line x1="542.2" y1="308.2" x2="549.8" y2="308.2"/>
<line x1="515.3" y1="332.2" x2="523.0" y2="332.2"/>
<line x1="498.0" y1="349.2" x2="498.0" y2="356.8"/>
<line x1="471.1" y1="373.3" x2="471.1" y2="380.9"/>
<line x1="557.4" y1="284.1" x2="565.1" y2="284.1"/>
<line x1="530.7" y1="308.2" x2="538.4" y2="308.2"/>
<line x1="503.8" y1="332.2" x2="511.5" y2="332.2"/>
<line x1="545.9" y1="284.1" x2="553.6" y2="284.1"/>
<line x1="519.2" y1="308.2" x2="526.9" y2="308.2"/>
<line x1="492.4" y1="332.2" x2="500.0" y2="332.2"/>
<line x1="534.5" y1="284.1" x2="542.1" y2="284.1"/>
<line x1="507.8" y1="308.2" x2="515.4" y2="308.2"/>
<line x1="480.9" y1="332.2" x2="488.5" y2="332.2"/>
<line x1="494.1" y1="330.0" x2="501.8" y2="330.0"/>
<line x1="467.2" y1="354.1" x2="474.9" y2="354.1"/>
<line x1="652.3" y1="344.2" x2="652.3" y2="336.6"/>
<line x1="625.6" y1="368.3" x2="625.6" y2="360.7"/>
<line x1="598.7" y1="392.4" x2="598.7" y2="384.7"/>
<line x1="602.5" y1="373.0" x2="594.8" y2="373.0"/>
<line x1="598.7" y1="380.3" x2="598.7" y2="374.0"/>
<line x1="652.3" y1="332.8" x2="652.3" y2="325.1"/>
<line x1="625.6" y1="356.8" x2="625.6" y2="349.2"/>
<line x1="652.3" y1="321.3" x2="652.3" y2="313.7"/>
<line x1="625.6" y1="345.4" x2="625.6" y2="337.7"/>
<line x1="498.0" y1="326.2" x2="498.0" y2="333.9"/>
<line x1="471.1" y1="350.3" x2="471.1" y2="358.0"/>
<line x1="501.8" y1="335.8" x2="494.1" y2="335.8"/>
<line x1="474.9" y1="359.9" x2="467.2" y2="359.9"/>
<line x1="488.6" y1="335.3" x2="496.3" y2="335.3"/>
<line x1="461.7" y1="358.9" x2="469.3" y2="358.9"/>
<line x1="492.6" y1="337.8" x2="492.6" y2="345.5"/>
<line x1="465.7" y1="361.9" x2="465.7" y2="369.6"/>
<line x1="495.5" y1="347.3" x2="500.4" y2="347.3"/>
<line x1="468.3" y1="371.3" x2="473.9" y2="371.3"/>
<line x1="494.4" y1="332.0" x2="488.7" y2="332.0"/>
<line x1="497.9" y1="333.6" x2="497.9" y2="330.3"/>
<line x1="467.4" y1="355.5" x2="461.7" y2="355.5"/>
<line x1="470.9" y1="357.1" x2="470.9" y2="353.9"/>
<line x1="656.1" y1="306.0" x2="648.4" y2="306.0"/>
<line x1="629.4" y1="330.1" x2="621.7" y2="330.1"/>
<line x1="640.8" y1="309.8" x2="640.8" y2="302.2"/>
<line x1="614.1" y1="333.9" x2="614.1" y2="326.2"/>
<line x1="615.1" y1="314.7" x2="615.1" y2="322.3"/>
<line x1="578.5" y1="305.7" x2="578.5" y2="298.0"/>
<line x1="493.4" y1="380.7" x2="493.4" y2="373.0"/>
<line x1="466.5" y1="404.8" x2="466.5" y2="397.2"/>
<line x1="491.6" y1="354.1" x2="491.6" y2="346.4"/>
<line x1="581.6" y1="401.7" x2="581.6" y2="409.3"/>
<line x1="615.1" y1="257.0" x2="615.1" y2="264.6"/>
<line x1="464.7" y1="378.1" x2="464.7" y2="370.5"/>
<line x1="518.4" y1="374.9" x2="510.7" y2="374.9"/>
<line x1="588.2" y1="281.0" x2="588.2" y2="288.7"/>
<line x1="587.2" y1="358.1" x2="587.2" y2="350.4"/>
<line x1="551.6" y1="329.8" x2="551.6" y2="322.1"/>
<line x1="455.9" y1="263.4" x2="463.6" y2="263.4"/>
<line x1="511.6" y1="322.0" x2="511.6" y2="314.3"/>
<line x1="512.6" y1="302.9" x2="512.6" y2="310.5"/>
<line x1="641.3" y1="290.7" x2="641.3" y2="298.4"/>
<line x1="635.2" y1="353.6" x2="635.2" y2="361.3"/>
<line x1="511.6" y1="342.4" x2="511.6" y2="334.8"/>
<line x1="512.6" y1="323.3" x2="512.6" y2="331.0"/>
<line x1="605.2" y1="281.6" x2="605.2" y2="274.0"/>
<line x1="637.0" y1="294.5" x2="644.6" y2="294.5"/>
<line x1="610.3" y1="318.6" x2="617.9" y2="318.6"/>
<line x1="645.6" y1="372.4" x2="645.6" y2="364.7"/>
<line x1="630.3" y1="368.5" x2="638.0" y2="368.5"/>
<line x1="541.2" y1="365.1" x2="541.2" y2="357.5"/>
<line x1="497.4" y1="338.6" x2="505.0" y2="338.6"/>
<line x1="501.2" y1="323.7" x2="501.2" y2="331.4"/>
<line x1="516.3" y1="327.5" x2="508.6" y2="327.5"/>
<line x1="501.2" y1="303.3" x2="501.2" y2="310.9"/>
<line x1="516.5" y1="307.1" x2="508.8" y2="307.1"/>
<line x1="497.2" y1="318.2" x2="504.9" y2="318.2"/>
<line x1="595.6" y1="262.9" x2="595.6" y2="270.5"/>
<line x1="609.7" y1="266.7" x2="602.6" y2="266.7"/>
<line x1="592.3" y1="277.8" x2="598.8" y2="277.8"/>
<line x1="629.4" y1="318.4" x2="621.7" y2="318.4"/>
<line x1="625.5" y1="333.3" x2="625.5" y2="325.7"/>
<line x1="610.2" y1="329.5" x2="617.9" y2="329.5"/>
<line x1="568.8" y1="286.9" x2="568.8" y2="294.6"/>
<line x1="582.9" y1="290.8" x2="575.9" y2="290.8"/>
<line x1="565.5" y1="301.8" x2="572.0" y2="301.8"/>
<line x1="583.4" y1="330.8" x2="591.0" y2="330.8"/>
<line x1="479.2" y1="376.9" x2="486.8" y2="376.9"/>
<line x1="483.0" y1="361.9" x2="483.0" y2="369.6"/>
<line x1="498.3" y1="365.8" x2="490.6" y2="365.8"/>
<line x1="452.2" y1="401.0" x2="459.9" y2="401.0"/>
<line x1="456.1" y1="386.1" x2="456.1" y2="393.7"/>
<line x1="471.4" y1="389.9" x2="463.7" y2="389.9"/>
<line x1="477.4" y1="350.2" x2="485.0" y2="350.2"/>
<line x1="481.2" y1="335.3" x2="481.2" y2="343.0"/>
<line x1="496.5" y1="339.2" x2="488.8" y2="339.2"/>
<line x1="596.5" y1="405.5" x2="588.9" y2="405.5"/>
<line x1="592.0" y1="420.4" x2="592.0" y2="412.8"/>
<line x1="576.7" y1="416.6" x2="584.4" y2="416.6"/>
<line x1="629.4" y1="260.7" x2="621.7" y2="260.7"/>
<line x1="625.6" y1="275.6" x2="625.6" y2="267.9"/>
<line x1="610.3" y1="271.7" x2="617.9" y2="271.7"/>
<line x1="450.5" y1="374.3" x2="458.1" y2="374.3"/>
<line x1="454.3" y1="359.4" x2="454.3" y2="367.1"/>
<line x1="469.5" y1="363.2" x2="461.9" y2="363.2"/>
<line x1="514.5" y1="389.2" x2="514.5" y2="381.5"/>
<line x1="499.6" y1="385.4" x2="507.3" y2="385.4"/>
<line x1="503.4" y1="370.1" x2="503.4" y2="377.7"/>
<line x1="602.4" y1="284.7" x2="594.9" y2="284.7"/>
<line x1="598.6" y1="299.6" x2="598.6" y2="292.0"/>
<line x1="583.4" y1="295.8" x2="591.0" y2="295.8"/>
<line x1="541.9" y1="310.6" x2="541.9" y2="318.2"/>
<line x1="556.0" y1="314.4" x2="548.9" y2="314.4"/>
<line x1="538.5" y1="325.5" x2="545.1" y2="325.5"/>
<line x1="655.7" y1="294.5" x2="648.1" y2="294.5"/>
<line x1="651.9" y1="309.5" x2="651.9" y2="301.8"/>
<line x1="636.6" y1="305.6" x2="644.2" y2="305.6"/>
<line x1="649.4" y1="357.4" x2="641.8" y2="357.4"/>
<line x1="641.4" y1="301.4" x2="641.4" y2="309.1"/>
<line x1="614.7" y1="325.5" x2="614.7" y2="333.1"/>
<line x1="586.6" y1="349.6" x2="586.6" y2="357.2"/>
<line x1="641.4" y1="298.4" x2="641.4" y2="290.7"/>
<line x1="614.7" y1="322.4" x2="614.7" y2="314.8"/>
<line x1="586.6" y1="346.5" x2="586.6" y2="338.9"/>
<line x1="652.1" y1="302.2" x2="652.1" y2="309.8"/>
<line x1="625.4" y1="326.2" x2="625.4" y2="333.9"/>
<line x1="652.1" y1="290.7" x2="652.1" y2="298.4"/>
<line x1="625.4" y1="314.8" x2="625.4" y2="322.4"/>
<line x1="594.4" y1="281.6" x2="594.4" y2="274.0"/>
<line x1="652.3" y1="298.0" x2="652.3" y2="290.3"/>
<line x1="625.6" y1="322.0" x2="625.6" y2="314.4"/>
<line x1="587.2" y1="346.1" x2="587.2" y2="338.5"/>
<line x1="587.2" y1="369.3" x2="587.2" y2="361.6"/>
<line x1="591.0" y1="373.0" x2="583.4" y2="373.0"/>
<line x1="652.3" y1="286.5" x2="652.3" y2="278.9"/>
<line x1="625.6" y1="310.6" x2="625.6" y2="302.9"/>
<line x1="598.7" y1="334.7" x2="598.7" y2="327.0"/>
<line x1="652.3" y1="275.0" x2="652.3" y2="267.4"/>
<line x1="625.6" y1="299.1" x2="625.6" y2="291.4"/>
<line x1="598.7" y1="323.2" x2="598.7" y2="315.5"/>
<line x1="656.1" y1="259.7" x2="648.4" y2="259.7"/>
<line x1="629.4" y1="283.8" x2="621.7" y2="283.8"/>
<line x1="602.5" y1="307.9" x2="594.9" y2="307.9"/>
<line x1="492.6" y1="326.4" x2="492.6" y2="334.0"/>
<line x1="465.7" y1="350.5" x2="465.7" y2="358.1"/>
<line x1="492.6" y1="326.7" x2="492.6" y2="334.3"/>
<line x1="535.6" y1="265.4" x2="528.0" y2="265.4"/>
<line x1="508.9" y1="289.4" x2="501.3" y2="289.4"/>
<line x1="482.0" y1="313.5" x2="474.4" y2="313.5"/>
<line x1="531.6" y1="268.9" x2="531.6" y2="261.2"/>
<line x1="504.9" y1="292.9" x2="504.9" y2="285.3"/>
<line x1="478.0" y1="317.0" x2="478.0" y2="309.4"/>
<line x1="547.1" y1="265.4" x2="539.4" y2="265.4"/>
<line x1="520.4" y1="289.4" x2="512.7" y2="289.4"/>
<line x1="493.5" y1="313.5" x2="485.9" y2="313.5"/>
<line x1="558.6" y1="265.4" x2="550.9" y2="265.4"/>
<line x1="531.9" y1="289.4" x2="524.2" y2="289.4"/>
<line x1="505.0" y1="313.5" x2="497.3" y2="313.5"/>
<line x1="570.0" y1="265.4" x2="562.4" y2="265.4"/>
<line x1="543.3" y1="289.4" x2="535.7" y2="289.4"/>
<line x1="516.5" y1="313.5" x2="508.8" y2="313.5"/>
<line x1="572.1" y1="261.0" x2="572.1" y2="268.6"/>
<line x1="545.4" y1="285.0" x2="545.4" y2="292.7"/>
<line x1="518.6" y1="309.1" x2="518.6" y2="316.8"/>
<line x1="572.1" y1="288.5" x2="572.1" y2="280.9"/>
<line x1="545.4" y1="312.6" x2="545.4" y2="304.9"/>
<line x1="518.6" y1="336.7" x2="518.6" y2="329.0"/>
<line x1="528.0" y1="264.2" x2="535.6" y2="264.2"/>
<line x1="501.3" y1="288.3" x2="508.9" y2="288.3"/>
<line x1="474.4" y1="312.4" x2="482.0" y2="312.4"/>
<line x1="539.4" y1="264.2" x2="547.1" y2="264.2"/>
<line x1="512.7" y1="288.3" x2="520.4" y2="288.3"/>
<line x1="485.9" y1="312.4" x2="493.5" y2="312.4"/>
<line x1="550.9" y1="264.2" x2="558.6" y2="264.2"/>
<line x1="524.2" y1="288.3" x2="531.9" y2="288.3"/>
<line x1="497.3" y1="312.4" x2="505.0" y2="312.4"/>
<line x1="562.4" y1="264.2" x2="570.0" y2="264.2"/>
<line x1="535.7" y1="288.3" x2="543.3" y2="288.3"/>
<line x1="508.8" y1="312.4" x2="516.5" y2="312.4"/>
<line x1="509.3" y1="306.0" x2="517.0" y2="306.0"/>
<line x1="482.7" y1="330.0" x2="490.3" y2="330.0"/>
<line x1="455.8" y1="354.1" x2="463.4" y2="354.1"/>
<line x1="500.7" y1="306.0" x2="508.4" y2="306.0"/>
<line x1="474.1" y1="330.0" x2="481.7" y2="330.0"/>
<line x1="447.2" y1="354.1" x2="454.8" y2="354.1"/>
<line x1="492.1" y1="306.0" x2="499.8" y2="306.0"/>
<line x1="465.5" y1="330.0" x2="473.1" y2="330.0"/>
<line x1="438.6" y1="354.1" x2="446.2" y2="354.1"/>
<line x1="487.4" y1="302.2" x2="487.4" y2="309.8"/>
<line x1="460.7" y1="326.2" x2="460.7" y2="333.9"/>
<line x1="433.8" y1="350.3" x2="433.8" y2="358.0"/>
<line x1="487.4" y1="290.7" x2="487.4" y2="298.3"/>
<line x1="460.7" y1="314.7" x2="460.7" y2="322.4"/>
<line x1="433.8" y1="338.8" x2="433.8" y2="346.5"/>
<line x1="487.4" y1="279.2" x2="487.4" y2="286.9"/>
<line x1="460.7" y1="303.3" x2="460.7" y2="310.9"/>
<line x1="433.8" y1="327.4" x2="433.8" y2="335.0"/>
<line x1="569.2" y1="309.5" x2="561.6" y2="309.5"/>
<line x1="542.5" y1="333.5" x2="534.9" y2="333.5"/>
<line x1="487.4" y1="267.8" x2="487.4" y2="275.4"/>
<line x1="460.7" y1="291.8" x2="460.7" y2="299.5"/>
<line x1="433.8" y1="315.9" x2="433.8" y2="323.5"/>
<line x1="487.4" y1="256.3" x2="487.4" y2="263.9"/>
<line x1="460.7" y1="280.3" x2="460.7" y2="288.0"/>
<line x1="433.8" y1="304.4" x2="433.8" y2="312.1"/>
<line x1="487.4" y1="244.8" x2="487.4" y2="252.5"/>
<line x1="487.4" y1="233.3" x2="487.4" y2="241.0"/>
<line x1="433.8" y1="293.0" x2="433.8" y2="300.6"/>
<line x1="433.8" y1="281.5" x2="433.8" y2="289.1"/>
<line x1="460.7" y1="268.9" x2="460.7" y2="276.5"/>
<line x1="460.7" y1="257.4" x2="460.7" y2="265.0"/>
<line x1="503.9" y1="227.6" x2="499.2" y2="233.6"/>
<line x1="477.2" y1="251.6" x2="472.5" y2="257.7"/>
<line x1="450.3" y1="275.7" x2="445.6" y2="281.7"/>
<line x1="511.0" y1="218.6" x2="506.3" y2="224.6"/>
<line x1="484.3" y1="242.6" x2="479.6" y2="248.6"/>
<line x1="457.4" y1="266.7" x2="452.7" y2="272.7"/>
<line x1="519.9" y1="203.9" x2="512.2" y2="203.9"/>
<line x1="493.2" y1="227.9" x2="485.5" y2="227.9"/>
<line x1="466.3" y1="252.0" x2="458.6" y2="252.0"/>
<line x1="531.3" y1="203.9" x2="523.7" y2="203.9"/>
<line x1="504.6" y1="227.9" x2="497.0" y2="227.9"/>
<line x1="477.8" y1="252.0" x2="470.1" y2="252.0"/>
<line x1="542.8" y1="203.9" x2="535.2" y2="203.9"/>
<line x1="516.1" y1="227.9" x2="508.5" y2="227.9"/>
<line x1="489.2" y1="252.0" x2="481.6" y2="252.0"/>
<line x1="600.2" y1="231.3" x2="600.2" y2="223.6"/>
<line x1="546.6" y1="279.4" x2="546.6" y2="271.8"/>
<line x1="554.3" y1="203.9" x2="546.6" y2="203.9"/>
<line x1="527.6" y1="227.9" x2="519.9" y2="227.9"/>
<line x1="500.7" y1="252.0" x2="493.1" y2="252.0"/>
<line x1="561.9" y1="207.7" x2="561.9" y2="200.1"/>
<line x1="535.2" y1="231.8" x2="535.2" y2="224.1"/>
<line x1="508.4" y1="255.9" x2="508.4" y2="248.2"/>
<line x1="561.9" y1="219.2" x2="561.9" y2="211.5"/>
<line x1="535.2" y1="243.2" x2="535.2" y2="235.6"/>
<line x1="508.4" y1="267.3" x2="508.4" y2="259.7"/>
<line x1="561.9" y1="257.4" x2="561.9" y2="249.8"/>
<line x1="535.2" y1="281.5" x2="535.2" y2="273.8"/>
<line x1="508.4" y1="305.6" x2="508.4" y2="297.9"/>
<line x1="561.9" y1="257.4" x2="561.9" y2="249.8"/>
<line x1="535.2" y1="281.5" x2="535.2" y2="273.8"/>
<line x1="508.4" y1="305.6" x2="508.4" y2="297.9"/>
<line x1="565.7" y1="226.8" x2="558.1" y2="226.8"/>
<line x1="539.1" y1="250.9" x2="531.4" y2="250.9"/>
<line x1="512.2" y1="275.0" x2="504.5" y2="275.0"/>
<line x1="558.1" y1="245.2" x2="565.7" y2="245.2"/>
<line x1="531.4" y1="269.2" x2="539.1" y2="269.2"/>
<line x1="504.5" y1="293.3" x2="512.2" y2="293.3"/>
<line x1="567.3" y1="241.4" x2="568.0" y2="249.0"/>
<line x1="540.6" y1="265.4" x2="541.4" y2="273.1"/>
<line x1="513.7" y1="289.5" x2="514.5" y2="297.1"/>
<line x1="567.9" y1="252.6" x2="567.9" y2="260.2"/>
<line x1="541.2" y1="276.6" x2="541.2" y2="284.3"/>
<line x1="514.4" y1="300.7" x2="514.4" y2="308.4"/>
<line x1="566.5" y1="253.4" x2="570.3" y2="260.0"/>
<line x1="539.8" y1="277.4" x2="543.6" y2="284.0"/>
<line x1="512.9" y1="301.5" x2="516.8" y2="308.1"/>
<line x1="567.9" y1="241.9" x2="567.9" y2="249.5"/>
<line x1="541.2" y1="265.9" x2="541.2" y2="273.6"/>
<line x1="514.4" y1="290.0" x2="514.4" y2="297.7"/>
<line x1="562.6" y1="241.9" x2="562.6" y2="249.5"/>
<line x1="535.9" y1="265.9" x2="535.9" y2="273.6"/>
<line x1="509.0" y1="290.0" x2="509.0" y2="297.7"/>
<line x1="518.1" y1="209.5" x2="513.3" y2="215.6"/>
<line x1="518.0" y1="216.5" x2="518.0" y2="224.2"/>
<line x1="491.3" y1="240.6" x2="491.3" y2="248.2"/>
<line x1="464.4" y1="264.7" x2="464.4" y2="272.3"/>
<line x1="521.8" y1="231.8" x2="514.1" y2="231.8"/>
<line x1="495.1" y1="255.9" x2="487.4" y2="255.9"/>
<line x1="468.2" y1="280.0" x2="460.6" y2="280.0"/>
<line x1="518.0" y1="205.0" x2="518.0" y2="212.7"/>
<line x1="491.3" y1="229.1" x2="491.3" y2="236.7"/>
<line x1="464.4" y1="253.2" x2="464.4" y2="260.8"/>
<line x1="491.3" y1="223.4" x2="491.3" y2="231.1"/>
<line x1="464.4" y1="247.5" x2="464.4" y2="255.2"/>
<line x1="510.3" y1="231.8" x2="502.7" y2="231.8"/>
<line x1="483.6" y1="255.9" x2="476.0" y2="255.9"/>
<line x1="456.7" y1="280.0" x2="449.1" y2="280.0"/>
<line x1="501.8" y1="231.8" x2="494.1" y2="231.8"/>
<line x1="448.1" y1="280.0" x2="440.5" y2="280.0"/>
<line x1="471.3" y1="252.0" x2="471.3" y2="259.7"/>
<line x1="471.2" y1="267.3" x2="471.2" y2="259.7"/>
<line x1="475.1" y1="254.9" x2="467.4" y2="254.9"/>
<line x1="517.8" y1="227.7" x2="517.8" y2="235.4"/>
<line x1="491.1" y1="251.8" x2="491.1" y2="259.4"/>
<line x1="464.3" y1="275.9" x2="464.3" y2="283.5"/>
<line x1="600.3" y1="266.9" x2="600.3" y2="259.3"/>
<line x1="573.6" y1="291.2" x2="573.6" y2="283.1"/>
<line x1="546.8" y1="315.1" x2="546.8" y2="307.4"/>
<line x1="573.6" y1="354.3" x2="573.6" y2="346.6"/>
<line x1="546.8" y1="303.6" x2="546.8" y2="296.0"/>
<line x1="573.6" y1="342.8" x2="573.6" y2="335.2"/>
<line x1="595.4" y1="251.7" x2="605.5" y2="251.7"/>
<line x1="568.5" y1="275.0" x2="578.8" y2="275.0"/>
<line x1="542.9" y1="288.3" x2="550.6" y2="288.3"/>
<line x1="570.2" y1="327.5" x2="577.1" y2="327.5"/>
<line x1="600.3" y1="236.7" x2="600.3" y2="229.1"/>
<line x1="573.6" y1="260.8" x2="573.6" y2="253.1"/>
<line x1="546.8" y1="284.9" x2="546.8" y2="277.2"/>
<line x1="573.6" y1="255.1" x2="573.6" y2="247.4"/>
<line x1="604.2" y1="232.9" x2="596.5" y2="232.9"/>
<line x1="577.5" y1="257.0" x2="569.8" y2="257.0"/>
<line x1="550.6" y1="281.1" x2="542.9" y2="281.1"/>
<line x1="577.2" y1="226.8" x2="569.6" y2="226.8"/>
<line x1="550.5" y1="250.9" x2="542.9" y2="250.9"/>
<line x1="523.6" y1="275.0" x2="516.0" y2="275.0"/>
<line x1="588.7" y1="226.8" x2="581.0" y2="226.8"/>
<line x1="562.0" y1="250.9" x2="554.4" y2="250.9"/>
<line x1="535.1" y1="275.0" x2="527.5" y2="275.0"/>
<line x1="600.2" y1="226.8" x2="592.5" y2="226.8"/>
<line x1="573.5" y1="250.9" x2="565.8" y2="250.9"/>
<line x1="546.6" y1="275.0" x2="538.9" y2="275.0"/>
<line x1="497.8" y1="348.5" x2="497.8" y2="356.2"/>
<line x1="470.9" y1="372.6" x2="470.9" y2="380.2"/>
<line x1="615.6" y1="232.9" x2="608.0" y2="232.9"/>
<line x1="588.9" y1="257.0" x2="581.3" y2="257.0"/>
<line x1="562.1" y1="281.1" x2="554.4" y2="281.1"/>
<line x1="627.1" y1="232.9" x2="619.4" y2="232.9"/>
<line x1="600.4" y1="257.0" x2="592.8" y2="257.0"/>
<line x1="573.5" y1="281.1" x2="565.9" y2="281.1"/>
<line x1="638.6" y1="232.9" x2="630.9" y2="232.9"/>
<line x1="611.9" y1="257.0" x2="604.2" y2="257.0"/>
<line x1="585.0" y1="281.1" x2="577.3" y2="281.1"/>
<line x1="640.8" y1="263.6" x2="640.8" y2="255.9"/>
<line x1="614.1" y1="287.6" x2="614.1" y2="280.0"/>
<line x1="587.2" y1="311.7" x2="587.2" y2="304.1"/>
<line x1="640.8" y1="252.1" x2="640.8" y2="244.4"/>
<line x1="614.1" y1="276.1" x2="614.1" y2="268.5"/>
<line x1="587.2" y1="300.2" x2="587.2" y2="292.6"/>
<line x1="641.6" y1="232.9" x2="641.6" y2="240.5"/>
<line x1="475.1" y1="264.5" x2="467.5" y2="264.5"/>
<line x1="640.8" y1="240.6" x2="640.8" y2="233.0"/>
<line x1="614.1" y1="264.7" x2="614.1" y2="257.0"/>
<line x1="587.2" y1="288.8" x2="587.2" y2="281.1"/>
<line x1="556.9" y1="284.7" x2="559.5" y2="291.9"/>
<line x1="615.7" y1="247.9" x2="615.7" y2="255.5"/>
<line x1="589.0" y1="271.2" x2="589.0" y2="278.8"/>
<line x1="562.2" y1="295.3" x2="562.2" y2="302.9"/>
<line x1="496.6" y1="349.7" x2="499.2" y2="356.9"/>
<line x1="467.5" y1="380.0" x2="467.5" y2="387.7"/>
<line x1="467.5" y1="371.5" x2="467.5" y2="379.1"/>
<line x1="473.7" y1="376.4" x2="466.0" y2="376.4"/>
<line x1="619.5" y1="262.4" x2="611.9" y2="262.4"/>
<line x1="592.9" y1="286.5" x2="585.2" y2="286.5"/>
<line x1="566.0" y1="310.6" x2="558.3" y2="310.6"/>
<line x1="615.3" y1="258.1" x2="615.3" y2="265.8"/>
<line x1="588.7" y1="282.2" x2="588.7" y2="289.8"/>
<line x1="561.8" y1="306.3" x2="561.8" y2="313.9"/>
<line x1="615.3" y1="247.8" x2="615.3" y2="255.4"/>
<line x1="600.6" y1="247.8" x2="600.6" y2="255.4"/>
<line x1="557.7" y1="309.5" x2="550.1" y2="309.5"/>
<line x1="531.0" y1="333.5" x2="523.4" y2="333.5"/>
<line x1="505.2" y1="362.1" x2="498.5" y2="366.0"/>
<line x1="546.3" y1="309.5" x2="538.6" y2="309.5"/>
<line x1="519.6" y1="333.5" x2="511.9" y2="333.5"/>
<line x1="512.6" y1="326.2" x2="512.6" y2="333.9"/>
<line x1="494.4" y1="364.5" x2="494.4" y2="372.2"/>
<line x1="467.5" y1="388.6" x2="467.5" y2="396.3"/>
<line x1="508.7" y1="349.9" x2="516.4" y2="349.9"/>
<line x1="490.6" y1="373.9" x2="498.2" y2="373.9"/>
<line x1="463.7" y1="398.0" x2="471.3" y2="398.0"/>
<line x1="520.2" y1="349.9" x2="527.8" y2="349.9"/>
<line x1="512.7" y1="334.8" x2="512.7" y2="342.4"/>
<line x1="531.7" y1="349.9" x2="539.3" y2="349.9"/>
<line x1="512.6" y1="314.2" x2="512.6" y2="322.2"/>
<line x1="499.2" y1="373.9" x2="506.8" y2="373.9"/>
<line x1="472.3" y1="398.0" x2="479.9" y2="398.0"/>
<line x1="491.4" y1="398.5" x2="483.8" y2="398.5"/>
<line x1="541.8" y1="346.9" x2="541.8" y2="354.6"/>
<line x1="515.1" y1="371.0" x2="515.1" y2="378.6"/>
<line x1="488.2" y1="395.0" x2="488.2" y2="402.6"/>
<line x1="490.1" y1="397.0" x2="490.1" y2="404.6"/>
<line x1="526.0" y1="346.9" x2="526.0" y2="354.6"/>
<line x1="534.8" y1="309.5" x2="527.1" y2="309.5"/>
<line x1="508.1" y1="333.5" x2="500.4" y2="333.5"/>
<line x1="632.1" y1="319.1" x2="639.7" y2="319.1"/>
<line x1="632.1" y1="330.6" x2="639.7" y2="330.6"/>
<line x1="707.1" y1="415.6" x2="699.5" y2="415.6"/>
<line x1="707.1" y1="377.4" x2="699.5" y2="377.4"/>
<line x1="515.9" y1="587.7" x2="508.3" y2="587.7"/>
<line x1="535.1" y1="568.6" x2="527.4" y2="568.6"/>
<line x1="515.9" y1="568.6" x2="508.3" y2="568.6"/>
<line x1="515.9" y1="300.9" x2="508.3" y2="300.9"/>
<line x1="515.9" y1="262.7" x2="508.3" y2="262.7"/>
<line x1="535.1" y1="262.7" x2="527.4" y2="262.7"/>
<line x1="573.3" y1="109.7" x2="565.6" y2="109.7"/>
<line x1="569.5" y1="86.8" x2="569.5" y2="94.4"/>
<line x1="668.9" y1="109.7" x2="661.2" y2="109.7"/>
<line x1="668.9" y1="90.6" x2="661.2" y2="90.6"/>
<line x1="707.1" y1="90.6" x2="699.5" y2="90.6"/>
<line x1="726.2" y1="109.7" x2="718.6" y2="109.7"/>
<line x1="726.2" y1="90.6" x2="718.6" y2="90.6"/>
<line x1="531.2" y1="105.9" x2="531.2" y2="113.6"/>
<line x1="569.5" y1="297.1" x2="569.5" y2="304.8"/>
<line x1="569.5" y1="335.3" x2="569.5" y2="343.0"/>
<line x1="559.9" y1="335.3" x2="559.9" y2="343.0"/>
<line x1="531.2" y1="343.0" x2="531.2" y2="335.3"/>
<line x1="569.5" y1="373.6" x2="569.5" y2="381.2"/>
<line x1="531.2" y1="381.2" x2="531.2" y2="373.6"/>
<line x1="569.5" y1="411.8" x2="569.5" y2="419.5"/>
<line x1="531.2" y1="419.5" x2="531.2" y2="411.8"/>
<line x1="569.5" y1="450.1" x2="569.5" y2="457.7"/>
<line x1="531.2" y1="457.7" x2="531.2" y2="450.1"/>
<line x1="569.5" y1="488.3" x2="569.5" y2="495.9"/>
<line x1="531.2" y1="495.9" x2="531.2" y2="488.3"/>
<line x1="539.4" y1="457.7" x2="539.4" y2="450.1"/>
<line x1="559.9" y1="526.5" x2="559.9" y2="534.2"/>
<line x1="539.7" y1="381.2" x2="539.7" y2="373.6"/>
<line x1="665.1" y1="572.4" x2="665.1" y2="564.8"/>
<line x1="703.3" y1="572.4" x2="703.3" y2="564.8"/>
<line x1="665.1" y1="534.2" x2="665.1" y2="526.5"/>
<line x1="703.3" y1="534.2" x2="703.3" y2="526.5"/>
<line x1="665.1" y1="495.9" x2="665.1" y2="488.3"/>
<line x1="703.3" y1="488.3" x2="703.3" y2="495.9"/>
<line x1="665.1" y1="457.7" x2="665.1" y2="450.1"/>
<line x1="703.3" y1="450.1" x2="703.3" y2="457.7"/>
<line x1="665.1" y1="419.5" x2="665.1" y2="411.8"/>
<line x1="665.1" y1="381.2" x2="665.1" y2="373.6"/>
<line x1="665.1" y1="343.0" x2="665.1" y2="335.3"/>
<line x1="703.3" y1="335.3" x2="703.3" y2="343.0"/>
<line x1="665.1" y1="304.8" x2="665.1" y2="297.1"/>
<line x1="703.3" y1="297.1" x2="703.3" y2="304.8"/>
<line x1="665.1" y1="266.5" x2="665.1" y2="258.9"/>
<line x1="703.3" y1="258.9" x2="703.3" y2="266.5"/>
<line x1="674.4" y1="419.5" x2="674.4" y2="411.8"/>
<line x1="665.1" y1="228.3" x2="665.1" y2="220.6"/>
<line x1="703.3" y1="220.6" x2="703.3" y2="228.3"/>
<line x1="569.5" y1="220.6" x2="569.5" y2="228.3"/>
<line x1="531.2" y1="220.6" x2="531.2" y2="228.3"/>
<line x1="665.1" y1="190.0" x2="665.1" y2="182.4"/>
<line x1="703.3" y1="182.4" x2="703.3" y2="190.0"/>
<line x1="569.5" y1="182.4" x2="569.5" y2="190.0"/>
<line x1="531.2" y1="182.4" x2="531.2" y2="190.0"/>
<line x1="665.1" y1="151.8" x2="665.1" y2="144.2"/>
<line x1="703.3" y1="144.2" x2="703.3" y2="151.8"/>
<line x1="569.5" y1="144.2" x2="569.5" y2="151.8"/>
<line x1="531.2" y1="144.2" x2="531.2" y2="151.8"/>
<line x1="674.8" y1="304.8" x2="674.8" y2="297.1"/>
<line x1="726.2" y1="224.5" x2="718.6" y2="224.5"/>
<line x1="508.3" y1="224.5" x2="515.9" y2="224.5"/>
<line x1="726.2" y1="186.2" x2="718.6" y2="186.2"/>
<line x1="508.3" y1="186.2" x2="515.9" y2="186.2"/>
<line x1="726.2" y1="148.0" x2="718.6" y2="148.0"/>
<line x1="508.3" y1="148.0" x2="515.9" y2="148.0"/>
<line x1="508.3" y1="109.7" x2="515.9" y2="109.7"/>
<line x1="647.3" y1="526.5" x2="647.3" y2="534.2"/>
<line x1="565.6" y1="568.6" x2="573.3" y2="568.6"/>
<line x1="565.6" y1="262.7" x2="573.3" y2="262.7"/>
<line x1="527.4" y1="300.9" x2="535.1" y2="300.9"/>
<line x1="531.2" y1="534.2" x2="531.2" y2="526.5"/>
<line x1="508.3" y1="339.2" x2="515.9" y2="339.2"/>
<line x1="592.4" y1="377.4" x2="584.8" y2="377.4"/>
<line x1="508.3" y1="377.4" x2="515.9" y2="377.4"/>
<line x1="592.4" y1="415.6" x2="584.8" y2="415.6"/>
<line x1="508.3" y1="415.6" x2="515.9" y2="415.6"/>
<line x1="592.4" y1="453.9" x2="584.8" y2="453.9"/>
<line x1="508.3" y1="453.9" x2="515.9" y2="453.9"/>
<line x1="592.4" y1="492.1" x2="584.8" y2="492.1"/>
<line x1="508.3" y1="492.1" x2="515.9" y2="492.1"/>
<line x1="588.6" y1="526.5" x2="588.6" y2="534.2"/>
<line x1="531.2" y1="583.9" x2="531.2" y2="591.5"/>
<line x1="565.6" y1="587.7" x2="573.3" y2="587.7"/>
<line x1="726.2" y1="587.7" x2="718.6" y2="587.7"/>
<line x1="703.3" y1="591.5" x2="703.3" y2="583.9"/>
<line x1="665.1" y1="591.5" x2="665.1" y2="583.9"/>
<line x1="726.2" y1="568.6" x2="718.6" y2="568.6"/>
<line x1="726.2" y1="530.4" x2="718.6" y2="530.4"/>
<line x1="642.1" y1="492.1" x2="649.8" y2="492.1"/>
<line x1="726.2" y1="492.1" x2="718.6" y2="492.1"/>
<line x1="642.1" y1="453.9" x2="649.8" y2="453.9"/>
<line x1="726.2" y1="453.9" x2="718.6" y2="453.9"/>
<line x1="642.1" y1="415.6" x2="649.8" y2="415.6"/>
<line x1="642.1" y1="377.4" x2="649.8" y2="377.4"/>
<line x1="642.1" y1="339.2" x2="649.8" y2="339.2"/>
<line x1="726.2" y1="339.2" x2="718.6" y2="339.2"/>
<line x1="645.9" y1="304.8" x2="645.9" y2="297.1"/>
<line x1="726.2" y1="300.9" x2="718.6" y2="300.9"/>
<line x1="726.2" y1="262.7" x2="718.6" y2="262.7"/>
<line x1="508.3" y1="90.6" x2="515.9" y2="90.6"/>
<line x1="531.2" y1="86.8" x2="531.2" y2="94.4"/>
<line x1="617.3" y1="228.3" x2="617.3" y2="220.6"/>
<line x1="617.3" y1="190.0" x2="617.3" y2="182.4"/>
<line x1="617.3" y1="151.8" x2="617.3" y2="144.2"/>
<line x1="617.3" y1="113.6" x2="617.3" y2="105.9"/>
<line x1="617.3" y1="564.8" x2="617.3" y2="572.4"/>
<line x1="617.3" y1="266.5" x2="617.3" y2="258.9"/>
<line x1="617.3" y1="591.5" x2="617.3" y2="583.9"/>
<line x1="617.3" y1="86.8" x2="617.3" y2="94.4"/>
<line x1="617.3" y1="526.5" x2="617.3" y2="534.2"/>
<line x1="515.9" y1="530.4" x2="508.3" y2="530.4"/>
<line x1="719.8" y1="561.2" x2="719.8" y2="538.3"/>
<line x1="719.8" y1="561.2" x2="719.8" y2="538.3"/>
<line x1="720.8" y1="561.2" x2="720.8" y2="538.3"/>
<line x1="515.9" y1="540.3" x2="508.3" y2="540.3"/>
<line x1="515.9" y1="482.6" x2="508.3" y2="482.6"/>
<line x1="515.9" y1="463.4" x2="508.3" y2="463.4"/>
<line x1="515.9" y1="367.8" x2="508.3" y2="367.8"/>
<line x1="515.9" y1="388.3" x2="508.3" y2="388.3"/>
<line x1="515.9" y1="407.4" x2="508.3" y2="407.4"/>
<line x1="515.9" y1="348.7" x2="508.3" y2="348.7"/>
<line x1="515.9" y1="426.5" x2="508.3" y2="426.5"/>
<line x1="515.9" y1="445.7" x2="508.3" y2="445.7"/>
<line x1="718.6" y1="501.7" x2="726.2" y2="501.7"/>
<line x1="718.6" y1="520.8" x2="726.2" y2="520.8"/>
<line x1="718.2" y1="537.7" x2="725.9" y2="537.7"/>
<line x1="718.6" y1="560.9" x2="726.2" y2="560.9"/>
<line x1="718.6" y1="463.4" x2="726.2" y2="463.4"/>
<line x1="718.6" y1="579.1" x2="726.2" y2="579.1"/>
<line x1="718.6" y1="443.7" x2="726.2" y2="443.7"/>
<line x1="718.6" y1="482.6" x2="726.2" y2="482.6"/>
<line x1="718.6" y1="424.6" x2="726.2" y2="424.6"/>
<line x1="726.2" y1="560.9" x2="718.6" y2="560.9"/>
<line x1="718.6" y1="552.4" x2="726.2" y2="552.4"/>
<line x1="649.8" y1="520.8" x2="642.1" y2="520.8"/>
<line x1="649.8" y1="501.7" x2="642.1" y2="501.7"/>
<line x1="649.8" y1="482.6" x2="642.1" y2="482.6"/>
<line x1="649.8" y1="463.4" x2="642.1" y2="463.4"/>
<line x1="649.8" y1="444.3" x2="642.1" y2="444.3"/>
<line x1="649.8" y1="425.2" x2="642.1" y2="425.2"/>
<line x1="649.8" y1="404.7" x2="642.1" y2="404.7"/>
<line x1="649.8" y1="385.6" x2="642.1" y2="385.6"/>
<line x1="649.8" y1="366.5" x2="642.1" y2="366.5"/>
<line x1="649.8" y1="347.4" x2="642.1" y2="347.4"/>
<line x1="649.8" y1="328.3" x2="642.1" y2="328.3"/>
<line x1="649.8" y1="309.2" x2="642.1" y2="309.2"/>
<line x1="584.8" y1="387.0" x2="592.4" y2="387.0"/>
<line x1="584.8" y1="406.1" x2="592.4" y2="406.1"/>
<line x1="584.8" y1="426.5" x2="592.4" y2="426.5"/>
<line x1="584.8" y1="445.7" x2="592.4" y2="445.7"/>
<line x1="584.8" y1="464.8" x2="592.4" y2="464.8"/>
<line x1="584.8" y1="483.9" x2="592.4" y2="483.9"/>
<line x1="584.8" y1="348.7" x2="592.4" y2="348.7"/>
<line x1="584.8" y1="503.0" x2="592.4" y2="503.0"/>
<line x1="584.8" y1="522.1" x2="592.4" y2="522.1"/>
<line x1="584.8" y1="367.8" x2="592.4" y2="367.8"/>
<line x1="515.9" y1="578.2" x2="508.3" y2="578.2"/>
<line x1="515.9" y1="253.1" x2="508.3" y2="253.1"/>
<line x1="515.9" y1="234.0" x2="508.3" y2="234.0"/>
<line x1="521.7" y1="572.4" x2="521.7" y2="564.8"/>
<line x1="521.7" y1="258.9" x2="521.7" y2="266.5"/>
<line x1="515.9" y1="310.5" x2="508.3" y2="310.5"/>
<line x1="515.9" y1="290.2" x2="508.3" y2="290.2"/>
<line x1="515.9" y1="271.1" x2="508.3" y2="271.1"/>
<line x1="515.9" y1="329.6" x2="508.3" y2="329.6"/>
<line x1="515.9" y1="520.8" x2="508.3" y2="520.8"/>
<line x1="515.9" y1="559.4" x2="508.3" y2="559.4"/>
<line x1="515.9" y1="501.7" x2="508.3" y2="501.7"/>
<line x1="693.7" y1="583.9" x2="693.7" y2="591.5"/>
<line x1="712.9" y1="583.9" x2="712.9" y2="591.5"/>
<line x1="674.6" y1="583.9" x2="674.6" y2="591.5"/>
<line x1="655.5" y1="583.9" x2="655.5" y2="591.5"/>
<line x1="636.4" y1="583.9" x2="636.4" y2="591.5"/>
<line x1="617.3" y1="583.9" x2="617.3" y2="591.5"/>
<line x1="598.1" y1="583.9" x2="598.1" y2="591.5"/>
<line x1="579.0" y1="583.9" x2="579.0" y2="591.5"/>
<line x1="559.9" y1="583.9" x2="559.9" y2="591.5"/>
<line x1="540.8" y1="583.9" x2="540.8" y2="591.5"/>
<line x1="521.7" y1="583.9" x2="521.7" y2="591.5"/>
<line x1="521.7" y1="94.4" x2="521.7" y2="86.8"/>
<line x1="540.8" y1="94.4" x2="540.8" y2="86.8"/>
<line x1="579.0" y1="94.4" x2="579.0" y2="86.8"/>
<line x1="598.1" y1="94.4" x2="598.1" y2="86.8"/>
<line x1="617.3" y1="94.4" x2="617.3" y2="86.8"/>
<line x1="636.4" y1="94.4" x2="636.4" y2="86.8"/>
<line x1="655.5" y1="94.4" x2="655.5" y2="86.8"/>
<line x1="693.7" y1="94.4" x2="693.7" y2="86.8"/>
<line x1="712.9" y1="94.4" x2="712.9" y2="86.8"/>
<line x1="515.9" y1="100.2" x2="508.3" y2="100.2"/>
<line x1="515.9" y1="119.3" x2="508.3" y2="119.3"/>
<line x1="515.9" y1="138.4" x2="508.3" y2="138.4"/>
<line x1="718.6" y1="100.2" x2="726.2" y2="100.2"/>
<line x1="718.6" y1="119.3" x2="726.2" y2="119.3"/>
<line x1="718.6" y1="138.4" x2="726.2" y2="138.4"/>
<line x1="515.9" y1="157.5" x2="508.3" y2="157.5"/>
<line x1="515.9" y1="176.7" x2="508.3" y2="176.7"/>
<line x1="515.9" y1="195.8" x2="508.3" y2="195.8"/>
<line x1="515.9" y1="214.9" x2="508.3" y2="214.9"/>
<line x1="718.6" y1="157.5" x2="726.2" y2="157.5"/>
<line x1="718.6" y1="176.7" x2="726.2" y2="176.7"/>
<line x1="718.6" y1="195.8" x2="726.2" y2="195.8"/>
<line x1="718.6" y1="214.9" x2="726.2" y2="214.9"/>
<line x1="718.6" y1="234.4" x2="726.2" y2="234.4"/>
<line x1="718.6" y1="253.5" x2="726.2" y2="253.5"/>
<line x1="718.6" y1="273.6" x2="726.2" y2="273.6"/>
<line x1="712.9" y1="372.4" x2="712.9" y2="380.1"/>
<line x1="718.6" y1="292.7" x2="726.2" y2="292.7"/>
<line x1="712.9" y1="420.6" x2="712.9" y2="413.0"/>
<line x1="718.6" y1="312.0" x2="726.2" y2="312.0"/>
<line x1="718.6" y1="331.1" x2="726.2" y2="331.1"/>
<line x1="718.6" y1="350.1" x2="726.2" y2="350.1"/>
<line x1="718.6" y1="369.2" x2="726.2" y2="369.2"/>
<line x1="718.6" y1="224.5" x2="726.2" y2="224.5"/>
<line x1="515.9" y1="224.5" x2="508.3" y2="224.5"/>
<line x1="515.9" y1="587.7" x2="508.3" y2="587.7"/>
<line x1="722.4" y1="583.9" x2="722.4" y2="591.5"/>
<line x1="512.1" y1="94.4" x2="512.1" y2="86.8"/>
<line x1="718.6" y1="90.6" x2="726.2" y2="90.6"/>
<line x1="674.6" y1="94.4" x2="674.6" y2="86.8"/>
<line x1="559.9" y1="94.4" x2="559.9" y2="86.8"/>
<line x1="655.5" y1="297.1" x2="655.5" y2="304.8"/>
<line x1="599.5" y1="534.2" x2="599.5" y2="526.5"/>
<line x1="618.6" y1="534.2" x2="618.6" y2="526.5"/>
<line x1="637.7" y1="534.2" x2="637.7" y2="526.5"/>
<line x1="592.6" y1="329.2" x2="585.0" y2="329.2"/>
<line x1="592.6" y1="310.1" x2="585.0" y2="310.1"/>
<line x1="613.4" y1="253.1" x2="621.1" y2="253.1"/>
<line x1="592.6" y1="348.9" x2="585.0" y2="348.9"/>
<line x1="592.6" y1="368.0" x2="585.0" y2="368.0"/>
<line x1="592.6" y1="388.1" x2="585.0" y2="388.1"/>
<line x1="613.4" y1="234.0" x2="621.1" y2="234.0"/>
<line x1="592.6" y1="407.2" x2="585.0" y2="407.2"/>
<line x1="592.6" y1="426.5" x2="585.0" y2="426.5"/>
<line x1="592.6" y1="445.7" x2="585.0" y2="445.7"/>
<line x1="613.4" y1="176.7" x2="621.1" y2="176.7"/>
<line x1="592.6" y1="464.8" x2="585.0" y2="464.8"/>
<line x1="592.6" y1="483.9" x2="585.0" y2="483.9"/>
<line x1="668.9" y1="100.2" x2="661.2" y2="100.2"/>
<line x1="613.4" y1="157.5" x2="621.1" y2="157.5"/>
<line x1="592.6" y1="503.0" x2="585.0" y2="503.0"/>
<line x1="592.6" y1="522.1" x2="585.0" y2="522.1"/>
<line x1="644.8" y1="297.1" x2="644.8" y2="304.8"/>
<line x1="554.2" y1="100.2" x2="546.5" y2="100.2"/>
<line x1="565.6" y1="100.2" x2="573.3" y2="100.2"/>
<line x1="707.1" y1="406.1" x2="699.5" y2="406.1"/>
<line x1="712.9" y1="390.8" x2="712.9" y2="383.1"/>
<line x1="718.6" y1="396.5" x2="726.2" y2="396.5"/>
<line x1="540.8" y1="247.4" x2="540.8" y2="239.7"/>
<line x1="521.7" y1="247.4" x2="521.7" y2="239.7"/>
<line x1="559.9" y1="247.4" x2="559.9" y2="239.7"/>
<line x1="565.6" y1="253.1" x2="573.3" y2="253.1"/>
<line x1="565.6" y1="578.2" x2="573.3" y2="578.2"/>
<line x1="693.7" y1="105.9" x2="693.7" y2="113.6"/>
<line x1="688.0" y1="100.2" x2="680.4" y2="100.2"/>
<line x1="693.7" y1="170.9" x2="693.7" y2="163.3"/>
<line x1="712.9" y1="170.9" x2="712.9" y2="163.3"/>
<line x1="531.2" y1="170.9" x2="531.2" y2="163.3"/>
<line x1="550.4" y1="170.9" x2="550.4" y2="163.3"/>
<line x1="579.0" y1="343.0" x2="579.0" y2="335.3"/>
<line x1="520.5" y1="373.6" x2="520.5" y2="381.2"/>
<line x1="520.5" y1="450.1" x2="520.5" y2="457.7"/>
<line x1="579.0" y1="534.2" x2="579.0" y2="526.5"/>
<line x1="655.5" y1="411.8" x2="655.5" y2="419.5"/>
<line x1="559.9" y1="258.9" x2="559.9" y2="266.5"/>
<line x1="531.2" y1="572.4" x2="531.2" y2="564.8"/>
<line x1="550.4" y1="572.4" x2="550.4" y2="564.8"/>
<line x1="712.9" y1="105.9" x2="712.9" y2="113.6"/>
<line x1="674.6" y1="170.9" x2="674.6" y2="163.3"/>
<line x1="668.9" y1="186.2" x2="661.2" y2="186.2"/>
<line x1="512.1" y1="170.9" x2="512.1" y2="163.3"/>
<line x1="573.3" y1="186.2" x2="565.6" y2="186.2"/>
<line x1="718.4" y1="377.4" x2="726.1" y2="377.4"/>
<line x1="559.9" y1="343.0" x2="559.9" y2="335.3"/>
<line x1="539.6" y1="373.6" x2="539.6" y2="381.2"/>
<line x1="539.6" y1="450.1" x2="539.6" y2="457.7"/>
<line x1="559.9" y1="534.2" x2="559.9" y2="526.5"/>
<line x1="674.6" y1="411.8" x2="674.6" y2="419.5"/>
<line x1="674.6" y1="297.1" x2="674.6" y2="304.8"/>
<line x1="540.8" y1="258.9" x2="540.8" y2="266.5"/>
<line x1="550.4" y1="258.9" x2="550.4" y2="266.5"/>
<line x1="540.8" y1="572.4" x2="540.8" y2="564.8"/>
<line x1="684.2" y1="105.9" x2="684.2" y2="113.6"/>
<line x1="674.6" y1="105.9" x2="674.6" y2="113.6"/>
<line x1="569.5" y1="105.9" x2="569.5" y2="113.6"/>
<line x1="559.9" y1="105.9" x2="559.9" y2="113.6"/>
<line x1="668.9" y1="167.1" x2="661.2" y2="167.1"/>
<line x1="569.5" y1="170.9" x2="569.5" y2="163.3"/>
<line x1="668.9" y1="167.1" x2="661.2" y2="167.1"/>
<line x1="569.5" y1="170.9" x2="569.5" y2="163.3"/>
<line x1="550.4" y1="105.9" x2="550.4" y2="113.6"/>
<line x1="564.1" y1="530.4" x2="556.5" y2="530.4"/>
<line x1="569.5" y1="247.4" x2="569.5" y2="239.7"/>
<line x1="707.1" y1="377.4" x2="699.5" y2="377.4"/>
<line x1="712.9" y1="105.9" x2="712.9" y2="113.6"/>
<line x1="569.5" y1="258.9" x2="569.5" y2="266.5"/>
<line x1="559.9" y1="572.4" x2="559.9" y2="564.8"/>
<line x1="722.4" y1="105.9" x2="722.4" y2="113.6"/>
<line x1="707.1" y1="396.5" x2="699.5" y2="396.5"/>
<line x1="707.1" y1="387.0" x2="699.5" y2="387.0"/>
<line x1="718.6" y1="406.1" x2="726.2" y2="406.1"/>
<line x1="707.1" y1="387.0" x2="699.5" y2="387.0"/>
<line x1="600.8" y1="300.9" x2="593.2" y2="300.9"/>
<line x1="631.4" y1="300.9" x2="639.1" y2="300.9"/>
<line x1="588.6" y1="304.8" x2="588.6" y2="297.1"/>
<line x1="617.3" y1="304.8" x2="617.3" y2="297.1"/>
<line x1="584.8" y1="310.5" x2="592.4" y2="310.5"/>
<line x1="584.8" y1="329.6" x2="592.4" y2="329.6"/>
<line x1="616.1" y1="297.1" x2="616.1" y2="304.8"/>
<line x1="597.0" y1="297.1" x2="597.0" y2="304.8"/>
<line x1="636.6" y1="324.6" x2="636.6" y2="332.3"/>
<line x1="619.9" y1="324.6" x2="619.9" y2="332.3"/>
<line x1="610.8" y1="324.6" x2="610.8" y2="332.3"/>
<line x1="597.8" y1="324.6" x2="597.8" y2="332.3"/>
<line x1="631.4" y1="310.5" x2="639.1" y2="310.5"/>
<line x1="631.4" y1="320.0" x2="639.1" y2="320.0"/>
<line x1="625.7" y1="304.8" x2="625.7" y2="297.1"/>
<line x1="635.2" y1="304.8" x2="635.2" y2="297.1"/>
<line x1="632.1" y1="330.6" x2="639.7" y2="330.6"/>
<line x1="632.1" y1="319.1" x2="639.7" y2="319.1"/>
<line x1="719.8" y1="561.2" x2="719.8" y2="538.2"/>
<line x1="719.8" y1="561.2" x2="719.8" y2="538.2"/>
<line x1="719.8" y1="561.2" x2="719.8" y2="538.2"/>
</g>
<circle cx="607.9" cy="336.2" r="7" fill="#059669" stroke="#fff" stroke-width="2"/>
<circle cx="607.2" cy="347.7" r="7" fill="#059669" stroke="#fff" stroke-width="2"/>
<circle cx="613.3" cy="349.6" r="7" fill="#059669" stroke="#fff" stroke-width="2"/>
<circle cx="608.1" cy="341.7" r="7" fill="#059669" stroke="#fff" stroke-width="2"/>
<rect x="604.0" y="336.7" width="15" height="15" rx="3" fill="#2563EB" stroke="#fff" stroke-width="2"/>
<text x="611.5" y="332.2" class="mk" text-anchor="middle">GarageLevel2</text>
<circle cx="725.8" cy="551.8" r="7" fill="#059669" stroke="#fff" stroke-width="2"/>
<circle cx="729.1" cy="547.4" r="7" fill="#059669" stroke="#fff" stroke-width="2"/>
<circle cx="729.3" cy="552.1" r="7" fill="#059669" stroke="#fff" stroke-width="2"/>
<circle cx="725.4" cy="548.1" r="7" fill="#059669" stroke="#fff" stroke-width="2"/>
<line x1="800.0" y1="58" x2="800.0" y2="706.0" stroke="#CBD5E1"/>
<text x="812.0" y="60" class="fl">3층 / 3 &#183; Z 48~48 m</text>
<g stroke="#0F172A" stroke-opacity=".82" stroke-width="1.40" stroke-linecap="square">
<line x1="980.3" y1="543.1" x2="987.9" y2="543.1"/>
<line x1="979.4" y1="582.6" x2="987.1" y2="582.6"/>
<line x1="1091.8" y1="471.7" x2="1091.8" y2="464.0"/>
<line x1="1054.9" y1="471.7" x2="1054.9" y2="464.0"/>
<line x1="1117.1" y1="433.5" x2="1117.1" y2="425.8"/>
<line x1="1021.5" y1="387.6" x2="1021.5" y2="395.2"/>
<line x1="983.4" y1="387.6" x2="983.4" y2="395.2"/>
<line x1="1021.5" y1="425.8" x2="1021.5" y2="433.5"/>
<line x1="983.4" y1="425.8" x2="983.4" y2="433.5"/>
<line x1="1021.5" y1="464.0" x2="1021.5" y2="471.7"/>
<line x1="983.2" y1="471.7" x2="983.2" y2="464.0"/>
<line x1="1021.5" y1="502.3" x2="1021.5" y2="509.9"/>
<line x1="983.2" y1="509.9" x2="983.2" y2="502.3"/>
<line x1="1021.5" y1="540.5" x2="1021.5" y2="548.2"/>
<line x1="1041.9" y1="540.5" x2="1041.9" y2="548.2"/>
<line x1="1062.4" y1="540.5" x2="1062.4" y2="548.2"/>
<line x1="1079.0" y1="540.5" x2="1079.0" y2="548.2"/>
<line x1="1054.1" y1="540.5" x2="1054.1" y2="548.2"/>
<line x1="1096.6" y1="531.2" x2="1089.0" y2="531.2"/>
<line x1="1059.1" y1="531.2" x2="1051.5" y2="531.2"/>
<line x1="1117.1" y1="510.5" x2="1117.1" y2="502.9"/>
<line x1="1117.1" y1="471.7" x2="1117.1" y2="464.0"/>
<line x1="1098.0" y1="433.5" x2="1098.0" y2="425.8"/>
<line x1="1119.8" y1="372.8" x2="1112.1" y2="372.8"/>
<line x1="927.1" y1="375.4" x2="934.8" y2="375.4"/>
<line x1="1021.5" y1="368.4" x2="1021.5" y2="376.1"/>
<line x1="926.5" y1="398.1" x2="934.1" y2="398.1"/>
<line x1="960.3" y1="429.6" x2="967.9" y2="429.6"/>
<line x1="960.6" y1="394.5" x2="960.6" y2="402.1"/>
<line x1="960.3" y1="467.9" x2="967.9" y2="467.9"/>
<line x1="960.3" y1="506.1" x2="967.9" y2="506.1"/>
<line x1="1040.6" y1="433.5" x2="1040.6" y2="425.8"/>
<line x1="1120.6" y1="392.3" x2="1112.9" y2="392.3"/>
<line x1="1069.3" y1="395.2" x2="1069.3" y2="387.6"/>
<line x1="1069.3" y1="433.5" x2="1069.3" y2="425.8"/>
<line x1="1069.3" y1="368.4" x2="1069.3" y2="376.1"/>
<line x1="939.4" y1="353.1" x2="931.8" y2="353.1"/>
<line x1="919.0" y1="352.5" x2="911.4" y2="352.5"/>
<line x1="960.5" y1="357.9" x2="960.5" y2="350.2"/>
<line x1="903.1" y1="352.9" x2="903.1" y2="375.8"/>
<line x1="903.1" y1="375.8" x2="903.1" y2="398.8"/>
<line x1="903.1" y1="398.8" x2="903.1" y2="421.7"/>
<line x1="914.6" y1="364.5" x2="891.6" y2="364.5"/>
<line x1="949.0" y1="375.4" x2="949.0" y2="352.5"/>
<line x1="960.5" y1="364.5" x2="937.5" y2="364.5"/>
<line x1="1119.7" y1="561.2" x2="1119.7" y2="538.2"/>
<line x1="937.5" y1="364.5" x2="914.6" y2="364.5"/>
<line x1="967.9" y1="458.3" x2="960.3" y2="458.3"/>
<line x1="967.9" y1="439.2" x2="960.3" y2="439.2"/>
<line x1="972.5" y1="424.5" x2="972.5" y2="432.1"/>
<line x1="967.9" y1="496.5" x2="960.3" y2="496.5"/>
<line x1="967.9" y1="477.4" x2="960.3" y2="477.4"/>
<line x1="987.8" y1="418.7" x2="980.2" y2="418.7"/>
<line x1="987.8" y1="390.1" x2="980.2" y2="390.1"/>
<line x1="987.8" y1="370.9" x2="980.2" y2="370.9"/>
<line x1="967.9" y1="516.2" x2="960.3" y2="516.2"/>
<line x1="967.9" y1="535.4" x2="960.3" y2="535.4"/>
<line x1="973.7" y1="578.8" x2="973.7" y2="586.4"/>
<line x1="973.7" y1="548.2" x2="973.7" y2="540.5"/>
<line x1="967.9" y1="590.8" x2="960.3" y2="590.8"/>
<line x1="978.3" y1="596.5" x2="978.3" y2="604.2"/>
<line x1="997.4" y1="596.5" x2="997.4" y2="604.2"/>
<line x1="1016.5" y1="596.5" x2="1016.5" y2="604.2"/>
<line x1="1035.6" y1="596.5" x2="1035.6" y2="604.2"/>
<line x1="1054.7" y1="596.5" x2="1054.7" y2="604.2"/>
<line x1="1073.9" y1="596.5" x2="1073.9" y2="604.2"/>
<line x1="1093.0" y1="596.5" x2="1093.0" y2="604.2"/>
<line x1="959.2" y1="596.5" x2="959.2" y2="604.2"/>
<line x1="1127.4" y1="596.5" x2="1127.4" y2="604.2"/>
<line x1="1002.4" y1="376.1" x2="1002.4" y2="368.4"/>
<line x1="983.2" y1="376.1" x2="983.2" y2="368.4"/>
<line x1="1021.5" y1="376.1" x2="1021.5" y2="368.4"/>
<line x1="1040.6" y1="376.1" x2="1040.6" y2="368.4"/>
<line x1="1069.3" y1="376.1" x2="1069.3" y2="368.4"/>
<line x1="1088.4" y1="376.1" x2="1088.4" y2="368.4"/>
<line x1="1107.5" y1="376.1" x2="1107.5" y2="368.4"/>
<line x1="1126.6" y1="376.7" x2="1126.6" y2="369.0"/>
<line x1="1056.2" y1="356.2" x2="1056.2" y2="348.6"/>
<line x1="983.2" y1="548.2" x2="983.2" y2="540.5"/>
<line x1="983.2" y1="578.8" x2="983.2" y2="586.4"/>
<line x1="964.1" y1="376.1" x2="964.1" y2="368.4"/>
<line x1="1107.5" y1="425.8" x2="1107.5" y2="433.5"/>
<line x1="1088.6" y1="548.2" x2="1088.6" y2="540.5"/>
<line x1="1101.6" y1="573.4" x2="1093.9" y2="573.4"/>
<line x1="1101.6" y1="592.5" x2="1093.9" y2="592.5"/>
<line x1="1032.4" y1="548.2" x2="1032.4" y2="540.5"/>
<line x1="1052.8" y1="548.2" x2="1052.8" y2="540.5"/>
<line x1="1061.1" y1="548.2" x2="1061.1" y2="540.5"/>
<line x1="1075.8" y1="548.2" x2="1075.8" y2="540.5"/>
<line x1="1087.1" y1="425.8" x2="1087.1" y2="433.5"/>
<line x1="1067.9" y1="425.8" x2="1067.9" y2="433.5"/>
<line x1="1048.8" y1="425.8" x2="1048.8" y2="433.5"/>
<line x1="1031.6" y1="425.8" x2="1031.6" y2="433.5"/>
<line x1="1101.6" y1="554.2" x2="1093.9" y2="554.2"/>
<line x1="979.4" y1="553.9" x2="987.1" y2="553.9"/>
<line x1="973.7" y1="569.2" x2="973.7" y2="576.8"/>
<line x1="967.9" y1="563.5" x2="960.3" y2="563.5"/>
<line x1="967.9" y1="553.9" x2="960.3" y2="553.9"/>
<line x1="1120.9" y1="382.4" x2="1113.3" y2="382.4"/>
<line x1="1140.4" y1="382.4" x2="1132.8" y2="382.4"/>
<line x1="1140.4" y1="401.9" x2="1132.8" y2="401.9"/>
<line x1="1140.4" y1="421.0" x2="1132.8" y2="421.0"/>
<line x1="1140.4" y1="440.1" x2="1132.8" y2="440.1"/>
<line x1="1140.4" y1="459.3" x2="1132.8" y2="459.3"/>
<line x1="1140.4" y1="478.4" x2="1132.8" y2="478.4"/>
<line x1="1140.4" y1="497.5" x2="1132.8" y2="497.5"/>
<line x1="1140.4" y1="516.6" x2="1132.7" y2="516.6"/>
<line x1="1131.7" y1="530.3" x2="1131.7" y2="522.7"/>
<line x1="1126.0" y1="535.7" x2="1118.4" y2="535.7"/>
<line x1="1126.0" y1="563.6" x2="1118.4" y2="563.6"/>
<line x1="1126.0" y1="582.7" x2="1118.4" y2="582.7"/>
<line x1="1126.0" y1="601.9" x2="1118.4" y2="601.9"/>
<line x1="1050.5" y1="361.2" x2="1042.8" y2="361.2"/>
<line x1="1070.0" y1="361.2" x2="1062.3" y2="361.2"/>
<line x1="1136.2" y1="388.1" x2="1136.2" y2="395.8"/>
<line x1="1011.9" y1="548.2" x2="1011.9" y2="540.5"/>
<line x1="1008.5" y1="544.7" x2="1016.1" y2="544.7"/>
<line x1="1008.5" y1="554.3" x2="1016.1" y2="554.3"/>
<line x1="1008.5" y1="563.8" x2="1016.1" y2="563.8"/>
<line x1="968.1" y1="582.8" x2="960.5" y2="582.8"/>
<line x1="1008.5" y1="573.4" x2="1016.1" y2="573.4"/>
<line x1="1008.5" y1="583.0" x2="1016.1" y2="583.0"/>
<line x1="1008.5" y1="592.5" x2="1016.1" y2="592.5"/>
<line x1="1066.2" y1="548.2" x2="1066.2" y2="540.5"/>
<line x1="1075.8" y1="548.2" x2="1075.8" y2="540.5"/>
<line x1="1052.9" y1="547.6" x2="1052.9" y2="540.0"/>
<line x1="1043.3" y1="547.6" x2="1043.3" y2="539.9"/>
<line x1="979.4" y1="563.5" x2="987.1" y2="563.5"/>
<line x1="979.4" y1="573.0" x2="987.1" y2="573.0"/>
<line x1="979.8" y1="399.6" x2="987.5" y2="399.6"/>
<line x1="1059.7" y1="368.1" x2="1059.7" y2="375.7"/>
<line x1="1126.6" y1="388.1" x2="1126.6" y2="395.8"/>
<line x1="1106.4" y1="600.4" x2="1114.0" y2="600.4"/>
</g>
<circle cx="1115.8" cy="593.0" r="7" fill="#059669" stroke="#fff" stroke-width="2"/>
<circle cx="1114.0" cy="583.0" r="7" fill="#059669" stroke="#fff" stroke-width="2"/>
<circle cx="1105.0" cy="583.4" r="7" fill="#059669" stroke="#fff" stroke-width="2"/>
<circle cx="1107.7" cy="591.4" r="7" fill="#059669" stroke="#fff" stroke-width="2"/>
<g transform="translate(20,702)">
<circle cx="6" cy="-4" r="6" fill="#059669"/><text x="18" y="0" class="su">시작 지점</text>
<rect x="88" y="-10" width="13" height="13" rx="3" fill="#2563EB"/><text x="108" y="0" class="su">출구 (도착 레벨 표시)</text>
<line x1="270" y1="-4" x2="308.2" y2="-4" stroke="#0F172A" stroke-width="2"/>
<text x="316.2" y="0" class="su">10 m</text>
</g></svg>