<svg xmlns="http://www.w3.org/2000/svg" viewBox="0 0 1200 418">
<style>
.ti{font-family:Orbitron,monospace;font-size:14px;font-weight:700;fill:#0F172A}
.su{font-family:monospace;font-size:11px;fill:#475569}
.fl{font-family:Orbitron,monospace;font-size:11px;font-weight:700;fill:#2563EB}
.mk{font-family:Rajdhani,sans-serif;font-size:11px;font-weight:700;fill:#0F172A}
</style>
<rect x="0" y="0" width="1200" height="418" fill="#F8FAFC"/>
<text x="20" y="26" class="ti">LEVEL 188 — 안뜰</text>
<text x="20" y="45" class="su">위험도 3 · 목표 8:00 · 맵 8개</text>
<text x="12.0" y="60" class="fl">1층 / 6 &#183; Z -31~-25 m</text>
<g stroke="#0F172A" stroke-opacity=".82" stroke-width="1.40" stroke-linecap="square">
<line x1="118.1" y1="190.5" x2="113.6" y2="190.5"/>
<line x1="110.1" y1="190.5" x2="105.5" y2="190.5"/>
<line x1="102.1" y1="190.5" x2="97.5" y2="190.5"/>
<line x1="110.1" y1="190.5" x2="105.5" y2="190.5"/>
<line x1="102.1" y1="190.5" x2="97.5" y2="190.5"/>
<line x1="126.1" y1="190.5" x2="121.6" y2="190.5"/>
<line x1="134.2" y1="190.5" x2="129.6" y2="190.5"/>
<line x1="142.2" y1="190.5" x2="137.6" y2="190.5"/>
<line x1="150.2" y1="190.5" x2="145.6" y2="190.5"/>
<line x1="142.2" y1="190.5" x2="137.6" y2="190.5"/>
<line x1="150.2" y1="190.5" x2="145.6" y2="190.5"/>
<line x1="118.1" y1="190.5" x2="113.6" y2="190.5"/>
<line x1="126.1" y1="190.5" x2="121.6" y2="190.5"/>
<line x1="134.2" y1="190.5" x2="129.6" y2="190.5"/>
<line x1="102.1" y1="190.5" x2="97.5" y2="190.5"/>
<line x1="94.1" y1="190.5" x2="89.5" y2="190.5"/>
<line x1="102.7" y1="188.0" x2="102.7" y2="192.6"/>
<line x1="100.4" y1="206.3" x2="105.0" y2="206.3"/>
<line x1="102.7" y1="196.0" x2="102.7" y2="200.6"/>
<line x1="102.7" y1="204.0" x2="102.7" y2="208.6"/>
<line x1="102.7" y1="204.0" x2="102.7" y2="208.6"/>
<line x1="102.7" y1="212.1" x2="102.7" y2="216.6"/>
<line x1="102.7" y1="212.1" x2="102.7" y2="216.6"/>
<line x1="102.7" y1="220.1" x2="102.7" y2="224.6"/>
<line x1="102.7" y1="220.1" x2="102.7" y2="224.6"/>
<line x1="100.5" y1="230.2" x2="105.1" y2="230.2"/>
<line x1="100.5" y1="230.2" x2="105.1" y2="230.2"/>
<line x1="108.5" y1="230.2" x2="113.1" y2="230.2"/>
<line x1="108.5" y1="230.2" x2="113.1" y2="230.2"/>
<line x1="116.5" y1="230.2" x2="121.1" y2="230.2"/>
<line x1="116.5" y1="230.2" x2="121.1" y2="230.2"/>
<line x1="124.5" y1="230.2" x2="129.1" y2="230.2"/>
<line x1="124.5" y1="230.2" x2="129.1" y2="230.2"/>
<line x1="132.5" y1="230.2" x2="137.1" y2="230.2"/>
<line x1="132.5" y1="230.2" x2="137.1" y2="230.2"/>
<line x1="140.5" y1="230.2" x2="145.1" y2="230.2"/>
<line x1="140.5" y1="230.2" x2="145.1" y2="230.2"/>
<line x1="152.5" y1="192.8" x2="152.5" y2="188.2"/>
<line x1="152.5" y1="192.8" x2="152.5" y2="188.2"/>
<line x1="152.5" y1="200.8" x2="152.5" y2="196.2"/>
<line x1="152.5" y1="200.8" x2="152.5" y2="196.2"/>
<line x1="152.5" y1="207.8" x2="152.5" y2="203.2"/>
<line x1="152.5" y1="208.8" x2="152.5" y2="204.2"/>
<line x1="152.5" y1="214.2" x2="152.5" y2="209.6"/>
<line x1="152.5" y1="216.8" x2="152.5" y2="212.2"/>
<line x1="152.5" y1="220.5" x2="152.5" y2="215.9"/>
<line x1="152.5" y1="228.5" x2="152.5" y2="223.9"/>
<line x1="152.5" y1="224.8" x2="152.5" y2="220.3"/>
<line x1="148.6" y1="230.2" x2="153.1" y2="230.2"/>
<line x1="148.6" y1="230.2" x2="153.1" y2="230.2"/>
<line x1="154.9" y1="206.2" x2="150.3" y2="206.2"/>
<line x1="148.6" y1="230.2" x2="153.1" y2="230.2"/>
<line x1="86.1" y1="190.5" x2="81.5" y2="190.5"/>
<line x1="92.4" y1="206.3" x2="97.0" y2="206.3"/>
<line x1="84.4" y1="206.3" x2="89.0" y2="206.3"/>
<line x1="78.9" y1="207.1" x2="78.9" y2="211.7"/>
<line x1="78.6" y1="189.7" x2="78.6" y2="185.1"/>
<line x1="78.9" y1="193.2" x2="78.9" y2="197.8"/>
<line x1="78.9" y1="199.7" x2="78.9" y2="203.1"/>
<line x1="78.6" y1="203.7" x2="78.6" y2="199.1"/>
<line x1="78.5" y1="197.3" x2="78.5" y2="193.9"/>
<line x1="100.4" y1="230.2" x2="105.0" y2="230.2"/>
<line x1="108.5" y1="230.2" x2="113.0" y2="230.2"/>
<line x1="116.5" y1="230.2" x2="121.1" y2="230.2"/>
<line x1="124.5" y1="230.2" x2="129.1" y2="230.2"/>
<line x1="132.5" y1="230.2" x2="137.1" y2="230.2"/>
<line x1="140.6" y1="230.2" x2="145.1" y2="230.2"/>
<line x1="102.7" y1="203.5" x2="102.7" y2="208.3"/>
<line x1="102.7" y1="211.8" x2="102.7" y2="216.5"/>
<line x1="102.7" y1="220.1" x2="102.7" y2="224.8"/>
<line x1="152.5" y1="232.8" x2="152.5" y2="228.1"/>
<line x1="152.5" y1="224.7" x2="152.5" y2="220.0"/>
<line x1="152.5" y1="216.6" x2="152.5" y2="211.9"/>
<line x1="105.0" y1="206.2" x2="100.3" y2="206.2"/>
<line x1="113.1" y1="206.2" x2="108.5" y2="206.2"/>
<line x1="121.1" y1="206.2" x2="116.5" y2="206.2"/>
<line x1="129.1" y1="206.2" x2="124.5" y2="206.2"/>
<line x1="137.1" y1="206.2" x2="132.5" y2="206.2"/>
<line x1="145.1" y1="206.2" x2="140.5" y2="206.2"/>
<line x1="98.7" y1="230.2" x2="103.3" y2="230.2"/>
<line x1="98.8" y1="230.2" x2="103.3" y2="230.2"/>
<line x1="98.8" y1="230.2" x2="103.3" y2="230.2"/>
<line x1="170.4" y1="201.7" x2="170.4" y2="199.7"/>
<line x1="172.4" y1="199.2" x2="168.5" y2="199.2"/>
<line x1="172.3" y1="200.7" x2="168.5" y2="200.7"/>
<line x1="98.3" y1="203.0" x2="93.7" y2="203.0"/>
<line x1="87.1" y1="192.7" x2="82.5" y2="192.7"/>
<line x1="87.1" y1="203.7" x2="82.5" y2="203.7"/>
<line x1="98.3" y1="192.7" x2="93.7" y2="192.7"/>
<line x1="163.5" y1="276.4" x2="168.1" y2="276.4"/>
<line x1="156.8" y1="186.3" x2="156.8" y2="190.9"/>
<line x1="167.9" y1="164.8" x2="167.9" y2="160.2"/>
<line x1="163.0" y1="164.8" x2="163.0" y2="160.2"/>
<line x1="160.3" y1="165.6" x2="155.7" y2="165.6"/>
<line x1="160.3" y1="175.0" x2="155.7" y2="175.0"/>
<line x1="160.3" y1="184.2" x2="155.7" y2="184.2"/>
<line x1="162.3" y1="195.6" x2="157.7" y2="195.6"/>
<line x1="162.3" y1="191.8" x2="157.7" y2="191.8"/>
<line x1="156.6" y1="199.1" x2="152.0" y2="199.1"/>
<line x1="156.9" y1="201.1" x2="156.9" y2="196.5"/>
<line x1="154.0" y1="222.8" x2="154.0" y2="227.4"/>
<line x1="156.8" y1="223.2" x2="156.8" y2="227.8"/>
<line x1="162.3" y1="232.5" x2="157.7" y2="232.5"/>
<line x1="162.3" y1="228.7" x2="157.8" y2="228.7"/>
<line x1="169.0" y1="238.0" x2="169.0" y2="233.5"/>
<line x1="163.5" y1="228.7" x2="168.1" y2="228.7"/>
<line x1="163.5" y1="232.6" x2="168.1" y2="232.6"/>
<line x1="170.4" y1="225.5" x2="174.9" y2="225.5"/>
<line x1="172.7" y1="217.4" x2="172.7" y2="212.8"/>
<line x1="166.9" y1="213.3" x2="171.8" y2="213.3"/>
<line x1="167.8" y1="201.1" x2="167.8" y2="196.5"/>
<line x1="163.5" y1="267.3" x2="168.1" y2="267.3"/>
<line x1="163.5" y1="191.8" x2="168.1" y2="191.8"/>
<line x1="163.5" y1="195.6" x2="168.1" y2="195.6"/>
<line x1="161.3" y1="162.4" x2="156.8" y2="162.4"/>
<line x1="163.5" y1="258.2" x2="168.1" y2="258.2"/>
<line x1="163.5" y1="249.1" x2="168.1" y2="249.1"/>
<line x1="156.8" y1="243.6" x2="156.8" y2="248.2"/>
<line x1="162.3" y1="267.3" x2="157.8" y2="267.3"/>
<line x1="162.3" y1="258.2" x2="157.8" y2="258.2"/>
<line x1="162.3" y1="249.1" x2="157.8" y2="249.1"/>
<line x1="158.6" y1="237.9" x2="158.6" y2="242.4"/>
<line x1="167.2" y1="243.7" x2="167.2" y2="239.2"/>
<line x1="167.9" y1="183.2" x2="167.9" y2="176.3"/>
<line x1="167.9" y1="190.1" x2="167.9" y2="183.2"/>
<line x1="167.9" y1="176.3" x2="167.9" y2="169.5"/>
<line x1="102.8" y1="204.0" x2="102.8" y2="208.5"/>
<line x1="116.5" y1="204.0" x2="116.5" y2="208.5"/>
<line x1="123.4" y1="204.0" x2="123.4" y2="208.5"/>
<line x1="137.1" y1="204.0" x2="137.1" y2="208.5"/>
<line x1="144.0" y1="204.0" x2="144.0" y2="208.5"/>
</g>
<rect x="63.3" y="191.1" width="15" height="15" rx="3" fill="#2563EB" stroke="#fff" stroke-width="2"/>
<text x="70.8" y="186.6" class="mk" text-anchor="middle">LevelCheat</text>
<rect x="191.3" y="237.7" width="15" height="15" rx="3" fill="#2563EB" stroke="#fff" stroke-width="2"/>
<text x="198.8" y="233.2" class="mk" text-anchor="middle">허브</text>
<rect x="155.5" y="260.7" width="15" height="15" rx="3" fill="#2563EB" stroke="#fff" stroke-width="2"/>
<text x="163.0" y="256.2" class="mk" text-anchor="middle">Level !-!</text>
<circle cx="162.9" cy="191.5" r="7" fill="#059669" stroke="#fff" stroke-width="2"/>
<circle cx="164.4" cy="252.9" r="7" fill="#059669" stroke="#fff" stroke-width="2"/>
<circle cx="162.0" cy="252.1" r="7" fill="#059669" stroke="#fff" stroke-width="2"/>
<circle cx="163.9" cy="249.8" r="7" fill="#059669" stroke="#fff" stroke-width="2"/>
<circle cx="161.5" cy="249.0" r="7" fill="#059669" stroke="#fff" stroke-width="2"/>
<circle cx="81.7" cy="200.4" r="7" fill="#059669" stroke="#fff" stroke-width="2"/>
<circle cx="87.0" cy="195.9" r="7" fill="#059669" stroke="#fff" stroke-width="2"/>
<circle cx="85.9" cy="200.4" r="7" fill="#059669" stroke="#fff" stroke-width="2"/>
<circle cx="82.7" cy="195.9" r="7" fill="#059669" stroke="#fff" stroke-width="2"/>
<line x1="200.0" y1="58" x2="200.0" y2="410.0" stroke="#CBD5E1"/>
<text x="212.0" y="60" class="fl">2층 / 6 &#183; Z -5~-1 m</text>
<g stroke="#0F172A" stroke-opacity=".82" stroke-width="1.40" stroke-linecap="square">
<line x1="322.2" y1="152.8" x2="316.7" y2="154.3"/>
<line x1="331.9" y1="150.2" x2="326.3" y2="151.7"/>
<line x1="341.5" y1="147.6" x2="336.0" y2="149.1"/>
<line x1="322.2" y1="152.8" x2="316.7" y2="154.3"/>
<line x1="331.9" y1="150.2" x2="326.3" y2="151.7"/>
<line x1="341.5" y1="147.6" x2="336.0" y2="149.1"/>
<line x1="351.2" y1="145.0" x2="345.7" y2="146.5"/>
<line x1="351.2" y1="145.0" x2="345.7" y2="146.5"/>
<line x1="293.2" y1="160.6" x2="287.6" y2="162.0"/>
<line x1="302.8" y1="158.0" x2="297.3" y2="159.4"/>
<line x1="312.5" y1="155.4" x2="307.0" y2="156.9"/>
<line x1="293.2" y1="160.6" x2="287.6" y2="162.0"/>
<line x1="302.8" y1="158.0" x2="297.3" y2="159.4"/>
<line x1="312.5" y1="155.4" x2="307.0" y2="156.9"/>
<line x1="347.1" y1="207.9" x2="352.8" y2="207.9"/>
<line x1="347.1" y1="207.9" x2="352.8" y2="207.9"/>
<line x1="353.0" y1="145.7" x2="347.3" y2="145.7"/>
<line x1="353.0" y1="145.7" x2="347.3" y2="145.7"/>
<line x1="351.0" y1="145.7" x2="345.3" y2="145.7"/>
<line x1="351.0" y1="145.7" x2="345.3" y2="145.7"/>
<line x1="280.9" y1="191.0" x2="280.9" y2="196.7"/>
<line x1="280.9" y1="181.0" x2="280.9" y2="186.7"/>
<line x1="280.9" y1="171.0" x2="280.9" y2="176.7"/>
<line x1="280.9" y1="160.9" x2="280.9" y2="166.7"/>
<line x1="280.9" y1="201.0" x2="280.9" y2="206.7"/>
<line x1="280.9" y1="190.9" x2="280.9" y2="196.7"/>
<line x1="280.9" y1="180.9" x2="280.9" y2="186.6"/>
<line x1="280.9" y1="170.9" x2="280.9" y2="176.6"/>
<line x1="280.9" y1="160.9" x2="280.9" y2="166.6"/>
<line x1="280.9" y1="201.0" x2="280.9" y2="206.7"/>
<line x1="307.2" y1="211.7" x2="312.9" y2="211.2"/>
<line x1="297.2" y1="212.6" x2="302.9" y2="212.1"/>
<line x1="287.2" y1="213.4" x2="292.9" y2="212.9"/>
<line x1="277.2" y1="214.3" x2="282.9" y2="213.8"/>
<line x1="337.1" y1="209.1" x2="342.8" y2="208.6"/>
<line x1="307.2" y1="211.7" x2="312.9" y2="211.2"/>
<line x1="297.2" y1="212.6" x2="302.9" y2="212.1"/>
<line x1="287.2" y1="213.4" x2="292.9" y2="212.9"/>
<line x1="277.2" y1="214.3" x2="282.9" y2="213.8"/>
<line x1="327.1" y1="209.9" x2="332.8" y2="209.4"/>
<line x1="317.2" y1="210.8" x2="322.9" y2="210.3"/>
<line x1="337.1" y1="209.1" x2="342.8" y2="208.6"/>
<line x1="327.1" y1="209.9" x2="332.8" y2="209.4"/>
<line x1="317.2" y1="210.8" x2="322.9" y2="210.3"/>
<line x1="219.3" y1="351.0" x2="219.3" y2="354.1"/>
<line x1="219.3" y1="341.7" x2="219.3" y2="344.8"/>
<line x1="219.3" y1="359.7" x2="219.3" y2="363.9"/>
<line x1="363.6" y1="191.5" x2="357.9" y2="191.5"/>
<line x1="363.6" y1="191.5" x2="357.9" y2="191.5"/>
<line x1="380.8" y1="191.5" x2="375.1" y2="191.5"/>
<line x1="357.9" y1="161.5" x2="363.6" y2="161.5"/>
<line x1="375.1" y1="161.5" x2="380.8" y2="161.5"/>
<line x1="380.8" y1="191.5" x2="375.1" y2="191.5"/>
<line x1="358.3" y1="161.5" x2="363.2" y2="161.5"/>
<line x1="375.1" y1="161.5" x2="380.8" y2="161.5"/>
<line x1="357.1" y1="207.9" x2="362.8" y2="207.9"/>
<line x1="357.1" y1="207.9" x2="362.8" y2="207.9"/>
<line x1="367.1" y1="207.9" x2="372.8" y2="207.9"/>
<line x1="367.1" y1="207.9" x2="372.8" y2="207.9"/>
<line x1="363.1" y1="145.7" x2="357.3" y2="145.7"/>
<line x1="373.1" y1="145.7" x2="367.4" y2="145.7"/>
<line x1="363.1" y1="145.7" x2="357.3" y2="145.7"/>
<line x1="373.1" y1="145.7" x2="367.4" y2="145.7"/>
<line x1="369.2" y1="205.1" x2="369.2" y2="210.9"/>
<line x1="369.2" y1="195.1" x2="369.2" y2="200.8"/>
<line x1="369.2" y1="158.7" x2="369.2" y2="164.4"/>
<line x1="369.2" y1="148.8" x2="369.2" y2="154.5"/>
<line x1="369.2" y1="205.1" x2="369.2" y2="210.9"/>
<line x1="369.2" y1="195.1" x2="369.2" y2="200.8"/>
<line x1="369.2" y1="158.7" x2="369.2" y2="164.4"/>
<line x1="369.2" y1="148.8" x2="369.2" y2="154.5"/>
<line x1="361.7" y1="188.7" x2="361.7" y2="194.4"/>
<line x1="361.7" y1="168.6" x2="361.7" y2="174.3"/>
<line x1="368.7" y1="194.4" x2="368.7" y2="188.7"/>
<line x1="361.7" y1="178.6" x2="361.7" y2="184.4"/>
<line x1="368.7" y1="174.3" x2="368.7" y2="168.6"/>
<line x1="360.7" y1="174.4" x2="360.7" y2="168.7"/>
<line x1="380.0" y1="150.7" x2="380.0" y2="145.0"/>
<line x1="380.0" y1="210.8" x2="380.0" y2="205.1"/>
<line x1="380.0" y1="190.8" x2="380.0" y2="185.0"/>
<line x1="380.0" y1="180.7" x2="380.0" y2="175.0"/>
<line x1="380.0" y1="170.7" x2="380.0" y2="165.0"/>
<line x1="380.0" y1="160.7" x2="380.0" y2="155.0"/>
<line x1="380.0" y1="150.7" x2="380.0" y2="145.0"/>
<line x1="380.0" y1="210.8" x2="380.0" y2="205.1"/>
<line x1="380.0" y1="200.8" x2="380.0" y2="195.1"/>
<line x1="380.0" y1="200.8" x2="380.0" y2="195.1"/>
<line x1="380.0" y1="190.8" x2="380.0" y2="185.0"/>
<line x1="380.0" y1="180.7" x2="380.0" y2="175.0"/>
<line x1="380.0" y1="170.7" x2="380.0" y2="165.0"/>
<line x1="380.0" y1="160.7" x2="380.0" y2="155.0"/>
<line x1="360.7" y1="174.4" x2="360.7" y2="168.7"/>
<line x1="360.7" y1="164.4" x2="360.7" y2="158.7"/>
<line x1="360.7" y1="164.4" x2="360.7" y2="158.7"/>
<line x1="360.7" y1="184.4" x2="360.7" y2="178.7"/>
<line x1="360.7" y1="184.4" x2="360.7" y2="178.7"/>
<line x1="267.4" y1="203.6" x2="273.1" y2="203.6"/>
<line x1="368.7" y1="184.4" x2="368.7" y2="178.6"/>
</g>
<circle cx="221.9" cy="352.9" r="7" fill="#059669" stroke="#fff" stroke-width="2"/>
<circle cx="220.0" cy="355.1" r="7" fill="#059669" stroke="#fff" stroke-width="2"/>
<circle cx="220.0" cy="352.9" r="7" fill="#059669" stroke="#fff" stroke-width="2"/>
<circle cx="221.9" cy="355.1" r="7" fill="#059669" stroke="#fff" stroke-width="2"/>
<line x1="400.0" y1="58" x2="400.0" y2="410.0" stroke="#CBD5E1"/>
<text x="412.0" y="60" class="fl">3층 / 6 &#183; Z 2~3 m</text>
<g stroke="#0F172A" stroke-opacity=".82" stroke-width="1.40" stroke-linecap="square">
<line x1="522.2" y1="152.8" x2="516.7" y2="154.3"/>
<line x1="531.9" y1="150.2" x2="526.3" y2="151.7"/>
<line x1="541.5" y1="147.6" x2="536.0" y2="149.1"/>
<line x1="551.2" y1="145.0" x2="545.7" y2="146.5"/>
<line x1="493.2" y1="160.6" x2="487.6" y2="162.0"/>
<line x1="502.8" y1="158.0" x2="497.3" y2="159.4"/>
<line x1="512.5" y1="155.4" x2="507.0" y2="156.9"/>
<line x1="547.0" y1="207.9" x2="552.9" y2="207.9"/>
<line x1="553.1" y1="145.7" x2="547.2" y2="145.7"/>
<line x1="551.0" y1="145.7" x2="545.3" y2="145.7"/>
<line x1="480.9" y1="191.0" x2="480.9" y2="196.7"/>
<line x1="480.9" y1="180.9" x2="480.9" y2="186.7"/>
<line x1="480.9" y1="171.0" x2="480.9" y2="176.7"/>
<line x1="480.9" y1="160.9" x2="480.9" y2="166.7"/>
<line x1="480.9" y1="201.0" x2="480.9" y2="206.7"/>
<line x1="507.2" y1="211.7" x2="512.9" y2="211.2"/>
<line x1="497.2" y1="212.6" x2="502.9" y2="212.1"/>
<line x1="487.2" y1="213.4" x2="492.9" y2="212.9"/>
<line x1="477.2" y1="214.3" x2="482.9" y2="213.8"/>
<line x1="537.1" y1="209.1" x2="542.8" y2="208.6"/>
<line x1="527.1" y1="209.9" x2="532.8" y2="209.4"/>
<line x1="517.2" y1="210.8" x2="522.9" y2="210.3"/>
<line x1="557.7" y1="145.4" x2="563.2" y2="145.4"/>
<line x1="563.8" y1="119.7" x2="559.2" y2="119.6"/>
<line x1="467.2" y1="230.9" x2="467.2" y2="226.4"/>
<line x1="556.5" y1="111.6" x2="553.3" y2="114.8"/>
<line x1="562.2" y1="112.8" x2="565.3" y2="109.4"/>
<line x1="567.3" y1="119.6" x2="570.9" y2="116.8"/>
<line x1="450.9" y1="148.5" x2="450.9" y2="153.1"/>
<line x1="480.2" y1="238.3" x2="480.2" y2="233.7"/>
<line x1="458.2" y1="233.8" x2="458.2" y2="238.3"/>
<line x1="564.1" y1="216.9" x2="559.5" y2="216.9"/>
<line x1="564.1" y1="225.7" x2="559.5" y2="225.7"/>
<line x1="551.4" y1="230.6" x2="551.4" y2="226.8"/>
<line x1="568.3" y1="124.0" x2="568.4" y2="119.4"/>
<line x1="503.1" y1="231.0" x2="503.1" y2="226.4"/>
<line x1="511.2" y1="230.8" x2="511.2" y2="226.3"/>
<line x1="523.0" y1="231.0" x2="523.1" y2="226.4"/>
<line x1="490.4" y1="230.9" x2="490.4" y2="226.4"/>
<line x1="475.9" y1="230.9" x2="475.9" y2="226.4"/>
<line x1="457.8" y1="185.1" x2="453.2" y2="185.1"/>
<line x1="457.8" y1="190.6" x2="453.2" y2="190.6"/>
<line x1="457.8" y1="204.2" x2="453.2" y2="204.2"/>
<line x1="559.9" y1="121.4" x2="564.5" y2="121.4"/>
<line x1="569.8" y1="121.4" x2="565.3" y2="121.4"/>
<line x1="454.5" y1="148.5" x2="454.5" y2="153.1"/>
<line x1="454.6" y1="204.0" x2="454.7" y2="207.3"/>
<line x1="461.7" y1="204.1" x2="466.3" y2="204.1"/>
<line x1="461.7" y1="217.8" x2="466.3" y2="217.8"/>
<line x1="461.7" y1="187.6" x2="466.3" y2="187.6"/>
<line x1="461.7" y1="195.7" x2="466.3" y2="195.7"/>
<line x1="461.7" y1="226.9" x2="466.3" y2="226.9"/>
<line x1="461.7" y1="174.0" x2="466.3" y2="174.0"/>
<line x1="461.7" y1="164.8" x2="466.3" y2="164.8"/>
<line x1="460.2" y1="226.0" x2="455.6" y2="226.0"/>
<line x1="460.2" y1="216.9" x2="455.6" y2="216.9"/>
<line x1="460.2" y1="207.8" x2="455.6" y2="207.8"/>
<line x1="460.2" y1="173.8" x2="455.6" y2="173.8"/>
<line x1="460.2" y1="164.7" x2="455.6" y2="164.7"/>
<line x1="460.2" y1="158.5" x2="455.6" y2="158.5"/>
<line x1="461.7" y1="155.7" x2="466.3" y2="155.7"/>
<line x1="485.7" y1="142.7" x2="487.0" y2="147.1"/>
<line x1="481.4" y1="144.0" x2="482.7" y2="148.4"/>
<line x1="477.1" y1="145.3" x2="478.3" y2="149.7"/>
<line x1="472.7" y1="146.5" x2="474.0" y2="150.9"/>
<line x1="468.4" y1="147.7" x2="469.6" y2="152.1"/>
<line x1="463.4" y1="148.9" x2="464.6" y2="153.4"/>
<line x1="480.6" y1="232.3" x2="480.6" y2="237.0"/>
<line x1="480.4" y1="230.9" x2="480.4" y2="226.4"/>
<line x1="531.2" y1="231.1" x2="531.2" y2="226.5"/>
<line x1="534.8" y1="232.1" x2="534.8" y2="236.7"/>
<line x1="526.7" y1="232.1" x2="526.7" y2="236.7"/>
<line x1="513.7" y1="135.1" x2="514.9" y2="139.6"/>
<line x1="521.6" y1="133.1" x2="522.7" y2="137.5"/>
<line x1="533.2" y1="129.9" x2="534.7" y2="134.3"/>
<line x1="494.4" y1="140.2" x2="495.6" y2="144.6"/>
<line x1="501.9" y1="138.2" x2="503.1" y2="142.6"/>
<line x1="527.5" y1="130.0" x2="526.3" y2="125.6"/>
<line x1="533.6" y1="128.4" x2="532.4" y2="124.0"/>
<line x1="509.4" y1="134.9" x2="508.2" y2="130.5"/>
<line x1="517.0" y1="132.9" x2="515.8" y2="128.4"/>
<line x1="489.9" y1="140.2" x2="488.7" y2="135.7"/>
<line x1="497.5" y1="138.1" x2="496.3" y2="133.7"/>
<line x1="514.7" y1="232.2" x2="514.7" y2="236.8"/>
<line x1="477.8" y1="143.4" x2="476.6" y2="139.0"/>
<line x1="473.4" y1="144.6" x2="472.2" y2="140.2"/>
<line x1="469.1" y1="145.8" x2="467.9" y2="141.3"/>
<line x1="506.6" y1="232.3" x2="506.6" y2="236.9"/>
<line x1="494.4" y1="232.3" x2="494.4" y2="236.9"/>
<line x1="487.8" y1="232.3" x2="487.8" y2="236.9"/>
<line x1="483.5" y1="232.8" x2="483.5" y2="236.6"/>
<line x1="460.0" y1="153.9" x2="455.4" y2="153.9"/>
<line x1="544.0" y1="231.0" x2="544.0" y2="226.5"/>
<line x1="558.6" y1="230.6" x2="558.6" y2="226.8"/>
<line x1="555.2" y1="232.1" x2="555.2" y2="236.7"/>
<line x1="547.1" y1="232.1" x2="547.1" y2="236.7"/>
<line x1="563.4" y1="233.3" x2="563.4" y2="235.7"/>
<line x1="567.4" y1="236.2" x2="571.6" y2="236.0"/>
<line x1="460.2" y1="177.4" x2="455.6" y2="177.4"/>
<line x1="554.1" y1="230.6" x2="554.1" y2="226.8"/>
<line x1="564.1" y1="208.2" x2="559.5" y2="208.2"/>
<line x1="565.8" y1="216.8" x2="570.4" y2="216.8"/>
<line x1="571.3" y1="219.5" x2="571.3" y2="217.2"/>
<line x1="576.5" y1="219.5" x2="576.5" y2="217.2"/>
<line x1="464.1" y1="147.0" x2="464.2" y2="142.4"/>
<line x1="573.8" y1="232.9" x2="578.4" y2="232.9"/>
<line x1="573.8" y1="225.7" x2="578.4" y2="225.7"/>
<line x1="571.3" y1="232.4" x2="573.1" y2="236.6"/>
<line x1="456.3" y1="146.8" x2="456.4" y2="142.3"/>
<line x1="447.4" y1="148.5" x2="447.4" y2="153.1"/>
<line x1="535.6" y1="130.0" x2="539.3" y2="132.6"/>
<line x1="540.7" y1="122.8" x2="544.4" y2="125.5"/>
<line x1="545.8" y1="115.6" x2="549.5" y2="118.3"/>
<line x1="550.2" y1="106.0" x2="546.5" y2="103.3"/>
<line x1="544.9" y1="113.4" x2="541.2" y2="110.7"/>
<line x1="539.6" y1="120.8" x2="535.9" y2="118.1"/>
<line x1="557.1" y1="107.3" x2="557.1" y2="102.8"/>
<line x1="550.3" y1="110.9" x2="550.4" y2="115.5"/>
<line x1="567.7" y1="175.8" x2="567.7" y2="171.2"/>
<line x1="568.2" y1="169.5" x2="568.2" y2="176.4"/>
<line x1="567.7" y1="183.0" x2="567.7" y2="178.4"/>
<line x1="568.2" y1="162.5" x2="568.2" y2="169.4"/>
<line x1="527.5" y1="134.2" x2="531.9" y2="133.0"/>
<line x1="507.8" y1="139.4" x2="512.2" y2="138.2"/>
<line x1="488.5" y1="144.5" x2="492.9" y2="143.3"/>
<line x1="522.9" y1="128.6" x2="518.5" y2="129.8"/>
<line x1="503.4" y1="133.8" x2="499.0" y2="134.9"/>
<line x1="483.6" y1="139.0" x2="479.1" y2="140.2"/>
<line x1="464.4" y1="210.9" x2="464.4" y2="206.3"/>
<line x1="464.4" y1="180.8" x2="464.4" y2="176.2"/>
<line x1="497.2" y1="228.3" x2="492.6" y2="228.3"/>
<line x1="517.6" y1="228.3" x2="513.0" y2="228.3"/>
<line x1="537.5" y1="228.4" x2="532.9" y2="228.4"/>
<line x1="500.1" y1="235.0" x2="504.7" y2="235.0"/>
<line x1="520.0" y1="234.9" x2="524.6" y2="234.9"/>
<line x1="540.4" y1="234.9" x2="545.0" y2="234.8"/>
<line x1="448.4" y1="143.0" x2="448.5" y2="147.6"/>
<line x1="563.1" y1="236.1" x2="567.6" y2="236.1"/>
<line x1="450.8" y1="149.9" x2="446.3" y2="150.0"/>
<line x1="450.7" y1="140.8" x2="446.1" y2="140.8"/>
<line x1="455.0" y1="178.3" x2="455.0" y2="182.9"/>
<line x1="455.0" y1="197.4" x2="455.0" y2="202.0"/>
<line x1="437.2" y1="129.2" x2="441.8" y2="129.2"/>
<line x1="427.0" y1="159.0" x2="431.6" y2="159.0"/>
<line x1="434.3" y1="122.7" x2="438.9" y2="122.7"/>
<line x1="563.6" y1="191.6" x2="557.9" y2="191.6"/>
<line x1="580.8" y1="191.5" x2="575.1" y2="191.5"/>
<line x1="557.9" y1="161.5" x2="563.6" y2="161.5"/>
<line x1="575.1" y1="161.5" x2="580.8" y2="161.5"/>
<line x1="557.4" y1="207.9" x2="562.9" y2="207.9"/>
<line x1="557.4" y1="208.3" x2="562.9" y2="208.3"/>
<line x1="568.1" y1="207.9" x2="573.8" y2="207.9"/>
<line x1="563.2" y1="145.7" x2="557.7" y2="145.7"/>
<line x1="573.0" y1="145.7" x2="567.3" y2="145.7"/>
<line x1="568.4" y1="148.6" x2="568.4" y2="142.9"/>
<line x1="568.4" y1="159.6" x2="568.4" y2="151.9"/>
<line x1="569.2" y1="205.1" x2="569.2" y2="210.9"/>
<line x1="569.2" y1="195.1" x2="569.2" y2="200.8"/>
<line x1="569.2" y1="158.7" x2="569.2" y2="164.4"/>
<line x1="569.2" y1="149.9" x2="569.2" y2="153.3"/>
<line x1="557.9" y1="190.9" x2="563.6" y2="190.9"/>
<line x1="563.6" y1="162.0" x2="557.9" y2="162.0"/>
<line x1="561.7" y1="188.7" x2="561.7" y2="194.4"/>
<line x1="561.7" y1="178.6" x2="561.7" y2="184.4"/>
<line x1="561.7" y1="168.6" x2="561.7" y2="174.3"/>
<line x1="568.7" y1="194.4" x2="568.7" y2="188.7"/>
<line x1="568.4" y1="204.4" x2="568.4" y2="198.7"/>
<line x1="580.0" y1="210.8" x2="580.0" y2="205.1"/>
<line x1="580.0" y1="200.8" x2="580.0" y2="195.1"/>
<line x1="568.4" y1="209.9" x2="568.4" y2="206.6"/>
<line x1="580.0" y1="190.8" x2="580.0" y2="185.0"/>
<line x1="580.0" y1="180.7" x2="580.0" y2="175.0"/>
<line x1="580.0" y1="170.7" x2="580.0" y2="165.0"/>
<line x1="580.0" y1="160.7" x2="580.0" y2="155.0"/>
<line x1="580.0" y1="150.7" x2="580.0" y2="145.0"/>
<line x1="568.4" y1="208.7" x2="568.4" y2="202.9"/>
<line x1="568.7" y1="176.0" x2="568.7" y2="174.0"/>
<line x1="568.7" y1="182.2" x2="568.7" y2="180.8"/>
<line x1="568.7" y1="166.2" x2="568.7" y2="164.1"/>
<line x1="560.7" y1="174.4" x2="560.7" y2="168.7"/>
<line x1="560.7" y1="184.4" x2="560.7" y2="178.7"/>
<line x1="560.7" y1="164.4" x2="560.7" y2="158.7"/>
<line x1="559.1" y1="161.8" x2="564.8" y2="161.8"/>
<line x1="559.1" y1="153.6" x2="564.8" y2="153.6"/>
<line x1="559.0" y1="208.2" x2="564.8" y2="208.2"/>
<line x1="559.0" y1="199.6" x2="564.8" y2="199.6"/>
</g>
<circle cx="421.9" cy="352.9" r="7" fill="#059669" stroke="#fff" stroke-width="2"/>
<circle cx="420.0" cy="355.1" r="7" fill="#059669" stroke="#fff" stroke-width="2"/>
<circle cx="420.0" cy="352.9" r="7" fill="#059669" stroke="#fff" stroke-width="2"/>
<circle cx="421.9" cy="355.1" r="7" fill="#059669" stroke="#fff" stroke-width="2"/>
<line x1="600.0" y1="58" x2="600.0" y2="410.0" stroke="#CBD5E1"/>
<text x="612.0" y="60" class="fl">4층 / 6 &#183; Z 6~7 m</text>
<g stroke="#0F172A" stroke-opacity=".82" stroke-width="1.40" stroke-linecap="square">
<line x1="722.2" y1="152.8" x2="716.7" y2="154.3"/>
<line x1="731.9" y1="150.2" x2="726.3" y2="151.7"/>
<line x1="741.5" y1="147.6" x2="736.0" y2="149.1"/>
<line x1="751.2" y1="145.0" x2="745.7" y2="146.5"/>
<line x1="693.2" y1="160.6" x2="687.6" y2="162.0"/>
<line x1="702.8" y1="158.0" x2="697.3" y2="159.4"/>
<line x1="712.5" y1="155.4" x2="707.0" y2="156.9"/>
<line x1="747.0" y1="207.9" x2="752.9" y2="207.9"/>
<line x1="753.2" y1="145.7" x2="747.5" y2="145.7"/>
<line x1="773.1" y1="145.7" x2="767.4" y2="145.7"/>
<line x1="751.0" y1="145.7" x2="745.3" y2="145.7"/>
<line x1="680.9" y1="191.0" x2="680.9" y2="196.7"/>
<line x1="680.9" y1="181.0" x2="680.9" y2="186.7"/>
<line x1="680.9" y1="171.0" x2="680.9" y2="176.7"/>
<line x1="680.9" y1="160.9" x2="680.9" y2="166.7"/>
<line x1="680.9" y1="201.0" x2="680.9" y2="206.7"/>
<line x1="707.2" y1="211.7" x2="712.9" y2="211.2"/>
<line x1="697.2" y1="212.6" x2="702.9" y2="212.1"/>
<line x1="687.2" y1="213.4" x2="692.9" y2="212.9"/>
<line x1="677.2" y1="214.3" x2="682.9" y2="213.8"/>
<line x1="737.1" y1="209.1" x2="742.8" y2="208.6"/>
<line x1="727.1" y1="209.9" x2="732.8" y2="209.4"/>
<line x1="717.2" y1="210.8" x2="722.9" y2="210.3"/>
<line x1="763.6" y1="191.5" x2="757.9" y2="191.5"/>
<line x1="780.8" y1="191.5" x2="775.1" y2="191.5"/>
<line x1="757.9" y1="161.5" x2="763.6" y2="161.5"/>
<line x1="775.1" y1="161.5" x2="780.8" y2="161.5"/>
<line x1="769.2" y1="205.1" x2="769.2" y2="210.9"/>
<line x1="769.2" y1="195.1" x2="769.2" y2="200.8"/>
<line x1="769.2" y1="158.7" x2="769.2" y2="164.4"/>
<line x1="769.2" y1="148.8" x2="769.2" y2="154.5"/>
<line x1="780.0" y1="210.8" x2="780.0" y2="205.1"/>
<line x1="780.0" y1="200.8" x2="780.0" y2="195.1"/>
<line x1="780.0" y1="190.8" x2="780.0" y2="185.0"/>
<line x1="780.0" y1="180.7" x2="780.0" y2="175.0"/>
<line x1="780.0" y1="170.7" x2="780.0" y2="165.0"/>
<line x1="780.0" y1="160.7" x2="780.0" y2="155.0"/>
<line x1="752.9" y1="208.2" x2="747.2" y2="208.7"/>
<line x1="757.3" y1="207.9" x2="763.0" y2="207.9"/>
<line x1="767.1" y1="207.9" x2="772.8" y2="207.9"/>
<line x1="763.2" y1="145.7" x2="757.5" y2="145.7"/>
<line x1="760.7" y1="174.4" x2="760.7" y2="168.7"/>
<line x1="780.0" y1="150.7" x2="780.0" y2="145.0"/>
<line x1="780.0" y1="210.8" x2="780.0" y2="205.1"/>
<line x1="780.0" y1="200.8" x2="780.0" y2="195.1"/>
<line x1="780.0" y1="190.8" x2="780.0" y2="185.0"/>
<line x1="780.0" y1="180.7" x2="780.0" y2="175.0"/>
<line x1="780.0" y1="170.7" x2="780.0" y2="165.0"/>
<line x1="780.0" y1="160.7" x2="780.0" y2="155.0"/>
<line x1="760.7" y1="164.4" x2="760.7" y2="158.7"/>
<line x1="760.7" y1="184.4" x2="760.7" y2="178.7"/>
</g>
<line x1="800.0" y1="58" x2="800.0" y2="410.0" stroke="#CBD5E1"/>
<text x="812.0" y="60" class="fl">5층 / 6 &#183; Z 10~11 m</text>
<g stroke="#0F172A" stroke-opacity=".82" stroke-width="1.40" stroke-linecap="square">
<line x1="937.1" y1="209.1" x2="942.8" y2="208.6"/>
<line x1="927.1" y1="209.9" x2="932.8" y2="209.4"/>
<line x1="917.2" y1="210.8" x2="922.9" y2="210.3"/>
<line x1="922.2" y1="152.8" x2="916.7" y2="154.3"/>
<line x1="931.9" y1="150.2" x2="926.3" y2="151.7"/>
<line x1="941.5" y1="147.6" x2="936.0" y2="149.1"/>
<line x1="951.2" y1="145.0" x2="945.7" y2="146.5"/>
<line x1="893.2" y1="160.6" x2="887.6" y2="162.0"/>
<line x1="902.8" y1="158.0" x2="897.3" y2="159.4"/>
<line x1="912.5" y1="155.4" x2="907.0" y2="156.9"/>
<line x1="880.9" y1="191.0" x2="880.9" y2="196.7"/>
<line x1="880.9" y1="181.0" x2="880.9" y2="186.7"/>
<line x1="880.9" y1="171.0" x2="880.9" y2="176.7"/>
<line x1="880.9" y1="160.9" x2="880.9" y2="166.7"/>
<line x1="880.9" y1="201.0" x2="880.9" y2="206.7"/>
<line x1="947.0" y1="207.9" x2="952.9" y2="207.9"/>
<line x1="953.0" y1="145.7" x2="947.3" y2="145.7"/>
<line x1="973.1" y1="145.7" x2="967.4" y2="145.7"/>
<line x1="951.0" y1="145.7" x2="945.3" y2="145.7"/>
<line x1="907.2" y1="211.7" x2="912.9" y2="211.2"/>
<line x1="897.2" y1="212.6" x2="902.9" y2="212.1"/>
<line x1="887.2" y1="213.4" x2="892.9" y2="212.9"/>
<line x1="877.2" y1="214.3" x2="882.9" y2="213.8"/>
<line x1="963.6" y1="191.5" x2="957.9" y2="191.5"/>
<line x1="980.8" y1="191.5" x2="975.1" y2="191.5"/>
<line x1="958.3" y1="161.5" x2="963.2" y2="161.5"/>
<line x1="975.1" y1="161.5" x2="980.8" y2="161.5"/>
<line x1="957.3" y1="207.9" x2="963.0" y2="207.9"/>
<line x1="963.1" y1="145.7" x2="957.3" y2="145.7"/>
<line x1="973.1" y1="145.7" x2="967.4" y2="145.7"/>
<line x1="969.2" y1="205.1" x2="969.2" y2="210.9"/>
<line x1="969.2" y1="195.1" x2="969.2" y2="200.8"/>
<line x1="969.2" y1="158.7" x2="969.2" y2="164.4"/>
<line x1="969.2" y1="148.8" x2="969.2" y2="154.5"/>
<line x1="961.7" y1="188.7" x2="961.7" y2="194.4"/>
<line x1="961.7" y1="168.6" x2="961.7" y2="174.3"/>
<line x1="968.7" y1="194.4" x2="968.7" y2="188.7"/>
<line x1="961.7" y1="178.6" x2="961.7" y2="184.4"/>
<line x1="968.7" y1="174.3" x2="968.7" y2="168.6"/>
<line x1="980.0" y1="210.8" x2="980.0" y2="205.1"/>
<line x1="980.0" y1="190.8" x2="980.0" y2="185.0"/>
<line x1="980.0" y1="180.7" x2="980.0" y2="175.0"/>
<line x1="980.0" y1="170.7" x2="980.0" y2="165.0"/>
<line x1="980.0" y1="160.7" x2="980.0" y2="155.0"/>
<line x1="980.0" y1="150.7" x2="980.0" y2="145.0"/>
<line x1="980.0" y1="200.8" x2="980.0" y2="195.1"/>
<line x1="867.4" y1="203.6" x2="873.1" y2="203.6"/>
<line x1="968.7" y1="184.4" x2="968.7" y2="178.6"/>
<line x1="967.1" y1="207.9" x2="972.8" y2="207.9"/>
<line x1="980.0" y1="210.8" x2="980.0" y2="205.1"/>
<line x1="980.0" y1="200.8" x2="980.0" y2="195.1"/>
<line x1="980.0" y1="190.8" x2="980.0" y2="185.0"/>
<line x1="980.0" y1="180.7" x2="980.0" y2="175.0"/>
<line x1="980.0" y1="170.7" x2="980.0" y2="165.0"/>
<line x1="980.0" y1="160.7" x2="980.0" y2="155.0"/>
<line x1="960.7" y1="174.4" x2="960.7" y2="168.7"/>
<line x1="960.7" y1="164.4" x2="960.7" y2="158.7"/>
<line x1="960.7" y1="184.4" x2="960.7" y2="178.7"/>
</g>
<line x1="1000.0" y1="58" x2="1000.0" y2="410.0" stroke="#CBD5E1"/>
<text x="1012.0" y="60" class="fl">6층 / 6 &#183; Z 14~14 m</text>
<g stroke="#0F172A" stroke-opacity=".82" stroke-width="1.40" stroke-linecap="square">
<line x1="1107.2" y1="211.7" x2="1112.9" y2="211.2"/>
<line x1="1097.2" y1="212.6" x2="1102.9" y2="212.1"/>
<line x1="1087.2" y1="213.4" x2="1092.9" y2="212.9"/>
<line x1="1077.2" y1="214.3" x2="1082.9" y2="213.8"/>
<line x1="1137.1" y1="209.1" x2="1142.8" y2="208.6"/>
<line x1="1127.1" y1="209.9" x2="1132.8" y2="209.4"/>
<line x1="1117.2" y1="210.8" x2="1122.9" y2="210.3"/>
<line x1="1147.0" y1="207.9" x2="1152.9" y2="207.9"/>
<line x1="1122.2" y1="152.8" x2="1116.7" y2="154.3"/>
<line x1="1131.9" y1="150.2" x2="1126.3" y2="151.7"/>
<line x1="1141.5" y1="147.6" x2="1136.0" y2="149.1"/>
<line x1="1093.2" y1="160.6" x2="1087.6" y2="162.0"/>
<line x1="1102.8" y1="158.0" x2="1097.3" y2="159.4"/>
<line x1="1112.5" y1="155.4" x2="1107.0" y2="156.9"/>
<line x1="1153.1" y1="145.7" x2="1147.3" y2="145.7"/>
<line x1="1172.9" y1="145.7" x2="1166.9" y2="145.7"/>
<line x1="1151.0" y1="145.7" x2="1145.3" y2="145.7"/>
<line x1="1151.2" y1="145.0" x2="1145.7" y2="146.5"/>
<line x1="1080.9" y1="201.0" x2="1080.9" y2="206.7"/>
<line x1="1080.9" y1="191.0" x2="1080.9" y2="196.7"/>
<line x1="1080.9" y1="181.0" x2="1080.9" y2="186.7"/>
<line x1="1080.9" y1="171.0" x2="1080.9" y2="176.7"/>
<line x1="1080.9" y1="160.9" x2="1080.9" y2="166.7"/>
<line x1="1163.6" y1="191.6" x2="1157.9" y2="191.6"/>
<line x1="1180.8" y1="191.5" x2="1175.1" y2="191.5"/>
<line x1="1157.9" y1="161.5" x2="1163.6" y2="161.5"/>
<line x1="1175.1" y1="161.5" x2="1180.8" y2="161.5"/>
<line x1="1157.4" y1="207.9" x2="1162.9" y2="207.9"/>
<line x1="1157.4" y1="208.4" x2="1162.9" y2="208.4"/>
<line x1="1157.5" y1="145.4" x2="1163.0" y2="145.4"/>
<line x1="1168.1" y1="207.9" x2="1173.8" y2="207.9"/>
<line x1="1163.0" y1="145.7" x2="1157.5" y2="145.7"/>
<line x1="1169.2" y1="205.1" x2="1169.2" y2="210.9"/>
<line x1="1169.2" y1="195.1" x2="1169.2" y2="200.8"/>
<line x1="1169.2" y1="158.7" x2="1169.2" y2="164.4"/>
<line x1="1169.2" y1="149.9" x2="1169.2" y2="153.3"/>
<line x1="1157.9" y1="190.9" x2="1163.6" y2="190.9"/>
<line x1="1163.6" y1="162.0" x2="1157.9" y2="162.0"/>
<line x1="1161.7" y1="188.7" x2="1161.7" y2="194.4"/>
<line x1="1161.7" y1="178.6" x2="1161.7" y2="184.4"/>
<line x1="1161.7" y1="168.6" x2="1161.7" y2="174.3"/>
<line x1="1168.7" y1="194.4" x2="1168.7" y2="188.7"/>
<line x1="1168.4" y1="209.9" x2="1168.4" y2="206.6"/>
<line x1="1180.0" y1="210.8" x2="1180.0" y2="205.1"/>
<line x1="1180.0" y1="200.8" x2="1180.0" y2="195.1"/>
<line x1="1180.0" y1="190.8" x2="1180.0" y2="185.0"/>
<line x1="1180.0" y1="180.7" x2="1180.0" y2="175.0"/>
<line x1="1180.0" y1="170.7" x2="1180.0" y2="165.0"/>
<line x1="1180.0" y1="160.7" x2="1180.0" y2="155.0"/>
<line x1="1180.0" y1="150.7" x2="1180.0" y2="145.0"/>
<line x1="1168.7" y1="182.6" x2="1168.7" y2="180.4"/>
<line x1="1168.7" y1="174.6" x2="1168.7" y2="173.2"/>
<line x1="1168.7" y1="166.2" x2="1168.7" y2="164.1"/>
<line x1="1061.7" y1="204.1" x2="1066.3" y2="204.1"/>
<line x1="1061.7" y1="187.6" x2="1066.3" y2="187.6"/>
<line x1="1061.7" y1="195.7" x2="1066.3" y2="195.7"/>
<line x1="1061.7" y1="217.8" x2="1066.3" y2="217.8"/>
<line x1="1061.7" y1="226.9" x2="1066.3" y2="226.9"/>
<line x1="1061.7" y1="174.0" x2="1066.3" y2="174.0"/>
<line x1="1061.7" y1="164.8" x2="1066.3" y2="164.8"/>
<line x1="1060.2" y1="226.0" x2="1055.6" y2="226.0"/>
<line x1="1060.2" y1="216.9" x2="1055.6" y2="216.9"/>
<line x1="1060.2" y1="207.8" x2="1055.6" y2="207.8"/>
<line x1="1060.2" y1="173.8" x2="1055.6" y2="173.8"/>
<line x1="1060.2" y1="164.7" x2="1055.6" y2="164.7"/>
<line x1="1060.2" y1="158.5" x2="1055.6" y2="158.5"/>
<line x1="1054.5" y1="148.5" x2="1054.5" y2="153.1"/>
<line x1="1061.7" y1="155.7" x2="1066.3" y2="155.7"/>
<line x1="1085.7" y1="142.7" x2="1087.0" y2="147.1"/>
<line x1="1081.4" y1="144.0" x2="1082.7" y2="148.4"/>
<line x1="1077.1" y1="145.3" x2="1078.3" y2="149.7"/>
<line x1="1072.7" y1="146.5" x2="1074.0" y2="150.9"/>
<line x1="1068.4" y1="147.7" x2="1069.6" y2="152.1"/>
<line x1="1063.4" y1="148.9" x2="1064.6" y2="153.4"/>
<line x1="1054.6" y1="204.0" x2="1054.7" y2="207.3"/>
<line x1="1080.6" y1="232.3" x2="1080.6" y2="237.0"/>
<line x1="1113.7" y1="135.1" x2="1114.9" y2="139.6"/>
<line x1="1121.6" y1="133.1" x2="1122.7" y2="137.5"/>
<line x1="1133.2" y1="129.9" x2="1134.7" y2="134.3"/>
<line x1="1094.4" y1="140.2" x2="1095.6" y2="144.6"/>
<line x1="1101.9" y1="138.2" x2="1103.1" y2="142.6"/>
<line x1="1127.5" y1="130.0" x2="1126.3" y2="125.6"/>
<line x1="1133.6" y1="128.4" x2="1132.4" y2="124.0"/>
<line x1="1109.4" y1="134.9" x2="1108.2" y2="130.5"/>
<line x1="1117.0" y1="132.9" x2="1115.8" y2="128.4"/>
<line x1="1089.9" y1="140.2" x2="1088.7" y2="135.7"/>
<line x1="1097.5" y1="138.1" x2="1096.3" y2="133.7"/>
<line x1="1077.8" y1="143.4" x2="1076.6" y2="139.0"/>
<line x1="1073.4" y1="144.6" x2="1072.2" y2="140.2"/>
<line x1="1069.1" y1="145.8" x2="1067.9" y2="141.3"/>
<line x1="1080.4" y1="230.9" x2="1080.4" y2="226.4"/>
<line x1="1111.2" y1="230.8" x2="1111.2" y2="226.3"/>
<line x1="1123.0" y1="231.0" x2="1123.1" y2="226.4"/>
<line x1="1103.1" y1="231.0" x2="1103.1" y2="226.4"/>
<line x1="1131.2" y1="231.1" x2="1131.2" y2="226.5"/>
<line x1="1134.8" y1="232.1" x2="1134.8" y2="236.7"/>
<line x1="1126.7" y1="232.1" x2="1126.7" y2="236.7"/>
<line x1="1114.7" y1="232.2" x2="1114.7" y2="236.8"/>
<line x1="1106.6" y1="232.3" x2="1106.6" y2="236.9"/>
<line x1="1094.4" y1="232.3" x2="1094.4" y2="236.9"/>
<line x1="1087.8" y1="232.3" x2="1087.8" y2="236.9"/>
<line x1="1083.5" y1="232.8" x2="1083.5" y2="236.6"/>
<line x1="1144.0" y1="231.0" x2="1144.0" y2="226.5"/>
<line x1="1158.6" y1="230.6" x2="1158.6" y2="226.8"/>
<line x1="1155.2" y1="232.1" x2="1155.2" y2="236.7"/>
<line x1="1147.1" y1="232.1" x2="1147.1" y2="236.7"/>
<line x1="1163.4" y1="233.3" x2="1163.4" y2="235.7"/>
<line x1="1167.4" y1="236.2" x2="1171.6" y2="236.0"/>
<line x1="1048.9" y1="196.7" x2="1044.3" y2="196.7"/>
<line x1="1048.9" y1="183.1" x2="1044.3" y2="183.1"/>
<line x1="1048.9" y1="192.1" x2="1044.3" y2="192.1"/>
<line x1="1045.6" y1="203.4" x2="1045.6" y2="207.9"/>
<line x1="1055.5" y1="185.4" x2="1055.4" y2="180.8"/>
<line x1="1059.6" y1="179.9" x2="1056.1" y2="179.9"/>
<line x1="1164.1" y1="208.2" x2="1159.5" y2="208.2"/>
<line x1="1165.8" y1="216.8" x2="1170.4" y2="216.8"/>
<line x1="1171.3" y1="219.5" x2="1171.3" y2="217.2"/>
<line x1="1176.5" y1="219.5" x2="1176.5" y2="217.2"/>
<line x1="1173.8" y1="232.9" x2="1178.4" y2="232.9"/>
<line x1="1173.8" y1="225.7" x2="1178.4" y2="225.7"/>
<line x1="1171.3" y1="232.4" x2="1173.1" y2="236.6"/>
<line x1="1064.1" y1="147.0" x2="1064.2" y2="142.4"/>
<line x1="1056.3" y1="146.8" x2="1056.4" y2="142.3"/>
<line x1="1047.4" y1="148.5" x2="1047.4" y2="153.1"/>
<line x1="1135.6" y1="130.0" x2="1139.3" y2="132.6"/>
<line x1="1140.7" y1="122.8" x2="1144.4" y2="125.5"/>
<line x1="1145.8" y1="115.6" x2="1149.5" y2="118.3"/>
<line x1="1150.2" y1="106.0" x2="1146.5" y2="103.3"/>
<line x1="1144.9" y1="113.4" x2="1141.2" y2="110.7"/>
<line x1="1139.6" y1="120.8" x2="1135.9" y2="118.1"/>
<line x1="1150.3" y1="110.9" x2="1150.4" y2="115.5"/>
<line x1="1156.5" y1="111.6" x2="1153.3" y2="114.8"/>
<line x1="1157.1" y1="107.3" x2="1157.1" y2="102.8"/>
<line x1="1162.2" y1="112.8" x2="1165.3" y2="109.4"/>
<line x1="1167.3" y1="119.6" x2="1170.9" y2="116.8"/>
<line x1="1050.9" y1="148.5" x2="1050.9" y2="153.1"/>
<line x1="1080.2" y1="238.3" x2="1080.2" y2="233.7"/>
<line x1="1058.2" y1="233.8" x2="1058.2" y2="238.3"/>
<line x1="1164.1" y1="216.9" x2="1159.5" y2="216.9"/>
<line x1="1164.1" y1="225.7" x2="1159.5" y2="225.7"/>
<line x1="1154.1" y1="230.6" x2="1154.1" y2="226.8"/>
<line x1="1151.4" y1="230.6" x2="1151.4" y2="226.8"/>
<line x1="1060.0" y1="153.9" x2="1055.4" y2="153.9"/>
<line x1="1168.3" y1="124.0" x2="1168.4" y2="119.4"/>
<line x1="1159.9" y1="121.4" x2="1164.5" y2="121.4"/>
<line x1="1169.8" y1="121.4" x2="1165.3" y2="121.4"/>
<line x1="1163.8" y1="119.7" x2="1159.2" y2="119.6"/>
<line x1="1067.2" y1="230.9" x2="1067.2" y2="226.4"/>
<line x1="1090.4" y1="230.9" x2="1090.4" y2="226.4"/>
<line x1="1075.9" y1="230.9" x2="1075.9" y2="226.4"/>
<line x1="1167.7" y1="183.0" x2="1167.7" y2="178.4"/>
<line x1="1167.7" y1="175.7" x2="1167.7" y2="171.2"/>
<line x1="1168.2" y1="162.5" x2="1168.2" y2="169.4"/>
<line x1="1168.2" y1="169.5" x2="1168.2" y2="176.4"/>
<line x1="1064.4" y1="210.9" x2="1064.4" y2="206.3"/>
<line x1="1107.8" y1="139.4" x2="1112.2" y2="138.2"/>
<line x1="1088.5" y1="144.5" x2="1092.9" y2="143.3"/>
<line x1="1097.2" y1="228.3" x2="1092.6" y2="228.3"/>
<line x1="1137.5" y1="228.4" x2="1132.9" y2="228.4"/>
<line x1="1120.0" y1="234.9" x2="1124.6" y2="234.9"/>
<line x1="1127.5" y1="134.2" x2="1131.9" y2="133.0"/>
<line x1="1064.4" y1="180.8" x2="1064.4" y2="176.2"/>
<line x1="1122.9" y1="128.6" x2="1118.5" y2="129.8"/>
<line x1="1103.4" y1="133.8" x2="1099.0" y2="134.9"/>
<line x1="1083.6" y1="139.0" x2="1079.1" y2="140.2"/>
<line x1="1117.6" y1="228.3" x2="1113.0" y2="228.3"/>
<line x1="1100.1" y1="235.0" x2="1104.7" y2="235.0"/>
<line x1="1140.4" y1="234.9" x2="1145.0" y2="234.8"/>
<line x1="1163.1" y1="236.1" x2="1167.6" y2="236.1"/>
<line x1="1048.4" y1="143.0" x2="1048.5" y2="147.6"/>
<line x1="1050.8" y1="149.9" x2="1046.3" y2="150.0"/>
<line x1="1050.7" y1="140.8" x2="1046.1" y2="140.8"/>
<line x1="1159.1" y1="153.6" x2="1164.8" y2="153.6"/>
<line x1="1061.8" y1="261.3" x2="1061.8" y2="270.5"/>
<line x1="1073.4" y1="270.5" x2="1073.4" y2="261.3"/>
<line x1="1067.9" y1="261.3" x2="1067.9" y2="270.5"/>
<line x1="1067.5" y1="270.5" x2="1067.5" y2="261.3"/>
<line x1="1061.7" y1="268.2" x2="1070.9" y2="268.2"/>
<line x1="1070.9" y1="268.2" x2="1075.5" y2="268.2"/>
<line x1="1047.2" y1="241.8" x2="1038.0" y2="241.8"/>
<line x1="1038.0" y1="253.2" x2="1047.2" y2="253.2"/>
<line x1="1040.4" y1="244.2" x2="1040.4" y2="253.3"/>
<line x1="1040.4" y1="239.6" x2="1040.4" y2="244.2"/>
<line x1="1087.7" y1="251.6" x2="1087.7" y2="247.0"/>
<line x1="1047.2" y1="248.0" x2="1038.0" y2="248.0"/>
<line x1="1038.0" y1="247.3" x2="1047.2" y2="247.3"/>
<line x1="1080.9" y1="249.7" x2="1090.0" y2="249.7"/>
<line x1="1090.0" y1="244.1" x2="1080.9" y2="244.1"/>
<line x1="1080.9" y1="243.5" x2="1090.0" y2="243.5"/>
<line x1="1090.0" y1="237.9" x2="1080.9" y2="237.9"/>
<line x1="1087.5" y1="257.9" x2="1079.6" y2="253.3"/>
<line x1="1076.7" y1="258.3" x2="1084.6" y2="262.9"/>
<line x1="1082.3" y1="262.1" x2="1085.8" y2="256.1"/>
<line x1="1087.7" y1="247.0" x2="1087.7" y2="237.9"/>
<line x1="1151.8" y1="132.9" x2="1156.4" y2="132.9"/>
<line x1="1044.3" y1="194.7" x2="1048.8" y2="194.7"/>
<line x1="1178.8" y1="132.3" x2="1174.2" y2="132.3"/>
<line x1="1168.4" y1="148.6" x2="1168.4" y2="142.9"/>
<line x1="1168.4" y1="159.6" x2="1168.4" y2="151.9"/>
<line x1="1168.4" y1="204.4" x2="1168.4" y2="198.7"/>
<line x1="1168.4" y1="208.7" x2="1168.4" y2="202.9"/>
<line x1="1180.0" y1="210.8" x2="1180.0" y2="205.1"/>
<line x1="1180.0" y1="200.8" x2="1180.0" y2="195.1"/>
<line x1="1180.0" y1="190.8" x2="1180.0" y2="185.0"/>
<line x1="1180.0" y1="180.7" x2="1180.0" y2="175.0"/>
<line x1="1180.0" y1="170.7" x2="1180.0" y2="165.0"/>
<line x1="1180.0" y1="160.7" x2="1180.0" y2="155.0"/>
<line x1="1160.7" y1="174.4" x2="1160.7" y2="168.7"/>
<line x1="1160.7" y1="184.4" x2="1160.7" y2="178.7"/>
<line x1="1160.7" y1="164.4" x2="1160.7" y2="158.7"/>
<line x1="1159.1" y1="161.8" x2="1164.8" y2="161.8"/>
<line x1="1159.0" y1="208.2" x2="1164.8" y2="208.2"/>
<line x1="1159.0" y1="199.6" x2="1164.8" y2="199.6"/>
</g>
<g transform="translate(20,406)">
<circle cx="6" cy="-4" r="6" fill="#059669"/><text x="18" y="0" class="su">시작 지점</text>
<rect x="88" y="-10" width="13" height="13" rx="3" fill="#2563EB"/><text x="108" y="0" class="su">출구 (도착 레벨 표시)</text>
<line x1="270" y1="-4" x2="292.9" y2="-4" stroke="#0F172A" stroke-width="2"/>
<text x="300.9" y="0" class="su">10 m</text>
</g></svg>