<svg xmlns="http://www.w3.org/2000/svg" viewBox="0 0 1200 803">
<style>
.ti{font-family:Orbitron,monospace;font-size:14px;font-weight:700;fill:#0F172A}
.su{font-family:monospace;font-size:11px;fill:#475569}
.fl{font-family:Orbitron,monospace;font-size:11px;font-weight:700;fill:#2563EB}
.mk{font-family:Rajdhani,sans-serif;font-size:11px;font-weight:700;fill:#0F172A}
</style>
<rect x="0" y="0" width="1200" height="803" fill="#F8FAFC"/>
<text x="20" y="26" class="ti">THE END — 딘 라이브러리</text>
<text x="20" y="45" class="su">위험도 2 · 목표 1:35 · 맵 2개</text>
<text x="12.0" y="60" class="fl">단층 &#183; Z 2~2 m</text>
<g stroke="#0F172A" stroke-opacity=".82" stroke-width="3.84" stroke-linecap="square">
<line x1="306.2" y1="384.7" x2="354.2" y2="384.7"/>
<line x1="298.2" y1="570.0" x2="346.2" y2="570.0"/>
<line x1="63.1" y1="495.9" x2="111.2" y2="495.9"/>
<line x1="282.5" y1="131.6" x2="330.5" y2="131.6"/>
<line x1="282.5" y1="384.7" x2="330.5" y2="384.7"/>
<line x1="548.7" y1="643.9" x2="548.7" y2="595.9"/>
<line x1="645.1" y1="585.5" x2="645.1" y2="537.5"/>
<line x1="694.1" y1="632.2" x2="694.1" y2="656.2"/>
<line x1="694.1" y1="596.2" x2="694.1" y2="634.6"/>
<line x1="1001.4" y1="713.4" x2="1039.9" y2="713.4"/>
<line x1="953.4" y1="713.4" x2="991.8" y2="713.4"/>
<line x1="905.4" y1="713.4" x2="943.8" y2="713.4"/>
<line x1="857.4" y1="713.4" x2="895.8" y2="713.4"/>
<line x1="809.4" y1="713.4" x2="847.8" y2="713.4"/>
<line x1="761.4" y1="713.4" x2="799.8" y2="713.4"/>
<line x1="713.4" y1="713.4" x2="751.8" y2="713.4"/>
<line x1="675.9" y1="713.4" x2="708.3" y2="713.4"/>
<line x1="1049.5" y1="713.4" x2="1087.9" y2="713.4"/>
<line x1="940.0" y1="465.5" x2="901.6" y2="465.5"/>
<line x1="988.0" y1="465.5" x2="949.6" y2="465.5"/>
<line x1="1036.0" y1="465.5" x2="997.6" y2="465.5"/>
<line x1="1084.0" y1="465.5" x2="1045.6" y2="465.5"/>
<line x1="1132.1" y1="465.5" x2="1093.6" y2="465.5"/>
<line x1="694.1" y1="500.1" x2="694.1" y2="538.5"/>
<line x1="743.3" y1="465.5" x2="714.2" y2="465.5"/>
<line x1="795.9" y1="465.5" x2="757.5" y2="465.5"/>
<line x1="844.0" y1="465.5" x2="805.5" y2="465.5"/>
<line x1="892.0" y1="465.5" x2="853.6" y2="465.5"/>
<line x1="1070.6" y1="505.8" x2="1070.6" y2="467.4"/>
<line x1="694.1" y1="452.1" x2="694.1" y2="490.5"/>
<line x1="1070.6" y1="553.8" x2="1070.6" y2="515.4"/>
<line x1="1070.6" y1="568.8" x2="1070.6" y2="534.6"/>
<line x1="1070.6" y1="594.5" x2="1070.6" y2="551.7"/>
<line x1="1070.6" y1="640.3" x2="1070.6" y2="601.9"/>
<line x1="1070.6" y1="688.4" x2="1070.6" y2="649.9"/>
<line x1="1070.6" y1="736.4" x2="1070.6" y2="698.0"/>
<line x1="694.1" y1="404.1" x2="694.1" y2="442.5"/>
<line x1="694.1" y1="657.4" x2="694.1" y2="695.8"/>
<line x1="694.1" y1="548.1" x2="694.1" y2="586.6"/>
</g>
<circle cx="355.5" cy="396.1" r="7" fill="#059669" stroke="#fff" stroke-width="2"/>
<circle cx="464.4" cy="396.1" r="7" fill="#059669" stroke="#fff" stroke-width="2"/>
<circle cx="186.7" cy="396.1" r="7" fill="#059669" stroke="#fff" stroke-width="2"/>
<circle cx="1020.8" cy="617.9" r="7" fill="#059669" stroke="#fff" stroke-width="2"/>
<circle cx="1031.6" cy="646.4" r="7" fill="#059669" stroke="#fff" stroke-width="2"/>
<circle cx="1000.7" cy="657.3" r="7" fill="#059669" stroke="#fff" stroke-width="2"/>
<circle cx="986.9" cy="618.1" r="7" fill="#059669" stroke="#fff" stroke-width="2"/>
<circle cx="268.3" cy="396.1" r="7" fill="#059669" stroke="#fff" stroke-width="2"/>
<g transform="translate(20,791)">
<circle cx="6" cy="-4" r="6" fill="#059669"/><text x="18" y="0" class="su">시작 지점</text>
<rect x="88" y="-10" width="13" height="13" rx="3" fill="#2563EB"/><text x="108" y="0" class="su">출구 (도착 레벨 표시)</text>
<line x1="270" y1="-4" x2="462.1" y2="-4" stroke="#0F172A" stroke-width="2"/>
<text x="470.1" y="0" class="su">10 m</text>
</g></svg>