<svg xmlns="http://www.w3.org/2000/svg" viewBox="0 0 1200 1113">
<rect x="0" y="0" width="1200" height="1113" fill="#F8FAFC"/>
<line x1="-2.3" y1="1112.5" x2="-2.3" y2="0.0" stroke="#0F172A" stroke-opacity=".07"/>
<line x1="90.9" y1="1112.5" x2="90.9" y2="0.0" stroke="#0F172A" stroke-opacity=".07"/>
<line x1="184.1" y1="1112.5" x2="184.1" y2="0.0" stroke="#0F172A" stroke-opacity=".07"/>
<line x1="277.2" y1="1112.5" x2="277.2" y2="0.0" stroke="#0F172A" stroke-opacity=".07"/>
<line x1="370.4" y1="1112.5" x2="370.4" y2="0.0" stroke="#0F172A" stroke-opacity=".07"/>
<line x1="463.5" y1="1112.5" x2="463.5" y2="0.0" stroke="#0F172A" stroke-opacity=".07"/>
<line x1="556.7" y1="1112.5" x2="556.7" y2="0.0" stroke="#0F172A" stroke-opacity=".07"/>
<line x1="649.9" y1="1112.5" x2="649.9" y2="0.0" stroke="#0F172A" stroke-opacity=".07"/>
<line x1="743.0" y1="1112.5" x2="743.0" y2="0.0" stroke="#0F172A" stroke-opacity=".07"/>
<line x1="836.2" y1="1112.5" x2="836.2" y2="0.0" stroke="#0F172A" stroke-opacity=".07"/>
<line x1="929.4" y1="1112.5" x2="929.4" y2="0.0" stroke="#0F172A" stroke-opacity=".07"/>
<line x1="1022.5" y1="1112.5" x2="1022.5" y2="0.0" stroke="#0F172A" stroke-opacity=".07"/>
<line x1="1115.7" y1="1112.5" x2="1115.7" y2="0.0" stroke="#0F172A" stroke-opacity=".07"/>
<line x1="0.0" y1="1155.7" x2="1200.0" y2="1155.7" stroke="#0F172A" stroke-opacity=".07"/>
<line x1="0.0" y1="1062.5" x2="1200.0" y2="1062.5" stroke="#0F172A" stroke-opacity=".07"/>
<line x1="0.0" y1="969.4" x2="1200.0" y2="969.4" stroke="#0F172A" stroke-opacity=".07"/>
<line x1="0.0" y1="876.2" x2="1200.0" y2="876.2" stroke="#0F172A" stroke-opacity=".07"/>
<line x1="0.0" y1="783.0" x2="1200.0" y2="783.0" stroke="#0F172A" stroke-opacity=".07"/>
<line x1="0.0" y1="689.9" x2="1200.0" y2="689.9" stroke="#0F172A" stroke-opacity=".07"/>
<line x1="0.0" y1="596.7" x2="1200.0" y2="596.7" stroke="#0F172A" stroke-opacity=".07"/>
<line x1="0.0" y1="503.6" x2="1200.0" y2="503.6" stroke="#0F172A" stroke-opacity=".07"/>
<line x1="0.0" y1="410.4" x2="1200.0" y2="410.4" stroke="#0F172A" stroke-opacity=".07"/>
<line x1="0.0" y1="317.2" x2="1200.0" y2="317.2" stroke="#0F172A" stroke-opacity=".07"/>
<line x1="0.0" y1="224.1" x2="1200.0" y2="224.1" stroke="#0F172A" stroke-opacity=".07"/>
<line x1="0.0" y1="130.9" x2="1200.0" y2="130.9" stroke="#0F172A" stroke-opacity=".07"/>
<line x1="0.0" y1="37.7" x2="1200.0" y2="37.7" stroke="#0F172A" stroke-opacity=".07"/>
<g fill="#F59E0B" fill-opacity="0.45">
<circle cx="109.3" cy="322.6" r="2.6"/>
<circle cx="541.1" cy="717.3" r="2.6"/>
<circle cx="223.7" cy="912.7" r="2.6"/>
<circle cx="661.8" cy="85.3" r="2.6"/>
<circle cx="538.4" cy="643.2" r="2.6"/>
<circle cx="650.6" cy="154.6" r="2.6"/>
<circle cx="177.2" cy="323.0" r="2.6"/>
<circle cx="187.7" cy="848.5" r="2.6"/>
</g>
<g fill="#2563EB" fill-opacity="0.35">
<circle cx="3431.7" cy="-1017.7" r="2.4"/>
</g>
<g fill="#0F172A" fill-opacity="0.72">
<circle cx="587.2" cy="498.0" r="2.8"/>
<circle cx="566.0" cy="503.6" r="2.8"/>
<circle cx="121.1" cy="325.2" r="2.8"/>
<circle cx="459.2" cy="269.3" r="2.8"/>
<circle cx="105.8" cy="682.9" r="2.8"/>
<circle cx="737.6" cy="1024.8" r="2.8"/>
<circle cx="1039.0" cy="488.2" r="2.8"/>
<circle cx="560.0" cy="502.2" r="2.8"/>
<circle cx="556.7" cy="503.6" r="2.8"/>
<circle cx="556.7" cy="503.6" r="2.8"/>
<circle cx="556.7" cy="503.6" r="2.8"/>
<circle cx="556.7" cy="503.6" r="2.8"/>
<circle cx="556.7" cy="503.6" r="2.8"/>
<circle cx="556.7" cy="503.6" r="2.8"/>
<circle cx="556.7" cy="503.6" r="2.8"/>
<circle cx="556.7" cy="503.6" r="2.8"/>
<circle cx="556.7" cy="503.6" r="2.8"/>
<circle cx="556.7" cy="503.6" r="2.8"/>
<circle cx="556.7" cy="503.6" r="2.8"/>
<circle cx="556.7" cy="503.6" r="2.8"/>
<circle cx="556.7" cy="503.6" r="2.8"/>
<circle cx="556.7" cy="503.6" r="2.8"/>
<circle cx="556.7" cy="503.6" r="2.8"/>
<circle cx="556.7" cy="503.6" r="2.8"/>
<circle cx="556.7" cy="503.6" r="2.8"/>
<circle cx="556.7" cy="503.6" r="2.8"/>
<circle cx="556.7" cy="503.6" r="2.8"/>
<circle cx="556.7" cy="503.6" r="2.8"/>
<circle cx="556.7" cy="503.6" r="2.8"/>
<circle cx="556.7" cy="503.6" r="2.8"/>
<circle cx="556.7" cy="503.6" r="2.8"/>
<circle cx="556.7" cy="503.6" r="2.8"/>
<circle cx="556.7" cy="503.6" r="2.8"/>
<circle cx="556.7" cy="503.6" r="2.8"/>
<circle cx="556.7" cy="503.6" r="2.8"/>
<circle cx="556.7" cy="503.6" r="2.8"/>
<circle cx="556.7" cy="503.6" r="2.8"/>
<circle cx="556.7" cy="503.6" r="2.8"/>
<circle cx="556.7" cy="503.6" r="2.8"/>
<circle cx="556.7" cy="503.6" r="2.8"/>
<circle cx="556.7" cy="503.6" r="2.8"/>
<circle cx="556.7" cy="503.6" r="2.8"/>
<circle cx="556.7" cy="503.6" r="2.8"/>
<circle cx="556.7" cy="503.6" r="2.8"/>
<circle cx="556.7" cy="503.6" r="2.8"/>
<circle cx="556.7" cy="503.6" r="2.8"/>
<circle cx="556.7" cy="503.6" r="2.8"/>
<circle cx="556.7" cy="503.6" r="2.8"/>
<circle cx="556.7" cy="503.6" r="2.8"/>
<circle cx="556.7" cy="503.6" r="2.8"/>
<circle cx="556.7" cy="503.6" r="2.8"/>
<circle cx="556.7" cy="503.6" r="2.8"/>
<circle cx="556.7" cy="503.6" r="2.8"/>
<circle cx="556.7" cy="503.6" r="2.8"/>
<circle cx="556.7" cy="503.6" r="2.8"/>
<circle cx="556.7" cy="503.6" r="2.8"/>
<circle cx="556.7" cy="503.6" r="2.8"/>
<circle cx="556.7" cy="503.6" r="2.8"/>
<circle cx="556.7" cy="503.6" r="2.8"/>
<circle cx="556.7" cy="503.6" r="2.8"/>
<circle cx="556.7" cy="503.6" r="2.8"/>
<circle cx="556.7" cy="503.6" r="2.8"/>
<circle cx="556.7" cy="503.6" r="2.8"/>
<circle cx="556.7" cy="503.6" r="2.8"/>
<circle cx="556.7" cy="503.6" r="2.8"/>
<circle cx="556.7" cy="503.6" r="2.8"/>
<circle cx="556.7" cy="503.6" r="2.8"/>
<circle cx="556.7" cy="503.6" r="2.8"/>
<circle cx="556.7" cy="503.6" r="2.8"/>
<circle cx="556.7" cy="503.6" r="2.8"/>
<circle cx="556.7" cy="503.6" r="2.8"/>
<circle cx="556.7" cy="503.6" r="2.8"/>
<circle cx="556.7" cy="503.6" r="2.8"/>
<circle cx="556.7" cy="503.6" r="2.8"/>
<circle cx="556.7" cy="503.6" r="2.8"/>
<circle cx="556.7" cy="503.6" r="2.8"/>
<circle cx="556.7" cy="503.6" r="2.8"/>
<circle cx="556.7" cy="503.6" r="2.8"/>
<circle cx="556.7" cy="503.6" r="2.8"/>
<circle cx="556.7" cy="503.6" r="2.8"/>
<circle cx="556.7" cy="503.6" r="2.8"/>
<circle cx="556.7" cy="503.6" r="2.8"/>
<circle cx="556.7" cy="503.6" r="2.8"/>
<circle cx="556.7" cy="503.6" r="2.8"/>
<circle cx="556.7" cy="503.6" r="2.8"/>
<circle cx="556.7" cy="503.6" r="2.8"/>
<circle cx="556.7" cy="503.6" r="2.8"/>
<circle cx="556.7" cy="503.6" r="2.8"/>
<circle cx="556.7" cy="503.6" r="2.8"/>
<circle cx="556.7" cy="503.6" r="2.8"/>
<circle cx="556.7" cy="503.6" r="2.8"/>
<circle cx="556.7" cy="503.6" r="2.8"/>
<circle cx="556.7" cy="503.6" r="2.8"/>
<circle cx="556.7" cy="503.6" r="2.8"/>
<circle cx="556.7" cy="503.6" r="2.8"/>
<circle cx="556.7" cy="503.6" r="2.8"/>
<circle cx="556.7" cy="503.6" r="2.8"/>
<circle cx="556.7" cy="503.6" r="2.8"/>
<circle cx="556.7" cy="503.6" r="2.8"/>
<circle cx="556.7" cy="503.6" r="2.8"/>
<circle cx="556.7" cy="503.6" r="2.8"/>
<circle cx="556.7" cy="503.6" r="2.8"/>
<circle cx="556.7" cy="503.6" r="2.8"/>
<circle cx="556.7" cy="503.6" r="2.8"/>
<circle cx="556.7" cy="503.6" r="2.8"/>
<circle cx="556.7" cy="503.6" r="2.8"/>
<circle cx="556.7" cy="503.6" r="2.8"/>
<circle cx="556.7" cy="503.6" r="2.8"/>
<circle cx="556.7" cy="503.6" r="2.8"/>
<circle cx="556.7" cy="503.6" r="2.8"/>
<circle cx="556.7" cy="503.6" r="2.8"/>
<circle cx="556.7" cy="503.6" r="2.8"/>
<circle cx="556.7" cy="503.6" r="2.8"/>
<circle cx="556.7" cy="503.6" r="2.8"/>
<circle cx="556.7" cy="503.6" r="2.8"/>
<circle cx="556.7" cy="503.6" r="2.8"/>
<circle cx="556.7" cy="503.6" r="2.8"/>
<circle cx="556.7" cy="503.6" r="2.8"/>
<circle cx="556.7" cy="503.6" r="2.8"/>
<circle cx="556.7" cy="503.6" r="2.8"/>
<circle cx="556.7" cy="503.6" r="2.8"/>
<circle cx="556.7" cy="503.6" r="2.8"/>
<circle cx="556.7" cy="503.6" r="2.8"/>
<circle cx="556.7" cy="503.6" r="2.8"/>
<circle cx="556.7" cy="503.6" r="2.8"/>
<circle cx="556.7" cy="503.6" r="2.8"/>
<circle cx="556.7" cy="503.6" r="2.8"/>
<circle cx="556.7" cy="503.6" r="2.8"/>
<circle cx="556.7" cy="503.6" r="2.8"/>
<circle cx="556.7" cy="503.6" r="2.8"/>
<circle cx="556.7" cy="503.6" r="2.8"/>
<circle cx="556.7" cy="503.6" r="2.8"/>
<circle cx="556.7" cy="503.6" r="2.8"/>
<circle cx="556.7" cy="503.6" r="2.8"/>
<circle cx="556.7" cy="503.6" r="2.8"/>
<circle cx="556.7" cy="503.6" r="2.8"/>
<circle cx="556.7" cy="503.6" r="2.8"/>
<circle cx="556.7" cy="503.6" r="2.8"/>
<circle cx="556.7" cy="503.6" r="2.8"/>
<circle cx="556.7" cy="503.6" r="2.8"/>
<circle cx="556.7" cy="503.6" r="2.8"/>
<circle cx="556.7" cy="503.6" r="2.8"/>
<circle cx="556.7" cy="503.6" r="2.8"/>
<circle cx="556.7" cy="503.6" r="2.8"/>
<circle cx="556.7" cy="503.6" r="2.8"/>
<circle cx="556.7" cy="503.6" r="2.8"/>
<circle cx="556.7" cy="503.6" r="2.8"/>
<circle cx="556.7" cy="503.6" r="2.8"/>
<circle cx="556.7" cy="503.6" r="2.8"/>
<circle cx="556.7" cy="503.6" r="2.8"/>
<circle cx="556.7" cy="503.6" r="2.8"/>
<circle cx="556.7" cy="503.6" r="2.8"/>
<circle cx="556.7" cy="503.6" r="2.8"/>
<circle cx="556.7" cy="503.6" r="2.8"/>
<circle cx="556.7" cy="503.6" r="2.8"/>
<circle cx="556.7" cy="503.6" r="2.8"/>
<circle cx="556.7" cy="503.6" r="2.8"/>
<circle cx="556.7" cy="503.6" r="2.8"/>
<circle cx="556.7" cy="503.6" r="2.8"/>
<circle cx="556.7" cy="503.6" r="2.8"/>
<circle cx="556.7" cy="503.6" r="2.8"/>
<circle cx="556.7" cy="503.6" r="2.8"/>
<circle cx="556.7" cy="503.6" r="2.8"/>
<circle cx="556.7" cy="503.6" r="2.8"/>
<circle cx="556.7" cy="503.6" r="2.8"/>
<circle cx="556.7" cy="503.6" r="2.8"/>
<circle cx="556.7" cy="503.6" r="2.8"/>
<circle cx="556.7" cy="503.6" r="2.8"/>
<circle cx="556.7" cy="503.6" r="2.8"/>
<circle cx="556.7" cy="503.6" r="2.8"/>
<circle cx="556.7" cy="503.6" r="2.8"/>
<circle cx="556.7" cy="503.6" r="2.8"/>
<circle cx="556.7" cy="503.6" r="2.8"/>
<circle cx="556.7" cy="503.6" r="2.8"/>
<circle cx="556.7" cy="503.6" r="2.8"/>
<circle cx="556.7" cy="503.6" r="2.8"/>
<circle cx="556.7" cy="503.6" r="2.8"/>
<circle cx="556.7" cy="503.6" r="2.8"/>
<circle cx="556.7" cy="503.6" r="2.8"/>
<circle cx="556.7" cy="503.6" r="2.8"/>
<circle cx="556.7" cy="503.6" r="2.8"/>
<circle cx="556.7" cy="503.6" r="2.8"/>
<circle cx="556.7" cy="503.6" r="2.8"/>
<circle cx="556.7" cy="503.6" r="2.8"/>
<circle cx="556.7" cy="503.6" r="2.8"/>
<circle cx="556.7" cy="503.6" r="2.8"/>
<circle cx="556.7" cy="503.6" r="2.8"/>
<circle cx="556.7" cy="503.6" r="2.8"/>
<circle cx="556.7" cy="503.6" r="2.8"/>
<circle cx="556.7" cy="503.6" r="2.8"/>
<circle cx="556.7" cy="503.6" r="2.8"/>
<circle cx="556.7" cy="503.6" r="2.8"/>
<circle cx="556.7" cy="503.6" r="2.8"/>
<circle cx="556.7" cy="503.6" r="2.8"/>
<circle cx="556.7" cy="503.6" r="2.8"/>
<circle cx="556.7" cy="503.6" r="2.8"/>
<circle cx="556.7" cy="503.6" r="2.8"/>
<circle cx="556.7" cy="503.6" r="2.8"/>
<circle cx="556.7" cy="503.6" r="2.8"/>
<circle cx="556.7" cy="503.6" r="2.8"/>
<circle cx="556.7" cy="503.6" r="2.8"/>
<circle cx="551.8" cy="490.9" r="2.8"/>
<circle cx="541.5" cy="707.4" r="2.8"/>
<circle cx="219.3" cy="903.7" r="2.8"/>
<circle cx="118.3" cy="322.2" r="2.8"/>
<circle cx="657.3" cy="94.8" r="2.8"/>
<circle cx="469.6" cy="242.8" r="2.8"/>
<circle cx="1002.0" cy="525.7" r="2.8"/>
<circle cx="1076.3" cy="448.3" r="2.8"/>
<circle cx="762.6" cy="1062.3" r="2.8"/>
<circle cx="65.3" cy="659.7" r="2.8"/>
<circle cx="457.8" cy="288.6" r="2.8"/>
<circle cx="471.5" cy="271.5" r="2.8"/>
<circle cx="458.0" cy="287.6" r="2.8"/>
<circle cx="437.5" cy="215.8" r="2.8"/>
<circle cx="988.7" cy="514.6" r="2.8"/>
<circle cx="783.8" cy="1068.1" r="2.8"/>
<circle cx="977.4" cy="559.9" r="2.8"/>
<circle cx="723.9" cy="1052.1" r="2.8"/>
<circle cx="774.9" cy="1022.2" r="2.8"/>
<circle cx="1020.2" cy="540.7" r="2.8"/>
<circle cx="993.2" cy="572.9" r="2.8"/>
<circle cx="972.9" cy="501.2" r="2.8"/>
<circle cx="1062.8" cy="464.5" r="2.8"/>
<circle cx="1089.2" cy="433.0" r="2.8"/>
<circle cx="1108.2" cy="475.7" r="2.8"/>
<circle cx="720.5" cy="1050.8" r="2.8"/>
<circle cx="1105.1" cy="446.4" r="2.8"/>
<circle cx="1121.2" cy="459.9" r="2.8"/>
<circle cx="1049.4" cy="480.4" r="2.8"/>
<circle cx="44.4" cy="663.3" r="2.8"/>
<circle cx="1006.5" cy="557.1" r="2.8"/>
<circle cx="72.0" cy="701.1" r="2.8"/>
<circle cx="105.7" cy="652.5" r="2.8"/>
<circle cx="105.7" cy="652.5" r="2.8"/>
<circle cx="453.4" cy="229.2" r="2.8"/>
<circle cx="484.9" cy="255.6" r="2.8"/>
<circle cx="442.1" cy="274.6" r="2.8"/>
<circle cx="470.7" cy="273.1" r="2.8"/>
<circle cx="450.1" cy="281.4" r="2.8"/>
<circle cx="781.8" cy="1023.7" r="2.8"/>
<circle cx="62.3" cy="702.9" r="2.8"/>
<circle cx="479.4" cy="278.4" r="2.8"/>
<circle cx="1000.4" cy="579.2" r="2.8"/>
<circle cx="997.8" cy="549.6" r="2.8"/>
<circle cx="1128.1" cy="452.0" r="2.8"/>
<circle cx="1112.0" cy="438.5" r="2.8"/>
<circle cx="465.9" cy="294.5" r="2.8"/>
<circle cx="992.1" cy="572.2" r="2.8"/>
<circle cx="1121.7" cy="459.6" r="2.8"/>
<circle cx="458.2" cy="288.1" r="2.8"/>
<circle cx="70.7" cy="690.3" r="2.8"/>
<circle cx="733.1" cy="1054.4" r="2.8"/>
<circle cx="449.6" cy="266.6" r="2.8"/>
<circle cx="770.7" cy="1032.3" r="2.8"/>
<circle cx="1100.2" cy="468.3" r="2.8"/>
<circle cx="1042.7" cy="488.1" r="2.8"/>
<circle cx="1015.7" cy="520.2" r="2.8"/>
<circle cx="95.5" cy="654.3" r="2.8"/>
<circle cx="220.2" cy="899.6" r="2.8"/>
<circle cx="542.7" cy="705.5" r="2.8"/>
<circle cx="657.0" cy="97.7" r="2.8"/>
<circle cx="121.4" cy="326.9" r="2.8"/>
<circle cx="470.7" cy="176.8" r="2.8"/>
<circle cx="1007.4" cy="463.4" r="2.8"/>
<circle cx="1010.4" cy="447.2" r="2.8"/>
<circle cx="711.9" cy="1102.1" r="2.8"/>
<circle cx="97.2" cy="602.0" r="2.8"/>
<circle cx="425.3" cy="260.5" r="2.8"/>
<circle cx="962.0" cy="547.0" r="2.8"/>
<circle cx="1047.7" cy="363.9" r="2.8"/>
<circle cx="782.5" cy="1000.0" r="2.8"/>
<circle cx="76.3" cy="724.3" r="2.8"/>
<circle cx="507.9" cy="274.2" r="2.8"/>
<circle cx="468.5" cy="345.9" r="2.8"/>
<circle cx="1043.6" cy="561.9" r="2.8"/>
<circle cx="1002.1" cy="629.8" r="2.8"/>
<circle cx="1107.8" cy="409.9" r="2.8"/>
<circle cx="1179.4" cy="449.4" r="2.8"/>
<circle cx="683.3" cy="1004.3" r="2.8"/>
<circle cx="164.7" cy="678.5" r="2.8"/>
<circle cx="485.1" cy="255.8" r="2.8"/>
<circle cx="1020.4" cy="541.1" r="2.8"/>
<circle cx="1089.4" cy="432.7" r="2.8"/>
<circle cx="743.9" cy="1057.4" r="2.8"/>
<circle cx="85.3" cy="656.1" r="2.8"/>
<circle cx="1004.2" cy="527.5" r="2.8"/>
<circle cx="763.6" cy="1062.7" r="2.8"/>
<circle cx="1049.3" cy="480.5" r="2.8"/>
<circle cx="1108.5" cy="475.5" r="2.8"/>
<circle cx="1075.7" cy="449.0" r="2.8"/>
<circle cx="723.8" cy="1052.0" r="2.8"/>
<circle cx="774.6" cy="1022.0" r="2.8"/>
<circle cx="105.8" cy="652.5" r="2.8"/>
<circle cx="72.4" cy="701.2" r="2.8"/>
<circle cx="437.3" cy="215.7" r="2.8"/>
<circle cx="468.9" cy="242.2" r="2.8"/>
<circle cx="442.4" cy="274.9" r="2.8"/>
<circle cx="437.5" cy="215.8" r="2.8"/>
<circle cx="972.7" cy="501.1" r="2.8"/>
<circle cx="977.7" cy="560.2" r="2.8"/>
<circle cx="65.1" cy="659.7" r="2.8"/>
<circle cx="1008.0" cy="558.1" r="2.8"/>
<circle cx="994.3" cy="574.5" r="2.8"/>
<circle cx="785.0" cy="1068.6" r="2.8"/>
<circle cx="751.1" cy="1037.8" r="2.8"/>
<circle cx="1063.0" cy="464.2" r="2.8"/>
<circle cx="1105.3" cy="446.3" r="2.8"/>
<circle cx="1121.7" cy="460.0" r="2.8"/>
<circle cx="756.6" cy="1017.2" r="2.8"/>
<circle cx="88.7" cy="676.8" r="2.8"/>
<circle cx="92.4" cy="697.8" r="2.8"/>
<circle cx="453.7" cy="229.4" r="2.8"/>
<circle cx="471.5" cy="271.7" r="2.8"/>
<circle cx="457.8" cy="288.1" r="2.8"/>
<circle cx="457.8" cy="288.1" r="2.8"/>
<circle cx="471.1" cy="272.2" r="2.8"/>
<circle cx="990.3" cy="515.9" r="2.8"/>
<circle cx="44.8" cy="663.3" r="2.8"/>
<circle cx="674.6" cy="96.6" r="2.8"/>
<circle cx="120.2" cy="304.8" r="2.8"/>
<circle cx="204.0" cy="912.5" r="2.8"/>
<circle cx="525.1" cy="709.0" r="2.8"/>
<circle cx="674.0" cy="92.3" r="2.8"/>
<circle cx="115.1" cy="305.7" r="2.8"/>
<circle cx="207.6" cy="916.1" r="2.8"/>
<circle cx="527.7" cy="714.1" r="2.8"/>
<circle cx="556.7" cy="503.6" r="2.8"/>
</g>
<g transform="translate(24,1089)">
<line x1="0" y1="0" x2="186.3" y2="0" stroke="#0F172A" stroke-width="2.5"/>
<line x1="0" y1="-4" x2="0" y2="4" stroke="#0F172A" stroke-width="2.5"/>
<line x1="186.3" y1="-4" x2="186.3" y2="4" stroke="#0F172A" stroke-width="2.5"/>
<text x="77.2" y="-8" font-family="IBM Plex Mono,monospace" font-size="12" fill="#0F172A">20 m</text>
</g>
<text x="24" y="32" font-family="Orbitron,monospace" font-size="15" font-weight="700" fill="#0F172A">LEVEL 421 — Endless Ocean Ballpit</text>
<text x="24" y="52" font-family="IBM Plex Mono,monospace" font-size="11.5" fill="#475569">danger 2 · 끝없는 볼풀</text>
</svg>